<?xml version="1.0" encoding="utf-8"?>
<!-- Generator: Adobe Illustrator 21.1.0, SVG Export Plug-In . SVG Version: 6.00 Build 0)  -->
<svg version="1.1" id="Layer_1" xmlns="http://www.w3.org/2000/svg" xmlns:xlink="http://www.w3.org/1999/xlink" x="0px" y="0px"
	 viewBox="0 0 512 512" style="enable-background:new 0 0 512 512;" xml:space="preserve">
<g>
	<path d="M256,512c-34.7,0-67.3-17.2-87.4-45c-33.9,5.6-69.2-5.5-93.6-30c-24.6-24.6-35.4-59.8-29.9-93.6C17.2,323.4,0,290.8,0,256
		s17.2-67.3,45.1-87.4C39.6,134.7,50.4,99.6,75,75c24.5-24.5,59.7-35.5,93.7-29.9C188.7,17.2,221.2,0,256,0s67.3,17.2,87.4,45.1
		c34-5.6,69.2,5.5,93.6,29.9c24.6,24.6,35.4,59.8,29.9,93.7c27.9,20,45.1,52.6,45.1,87.4c0,34.7-17.2,67.4-45.1,87.4
		c5.5,33.9-5.4,69.1-29.9,93.6c-20.3,20.2-47.2,31.4-76,31.4l0,0c-6,0-11.9-0.5-17.7-1.4C323.3,494.8,290.7,512,256,512L256,512z
		 M191.7,411.2l9,19c10.3,21.8,31.5,35.3,55.3,35.3s44.9-13.5,55.2-35.3l9-19l19.8,7.1c22.1,7.9,47.5,2.4,64-14.1
		c16.8-16.8,22.2-41.4,14.1-64l-7.1-19.8l19-9c21.8-10.3,35.3-31.5,35.3-55.3c0-23.8-13.5-44.9-35.3-55.2l-19-9l7.1-19.9
		c8.1-22.7,2.7-47.2-14.1-64c-16.5-16.5-41.9-22-64-14.1l-19.8,7.1l-9-19c-10.3-21.7-31.5-35.3-55.2-35.3c-23.8,0-45,13.5-55.3,35.3
		l-9,19l-19.8-7.1c-22.1-7.9-47.5-2.4-64,14.1c-16.8,16.8-22.2,41.4-14.1,64l7.1,19.9l-19,9C60,211.1,46.5,232.2,46.5,256
		s13.5,45,35.3,55.3l19,9l-7.1,19.8c-8.1,22.6-2.7,47.2,14.1,64c16.5,16.5,41.9,22,64,14.1L191.7,411.2L191.7,411.2z"/>
	<path d="M240,365.7l-93.3-62.2l32.3-48.4l46.4,31l100-140l47.4,33.8L240,365.7z"/>
</g>
</svg>
