<?xml version="1.0" encoding="utf-8"?>
<!-- Generator: Adobe Illustrator 21.1.0, SVG Export Plug-In . SVG Version: 6.00 Build 0)  -->
<svg version="1.1" id="Layer_1" xmlns="http://www.w3.org/2000/svg" xmlns:xlink="http://www.w3.org/1999/xlink" x="0px" y="0px"
	 viewBox="0 0 512 512" style="enable-background:new 0 0 512 512;" xml:space="preserve">
<g>
	<path d="M460.8,25.6H51.2C22.9,25.6,0,48.6,0,76.8v76.8c0,14.1,11.4,25.6,25.6,25.6v256c0,28.2,22.9,51.2,51.2,51.2h358.4
		c28.3,0,51.2-23,51.2-51.2v-256c14.2,0,25.6-11.5,25.6-25.6V76.8C512,48.6,489.1,25.6,460.8,25.6z M460.8,76.8V128H51.2V76.8H460.8
		z M435.2,435.2H76.8v-256h358.4V435.2z"/>
	<path d="M179.2,204.8h153.6v76.8H179.2V204.8z"/>
</g>
</svg>
