<?xml version="1.0" encoding="utf-8"?>
<!-- Generator: Adobe Illustrator 21.0.0, SVG Export Plug-In . SVG Version: 6.00 Build 0)  -->
<svg version="1.1" id="Layer_1" xmlns="http://www.w3.org/2000/svg" xmlns:xlink="http://www.w3.org/1999/xlink" x="0px" y="0px"
	 viewBox="0 0 512 512" style="enable-background:new 0 0 512 512;" xml:space="preserve">
<path d="M256,512c141.4,0,256-114.6,256-256S397.4,0,256,0S0,114.6,0,256S114.6,512,256,512z M147.6,216H265v-77.4
	c0-23.4,13.5-29.1,30.2-12.5l99.7,99.7c16.6,16.6,16.6,43.8,0,60.3l-99.7,99.7c-16.6,16.6-30.2,10.9-30.2-12.5v-77.4H147.6
	c-23.4,0-42.7-18-42.7-40C104.9,234,124,216,147.6,216z"/>
</svg>
