<?xml version="1.0" encoding="utf-8"?>
<!-- Generator: Adobe Illustrator 21.1.0, SVG Export Plug-In . SVG Version: 6.00 Build 0)  -->
<svg version="1.1" id="Layer_1" xmlns="http://www.w3.org/2000/svg" xmlns:xlink="http://www.w3.org/1999/xlink" x="0px" y="0px"
	 viewBox="0 0 512 512" style="enable-background:new 0 0 512 512;" xml:space="preserve">
<title>mark</title>
<desc>Created with Sketch.</desc>
<g id="Page-1_1_">
	<g id="mark">
		<g id="Group" transform="translate(16.000000, 16.000000)">
			<path id="Page-1" d="M367.7-15.5c-34.1,0-66.5,13.3-91.4,37.4L21.9,276.2c-24.1,24.1-37.4,56.5-37.4,91.4
				c0,34.1,13.3,66.5,37.4,91.4c24.1,24.1,56.5,37.4,91.4,37.4c34.1,0,66.5-13.3,91.4-37.4L376.8,287c28.3-30.8,27.4-79-2.5-109.7
				c-15-15-34.9-23.3-55.7-23.3c-20.8,0-40.7,8.3-55.7,23.3L121.6,318.6c-11.6,11.6-11.6,29.9,0,41.6c11.6,11.6,29.9,11.6,41.6,0
				l141.3-141.3c7.5-7.5,21.6-7.5,29.1,0c4.2,4.2,5.8,9.1,5.8,15c0,5.8-2.5,10.8-5.8,15L163.2,417.5c-13.3,13.3-30.8,20.8-49.9,20.8
				c-19.1,0-36.6-7.5-49.9-20.8c-13.3-13.3-20.8-30.8-20.8-49.9s7.5-36.6,20.8-49.9L317.8,63.5c13.3-13.3,30.8-20.8,49.9-20.8
				c19.1,0,36.6,7.5,49.9,20.8s20.8,30.8,20.8,49.9s-7.5,36.6-20.8,49.9c-11.6,11.6-11.6,29.9,0,41.6c11.6,11.6,29.9,11.6,41.6,0
				c24.1-24.1,37.4-56.5,37.4-91.4c0-34.1-13.3-66.5-37.4-91.4C434.2-2.2,401.7-15.5,367.7-15.5"/>
		</g>
	</g>
</g>
</svg>
