<?xml version="1.0" encoding="utf-8"?>
<!-- Generator: Adobe Illustrator 21.1.0, SVG Export Plug-In . SVG Version: 6.00 Build 0)  -->
<svg version="1.1" id="Layer_1" xmlns="http://www.w3.org/2000/svg" xmlns:xlink="http://www.w3.org/1999/xlink" x="0px" y="0px"
	 viewBox="0 0 512 512" style="enable-background:new 0 0 512 512;" xml:space="preserve">
<g>
	<path d="M465.5,405.5L345.1,259.2V111.3h22.3c12.3,0,22.3-10,22.3-22.3V22.3c0-12.3-10-22.3-22.3-22.3H144.7
		c-12.3,0-22.3,10-22.3,22.3V89c0,12.3,10,22.3,22.3,22.3H167v147.9L45.5,407c-14.3,20.5-16.1,46.9-4.5,69.1
		c11.5,22.2,34.2,35.9,59.2,35.9h311.7c25,0,47.7-13.8,59.2-35.9C482.6,453.9,480.9,427.4,465.5,405.5z M167,44.5h178.1v22.3H167
		V44.5z M206.4,281.3c3.3-4,5.1-9,5.1-14.2V111.3h89v22.3H256v44.5h44.5v22.3h-66.8v44.5h66.8v22.3c0,5.2,1.8,10.2,5.1,14.2
		l43.3,52.6H163.1L206.4,281.3L206.4,281.3z M431.6,455.5c-3.9,7.4-11.4,12-19.7,12H100.2c-8.3,0-15.9-4.6-19.7-12
		c-3.9-7.4-3.3-16.2,0.4-21.7l45.6-55.4h259.1l44.5,54C434.9,439.3,435.5,448.1,431.6,455.5L431.6,455.5z"/>
</g>
</svg>
