<?xml version="1.0" encoding="utf-8"?>
<!-- Generator: Adobe Illustrator 21.1.0, SVG Export Plug-In . SVG Version: 6.00 Build 0)  -->
<svg version="1.1" id="Layer_1" xmlns="http://www.w3.org/2000/svg" xmlns:xlink="http://www.w3.org/1999/xlink" x="0px" y="0px"
	 viewBox="0 0 512 512" style="enable-background:new 0 0 512 512;" xml:space="preserve">
<g>
	<path d="M158,455.1c19.7,33.8,56,56.9,98,56.9s78.3-23,98-56.9H158z"/>
	<path d="M512,426.7H0v-77.4l19.5-6.5c39.4-13.2,65.9-49.9,65.9-91.4v-80.7C85.3,76.5,161.9,0,256,0s170.7,76.5,170.7,170.7v80.7
		c0,41.5,26.5,78.3,65.9,91.4l19.5,6.5V426.7z M86.3,369.8h339.4c-34.7-28.5-55.9-71.5-55.9-118.4v-80.7
		c0-62.7-51-113.8-113.8-113.8s-113.8,51-113.8,113.8v80.7C142.2,298.3,121,341.3,86.3,369.8z"/>
</g>
</svg>
