<?xml version="1.0" encoding="utf-8"?>
<!-- Generator: Adobe Illustrator 21.1.0, SVG Export Plug-In . SVG Version: 6.00 Build 0)  -->
<svg version="1.1" id="Layer_1" xmlns="http://www.w3.org/2000/svg" xmlns:xlink="http://www.w3.org/1999/xlink" x="0px" y="0px"
	 viewBox="0 0 512 512" style="enable-background:new 0 0 512 512;" xml:space="preserve">
<g>
	<path d="M185.9,373.8v37.3c0,31.8,0.6,78,6.9,100.9h-51.5c-7.5-17.9-9.4-55.7-9.4-94.7V160.5c0-76.8,23.2-110.9,47-130.9
		C200.2,11.7,227.9,0,268,0c62,0,109.7,39,109.7,97c0,42.3-27,74.1-55.8,87v2.3c47.7,8.9,92.8,44.6,92.8,106.4
		c0,74.7-64,115.3-131,115.3c-42,0-73.3-12.3-96.5-34h-1.3V373.8z M185.2,325.3c14.5,20.6,45.1,44.6,88.3,44.6
		c50.2,0,85.8-32.9,85.8-77.4c0-53.5-42.6-80.8-97.8-82.4c-5.7-0.6-11.3,0-17,0v-33.5c3.8,0,6.9-0.6,10.7-1.1
		c47.7-2.7,71.5-35.6,71.5-71.3c0-39.6-27-65.2-64-65.2c-50.8,0-77.7,39-77.7,115.9v170.4H185.2z"/>
</g>
</svg>
