<?xml version="1.0" encoding="utf-8"?>
<!-- Generator: Adobe Illustrator 21.1.0, SVG Export Plug-In . SVG Version: 6.00 Build 0)  -->
<svg version="1.1" id="Layer_1" xmlns="http://www.w3.org/2000/svg" xmlns:xlink="http://www.w3.org/1999/xlink" x="0px" y="0px"
	 viewBox="0 0 512 512" style="enable-background:new 0 0 512 512;" xml:space="preserve">
<path d="M0,287.6c0,49.7,40.5,90.2,90.2,90.2c46.6,0,85.6-34.9,90.2-81.5c3.6,0,6.7,0,10.3,0l0,0c2.6,8.7,7.2,15.9,14.9,21
	c-3.1,6.2-6.2,12.3-9.2,18.5c-4.6,0-9.7,0-14.4,0c0,3.6,0,7.7,0,11.8c3.1,0,6.7,0,9.7,0c1.5,2.1,4.1,3.1,6.7,3.1s5.1-1,6.7-3.1
	c4.1,0,8.2,0,12.8,0c0-4.1,0-8.2,0-12.3c-3.6,0-7.7,0-11.8,0c2.6-4.6,5.1-9.2,7.7-14.4c5.1,1.5,6.2,2.1,11.8,2.1
	c20,0,36.4-16.4,36.4-36.4c0-3.6-0.5-7.2-1.5-10.8c0,0,0,0,0-0.5c34.3-23.6,68.7-47.2,103-70.7c1,3.1,2.1,6.2,3.1,9.7
	c0,0,0,0.5-0.5,0.5c-22.6,17.4-34.9,43.1-34.9,71.8c0,49.7,40.5,90.2,90.2,90.2s90.7-40.5,90.7-90.2c0-50.2-40.5-90.7-90.7-90.7
	c-14.4,0-19.5,1-32.8,6.2c0,0-0.5,0-0.5,0.5c-7.7-25.6-15.4-51.3-23.1-76.9l0,0v-0.5c0-1.5,0.5-2.1,1.5-3.1c0,0,0,0,0.5,0
	c9.2-3.6,14.9-12.8,14.9-22.6c1-11.8-9.7-23.1-23.1-23.1c-3.1,0-6.2,0-9.2,0c-10.8,0-22,0-33.3,0c0,8.2,0,15.9,0,24.1
	c9.7,0,20,0,30.2,0c2.1,0,3.6,0,6.2,0c1.5,0,3.1,1.5,3.1,3.1c0,1-0.5,2.1-1.5,2.6c0,0,0,0-0.5,0.5c-7.7,4.1-12.8,9.7-12.8,17.9
	c0,3.6,0.5,5.1,1.5,8.7c0.5,2.1,3.6,12.3,3.6,12.3c-54.8,0-109.7,0-164.5,0c-3.1-7.7-6.7-15.9-9.7-23.6c12.3-3.1,25.1-6.2,37.4-9.7
	c2.6-1,4.6-3.1,4.6-5.6c0-3.1-3.1-6.2-6.2-6.2c-28.2,0-56.4,0-84.6,0l0,0c0,13.3,10.8,24.1,24.1,24.1c2.6,6.7,5.6,13.8,8.2,21
	C145,165.1,134.8,184,124,203.5l0,0c-10.8-4.1-22.6-6.7-33.8-6.7C40.5,196.8,0,237.8,0,287.6z M375.2,245L375.2,245
	c1.5,5.1,3.1,10.3,5.1,15.9c5.1,16.9,22.6,31.3,40,35.9c0.5,0,1.5,0,1.5,0c5.1,0,9.2-4.1,9.2-9.2c0-3.1-1.5-5.6-4.1-7.7
	c-0.5,0-0.5-0.5-1.5-1c-10.3-7.2-19-14.9-22.6-25.1c-2.6-8.2-5.1-15.9-7.7-24.1c0,0,0,0,0.5,0c7.7-3.6,16.4-5.1,25.6-5.1
	c34.9,0,63.6,28.2,63.6,63.6c0,34.9-28.2,63-63.6,63c-34.3-0.5-62.5-28.7-62.5-63.6C358.8,271.2,364.9,256.3,375.2,245z
	 M153.2,278.3L153.2,278.3c-14.4,0.5-29.2,0.5-44.1,0.5c7.2-13.3,14.4-26.7,21.5-40.5c0,0,0,0,0,0.5
	C143.5,249.1,150.7,261.9,153.2,278.3z M248.6,259.4c-1-0.5-1.5-1-2.6-1.5c3.1-6.2,6.2-12.3,9.2-17.9c4.6,0,9.7,0,14.9,0
	c0-4.1,0-8.2,0-12.3c-3.1,0-6.7,0-9.7,0l0,0c-1.5-2.1-4.1-3.1-6.7-3.1c-2.6,0-5.1,1-6.7,3.1l0,0c-4.1,0-8.2,0-12.8,0
	c0,4.1,0,8.2,0,12.3c3.6,0,7.7,0,11.3,0c-2.6,4.6-4.6,9.2-7.2,13.8c0,0-0.5,0-1,0c-3.6-1-7.7-1.5-11.3-1.5c-0.5,0-1,0-1.5,0
	c0,0,0,0-0.5,0c-11.3-28.2-22.6-56.4-34.3-84.6c54.3,0,108.1,0,163,0c1.5,5.6,3.1,11.3,5.1,17.4C321.3,209.1,285,234.3,248.6,259.4z
	 M201.9,287.6c0-13.3,10.8-24.1,24.1-24.1c13.3,0,24.1,10.8,24.1,24.1c0,13.3-10.8,24.1-24.1,24.1
	C213.2,311.6,201.9,300.9,201.9,287.6z M143.5,214.3L143.5,214.3c7.2-14.4,14.9-28.7,22.6-43.1c12.3,29.7,24.1,60,35.9,89.2
	l-0.5,0.5c-5.1,5.1-8.7,10.8-10.8,17.4c-3.6,0-7.2,0-10.8,0l0,0C177.8,252.2,165,229.6,143.5,214.3z M27.2,287.6
	c0-34.9,28.7-63.6,63.6-63.6c7.2,0,14.9,1.5,21,3.6C102,246,92.3,264.5,82,283.5c-0.5,1-0.5,2.6-0.5,3.6c0,4.6,4.1,9.2,9.2,9.2
	c21,0,41.5,0,62.5,0c0,0,0,0,0,0.5c-4.6,31.3-31.3,53.8-62.5,53.8C55.4,350.6,27.2,322.4,27.2,287.6z"/>
</svg>
