<?xml version="1.0" encoding="utf-8"?>
<!-- Generator: Adobe Illustrator 21.1.0, SVG Export Plug-In . SVG Version: 6.00 Build 0)  -->
<svg version="1.1" id="Layer_1" xmlns="http://www.w3.org/2000/svg" xmlns:xlink="http://www.w3.org/1999/xlink" x="0px" y="0px"
	 viewBox="0 0 512 512" style="enable-background:new 0 0 512 512;" xml:space="preserve">
<g id="Account-Settings">
	<g id="Account-Setting-General-Copy" transform="translate(-915.000000, -275.000000)">
		<g id="Group-5">
			<g id="Group-8" transform="translate(915.000000, 275.000000)">
				<path id="Combined-Shape" d="M512,145.1V87.5c0-12.8-6.2-19.2-18.7-19.2c-18.7,0-456.4,0-474.9,0C6.2,68.3,0,74.7,0,87.7v57.4
					h25.6V93.9h460.8v51.2H512z"/>
				<path id="Combined-Shape_1_" d="M512,256v171.7c0,10.7-5.4,16.1-16.2,16.1c-16.2,0-460.1,0-478,0C5.9,443.7,0,438.4,0,427.6V256
					h25.6v162.1h460.8V256H512z"/>
				<rect id="Rectangle-42" x="0" y="162.1" width="512" height="76.8"/>
				<path id="Rectangle-44" d="M59.7,273.1h307.2c4.7,0,8.5,3.8,8.5,8.5l0,0c0,4.7-3.8,8.5-8.5,8.5H59.7c-4.7,0-8.5-3.8-8.5-8.5l0,0
					C51.2,276.9,55,273.1,59.7,273.1z"/>
				<path id="Rectangle-44_1_" d="M59.7,324.3h128c4.7,0,8.5,3.8,8.5,8.5l0,0c0,4.7-3.8,8.5-8.5,8.5h-128c-4.7,0-8.5-3.8-8.5-8.5
					l0,0C51.2,328.1,55,324.3,59.7,324.3z"/>
			</g>
		</g>
	</g>
</g>
</svg>
