<?xml version="1.0" encoding="utf-8"?>
<!-- Generator: Adobe Illustrator 21.1.0, SVG Export Plug-In . SVG Version: 6.00 Build 0)  -->
<svg version="1.1" id="Layer_1" xmlns="http://www.w3.org/2000/svg" xmlns:xlink="http://www.w3.org/1999/xlink" x="0px" y="0px"
	 viewBox="0 0 512 512" style="enable-background:new 0 0 512 512;" xml:space="preserve">
<g id="Account-Settings">
	<g id="Currency" transform="translate(-1228.000000, -576.000000)">
		<path id="B" d="M1273.8,1082.8c-2.4-3.5-3.6-7.6-3.6-12.5c0.5-8,2.1-12.9,4.8-14.5c2.7-1.6,7.8-2.4,15.3-2.4
			c15.5,0,27.1-2.8,34.6-8.4c7.5-5.6,12.2-12.6,14.1-20.9c1.9-8.3,3.1-19.2,3.6-32.6V672.5c-0.5-13.4-1.7-24.2-3.6-32.6
			c-1.9-8.3-6.6-15.3-14.1-20.9c-7.5-5.6-19-8.4-34.6-8.4h-4.8c-5.4,0-9.1-0.9-11.3-2.8c-2.1-1.9-3.5-6.6-4-14.1
			c0-4.8,1.2-9,3.6-12.5c2.4-3.5,6-5.2,10.8-5.2c34.8,1.6,66.4,2.4,94.8,2.4h113.3c29.5,0,53.3,2.1,71.5,6.4
			c18.2,4.3,34.6,11,49,20.1c13.9,9.1,24.9,21.6,33,37.4c8,15.8,12.1,33.1,12.1,51.8c0,33.2-10.8,59.6-32.6,79.2
			c-21.7,19.6-47,32.8-76,39.8v2.4c27.9,0,53.2,5.5,76,16.5c22.8,11,40.5,25.7,53.1,44.2c12.6,18.5,18.9,38.4,18.9,59.9
			c0,36.4-11.1,65.9-33.4,88.4c-22.2,22.5-50.1,38.4-83.6,47.8s-68.2,14.1-104.1,14.1l-96.4-0.8c-28.9,0-60.8,0.8-95.7,2.4
			C1279.8,1088,1276.2,1086.3,1273.8,1082.8z M1455.9,799.4c21.4,0,40.1-1.6,55.9-4.8c15.8-3.2,29.9-11.8,42.2-25.7
			c12.3-13.9,18.5-35.6,18.5-65.1c0-63.8-31.3-95.6-94-95.6h-56.3v191.3H1455.9z M1575.2,1024.9c23.8-19,35.8-50.2,35.8-93.6
			c-2.7-28.9-16.2-52.8-40.6-71.5c-24.4-18.8-62.8-28.1-115.3-28.1h-33v159.9c0,18.2,1.7,31.7,5.2,40.6c3.5,8.8,9.1,14.7,16.9,17.7
			c7.8,2.9,19.7,4.4,35.8,4.4C1519.6,1053.7,1551.4,1043.9,1575.2,1024.9z"/>
	</g>
</g>
</svg>
