<?xml version="1.0" encoding="utf-8"?>
<!-- Generator: Adobe Illustrator 21.0.0, SVG Export Plug-In . SVG Version: 6.00 Build 0)  -->
<svg version="1.1" id="Layer_1" xmlns="http://www.w3.org/2000/svg" xmlns:xlink="http://www.w3.org/1999/xlink" x="0px" y="0px"
	 viewBox="0 0 512 512" style="enable-background:new 0 0 512 512;" xml:space="preserve">
<g>
	<polygon points="389.2,345.9 389.2,53.9 122.7,53.9 122.7,345.9 256,447.5 	"/>
	<path d="M480.6,0c-6.3,0-11.7,3-15.4,7.5H46.5C42.9,3,37.4,0,31.2,0C20.5,0,11.6,8.9,11.6,19.7s8.9,19.7,19.7,19.7
		c6.1,0,11.6-2.8,15.2-7.3h27.6v344L256,512l181.8-136v-344h27.6c3.6,4.4,9,7.3,15.2,7.3c10.9,0,19.7-8.9,19.7-19.7S491.5,0,480.6,0
		z M413.2,358.3L256,480L98.6,358.3V32.1h314.6V358.3z"/>
</g>
</svg>
