<?xml version="1.0" encoding="utf-8"?>
<!-- Generator: Adobe Illustrator 21.1.0, SVG Export Plug-In . SVG Version: 6.00 Build 0)  -->
<svg version="1.1" id="Layer_1" xmlns="http://www.w3.org/2000/svg" xmlns:xlink="http://www.w3.org/1999/xlink" x="0px" y="0px"
	 viewBox="0 0 512 512" style="enable-background:new 0 0 512 512;" xml:space="preserve">
<g>
	<path d="M486.4,102.4h-128V25.6C358.4,11.5,347,0,332.8,0H179.2c-14.1,0-25.6,11.5-25.6,25.6v76.8h-128C11.5,102.4,0,113.9,0,128
		v128c0,14.1,11.5,25.6,25.6,25.6v179.2c0,28.2,23,51.2,51.2,51.2h358.4c28.3,0,51.2-23,51.2-51.2V281.6c14.2,0,25.6-11.5,25.6-25.6
		V128C512,113.9,500.6,102.4,486.4,102.4z M204.8,51.2h102.4v51.2H204.8V51.2z M51.2,153.6h409.6v76.8h-128v-25.6
		c0-14.1-11.4-25.6-25.6-25.6H204.8c-14.1,0-25.6,11.5-25.6,25.6v25.6h-128V153.6z M281.6,230.4v51.2h-51.2v-51.2H281.6z
		 M435.2,460.8H76.8V281.6h102.4v25.6c0,14.1,11.5,25.6,25.6,25.6h102.4c14.2,0,25.6-11.5,25.6-25.6v-25.6h102.4V460.8z"/>
</g>
</svg>
