<?xml version="1.0" encoding="utf-8"?>
<!-- Generator: Adobe Illustrator 21.1.0, SVG Export Plug-In . SVG Version: 6.00 Build 0)  -->
<svg version="1.1" id="Layer_1" xmlns="http://www.w3.org/2000/svg" xmlns:xlink="http://www.w3.org/1999/xlink" x="0px" y="0px"
	 viewBox="0 0 512 512" style="enable-background:new 0 0 512 512;" xml:space="preserve">
<g id="Account-Settings">
	<g id="Account-Setting-General-Copy" transform="translate(-730.000000, -270.000000)">
		<g id="Group-5">
			<g id="Group-7" transform="translate(730.000000, 270.000000)">
				<path id="Combined-Shape" d="M473,52.2l1.6-33.7c0-12.4-6.3-18.6-18.8-18.6C437,0,74.3,0,56,0C43.8,0,37.7,6.6,37.7,19.8
					l1.6,32.4H473z"/>
				<path id="Combined-Shape_1_" d="M26.2,52.2c20.1,0,439.1,0,459.3,0c13.5,0,20.3,7.9,20.3,23.7l-19,417.1c0,12.6-7.3,19-22,19
					c-22,0-393.5,0-416.5,0c-15.3,0-23-6.2-23-18.6L6.2,70.5C6.2,58.3,12.9,52.2,26.2,52.2z M36.7,83.6l20.9,397.1h397.1l20.9-397.1
					H36.7z"/>
				<path id="Combined-Shape_2_" d="M120.3,156.7c0,75,60.8,135.8,135.8,135.8S392,231.8,392,156.7h-31.3
					c0,57.7-46.8,104.5-104.5,104.5s-104.5-46.8-104.5-104.5H120.3z"/>
				<circle id="Oval-11" cx="130.7" cy="172.4" r="31.3"/>
				<circle id="Oval-11_1_" cx="381.5" cy="172.4" r="31.3"/>
			</g>
		</g>
	</g>
</g>
</svg>
