<?xml version="1.0" encoding="UTF-8"?>
<svg width="512px" height="512px" viewBox="0 0 512 512" version="1.1" xmlns="http://www.w3.org/2000/svg" xmlns:xlink="http://www.w3.org/1999/xlink">
    <!-- Generator: Sketch 52.3 (67297) - http://www.bohemiancoding.com/sketch -->
    <title>Chat setting icon (unselected) - 512by512</title>
    <desc>Created with Sketch.</desc>
    <g id="Chat-setting-icon-(unselected)---512by512" stroke="none" stroke-width="1" fill="none" fill-rule="evenodd">
        <g id="chat-Widget-settings-(Unselected)">
            <g id="chat-Widget-settings-icon">
                <g id="Frame_-_24px" transform="translate(177.666667, 225.000000)">
                    <rect id="Rectangle-path" x="0" y="0" width="16" height="16"></rect>
                </g>
                <path d="M319.986667,298.654223 L362.651556,298.654223 L362.651556,383.984001 C362.651556,407.513687 343.516353,426.64889 319.986667,426.64889 L177.76326,426.64889 L63.9973334,511.978668 L63.9973334,426.64889 L42.664889,426.64889 C19.1352027,426.64889 -2.4158453e-12,407.513687 -2.4158453e-12,383.984001 L-2.4158453e-12,191.992 C-2.4158453e-12,168.440982 19.1352027,149.327111 42.664889,149.327111 L213.324445,149.327111 L213.324445,191.992 L42.664889,191.992 L42.664889,383.984001 L106.662222,383.984001 L106.662222,426.64889 L163.555852,383.984001 L319.986667,383.984001 L319.986667,298.654223 Z M512,149.327111 L488.491646,149.327111 C485.718428,162.915879 480.299988,175.523353 472.854964,186.701554 L489.579601,203.383526 L459.436857,233.568935 L442.71222,216.865631 C431.534019,224.267989 418.905212,229.707762 405.316445,232.48098 L405.316445,256.010666 L362.651556,256.010666 L362.651556,232.48098 C349.062789,229.750427 336.455314,224.310654 325.255781,216.886963 L308.552477,233.6116 L278.367068,203.468855 L295.091705,186.744219 C287.668014,175.544686 282.249573,162.937211 279.476355,149.327111 L255.968001,149.327111 L255.968001,106.662222 L279.476355,106.662222 C282.249573,93.0734553 287.668014,80.4446481 295.091705,69.2664472 L278.3884,52.5631432 L308.552477,22.3990667 L325.277113,39.1023707 C336.455314,31.7000125 349.084121,26.2602392 362.672889,23.5083538 L362.672889,5.68434189e-14 L405.337778,5.68434189e-14 L405.337778,23.5083538 C418.905212,26.2389067 431.512687,31.6786801 442.690888,39.0810383 L459.415524,22.3564018 L489.579601,52.5204783 L472.854964,69.2451148 C480.278655,80.4446481 485.718428,93.0521228 488.491646,106.662222 L512,106.662222 L512,149.327111 Z M383.962668,170.659556 C407.513687,170.659556 426.627557,151.545686 426.627557,127.994667 C426.627557,104.443648 407.513687,85.3297779 383.962668,85.3297779 C360.390317,85.3297779 341.297779,104.443648 341.297779,127.994667 C341.297779,151.545686 360.390317,170.659556 383.962668,170.659556 Z" id="Combined-Shape" fill="#668C98" fill-rule="nonzero"></path>
            </g>
        </g>
    </g>
</svg>