<?xml version="1.0" encoding="UTF-8"?>
<svg width="512px" height="512px" viewBox="0 0 512 512" version="1.1" xmlns="http://www.w3.org/2000/svg" xmlns:xlink="http://www.w3.org/1999/xlink">
	<!-- Generator: Sketch 52.3 (67297) - http://www.bohemiancoding.com/sketch -->
	<title>chat-bubble-circle-3</title>
	<desc>Created with Sketch.</desc>
	<g id="chat-bubble-circle-3" stroke="none" stroke-width="1" fill="none" fill-rule="evenodd">
		<path d="M268.179097,475.833742 L24.3825742,475.833742 C14.6794726,475.833742 5.90279774,470.080144 2.05081267,461.20595 C-1.8499317,452.307377 -0.0945967291,441.970404 6.5366687,434.875926 L62.7317673,374.316869 C37.5963457,339.112651 24.4069538,298.715568 24.4069538,256.416871 C24.4069538,135.420656 133.774074,37 268.203477,37 C402.63288,37 512,135.420656 512,256.416871 C512,377.413085 402.6085,475.833742 268.179097,475.833742 Z M80.2851169,427.074437 L268.179097,427.074437 C375.717744,427.074437 463.216316,350.522329 463.216316,256.416871 C463.216316,162.335793 375.717744,85.7593046 268.179097,85.7593046 C160.640451,85.7593046 73.1418788,162.335793 73.1418788,256.416871 C73.1418788,293.888396 86.9895213,329.555828 113.173268,359.591559 C121.364831,369.002105 121.145414,383.069165 112.661295,392.211534 L80.2851169,427.074437 Z M170.660488,280.796523 C157.195978,280.796523 146.280836,269.881381 146.280836,256.416871 C146.280836,242.952361 157.195978,232.037218 170.660488,232.037218 C184.124998,232.037218 195.04014,242.952361 195.04014,256.416871 C195.04014,269.881381 184.124998,280.796523 170.660488,280.796523 Z M268.179097,280.796523 C254.714587,280.796523 243.799445,269.881381 243.799445,256.416871 C243.799445,242.952361 254.714587,232.037218 268.179097,232.037218 C281.643607,232.037218 292.55875,242.952361 292.55875,256.416871 C292.55875,269.881381 281.643607,280.796523 268.179097,280.796523 Z M365.697706,280.796523 C352.233196,280.796523 341.318054,269.881381 341.318054,256.416871 C341.318054,242.952361 352.233196,232.037218 365.697706,232.037218 C379.162217,232.037218 390.077359,242.952361 390.077359,256.416871 C390.077359,269.881381 379.162217,280.796523 365.697706,280.796523 Z" fill="#000000" fill-rule="nonzero"></path>
	</g>
</svg>