<?xml version="1.0" encoding="utf-8"?>
<!-- Generator: Adobe Illustrator 22.1.0, SVG Export Plug-In . SVG Version: 6.00 Build 0)  -->
<svg version="1.1" id="Layer_1" xmlns="http://www.w3.org/2000/svg" xmlns:xlink="http://www.w3.org/1999/xlink" x="0px" y="0px"
	 viewBox="0 0 512 512" style="enable-background:new 0 0 512 512;" xml:space="preserve">
<g>
	<path id="Combined-Shape" d="M155.1,400.4l41-70.9h256c15,0,27.2-12.2,27.2-27.2V106.2c0-15-12.2-27.2-27.2-27.2H59.9
		c-15,0-27.2,12.2-27.2,27.2v196.1c0,15,12.2,27.2,27.2,27.2h54.1L155.1,400.4z M155.1,465.7L95.2,362.2H59.9
		C26.8,362.2,0,335.4,0,302.3V106.2c0-33.1,26.8-59.9,59.9-59.9h392.2c33.1,0,59.9,26.8,59.9,59.9v196.1c0,33.1-26.8,59.9-59.9,59.9
		H215L155.1,465.7z"/>
	<circle id="Oval" cx="124.7" cy="204.3" r="32.7"/>
	<circle id="Oval-Copy" cx="250.8" cy="204.3" r="32.7"/>
	<circle id="Oval-Copy-2" cx="377" cy="204.3" r="32.7"/>
</g>
</svg>
