<?xml version="1.0" encoding="utf-8"?>
<!-- Generator: Adobe Illustrator 21.1.0, SVG Export Plug-In . SVG Version: 6.00 Build 0)  -->
<svg version="1.1" id="Layer_1" xmlns="http://www.w3.org/2000/svg" xmlns:xlink="http://www.w3.org/1999/xlink" x="0px" y="0px"
	 viewBox="0 0 512 512" style="enable-background:new 0 0 512 512;" xml:space="preserve">
<style type="text/css">
	.st0{fill:#0B0B0B;}
</style>
<path class="st0" d="M177.8,468.9c-11-0.4-21.4-5.2-28.4-13.9C69.1,356.7,53.5,341,11.1,299.1c-14.9-14.9-14.9-38.4,0-53.3
	c14.9-14.9,38.8-14.9,53.3,0c38.8,37.9,58.1,57.6,109.9,120.5c41.9-63.7,131.3-185,275-313.5c15.7-13.9,39.4-12.7,53.3,3
	c13.8,15.7,12.1,39.4-3.1,53.3C304.6,283.3,212.8,447.5,211.9,449.2c-6.2,11-17,18.4-29.7,19.2C180.9,468.9,179.6,468.9,177.8,468.9
	z"/>
</svg>
