<?xml version="1.0" encoding="utf-8"?>
<!-- Generator: Adobe Illustrator 21.1.0, SVG Export Plug-In . SVG Version: 6.00 Build 0)  -->
<svg version="1.1" id="Layer_1" xmlns="http://www.w3.org/2000/svg" xmlns:xlink="http://www.w3.org/1999/xlink" x="0px" y="0px"
	 viewBox="0 0 512 512" style="enable-background:new 0 0 512 512;" xml:space="preserve">
<g id="Account-Settings">
	<g id="Account-Setting-General-Copy" transform="translate(-18.000000, -300.000000)">
		<g id="Group-3" transform="translate(18.000000, 300.000000)">
			<path id="Shape" d="M181,358.9c0-43.2,7-100.8,70.4-100.8c62.1,0,75.8,49.7,70.4,100.8H181z"/>
			<circle id="Oval" cx="251.4" cy="187.7" r="46.9"/>
			<path id="Shape_1_" d="M398.7,0.3L69.5,0C49.3,0,38.2,9.8,38.2,30.8v105.8H22.2c-12.1-0.3-18.1,4.9-18.1,15.4
				c0,10.5,6,15.6,18.1,15.2l15.9-1v162.3H19.1c-10,0.3-15,4.8-15,13.6s5,13.1,15,12.9h19.1v127.5c0,19.8,10.7,29.5,31.3,29.5h346.3
				c17.9,0,28.4-11.8,28.4-29.5v-87.7l-21.7,0.3V47.3C422.5,21.4,424.6,0.3,398.7,0.3z M81.5,469.8v-114H105v-13.6v-13.6H81.5V167.2
				H105v-30.7H81.5V43.2h319.2l0,336.9l0,89.6H81.5z"/>
			<path id="Rectangle-86" d="M400.7,0l79.9,0C498.9,0,508,9.5,508,28.4c0,28.4,0,346,0,370.4c0,16.3-9.1,24.4-27.3,24.4h-62.8
				v-43.5h46.8V42.7h-63.9V0z"/>
			<rect id="Rectangle-3" x="422.1" y="149.3" width="64" height="21.3"/>
			<rect id="Rectangle-3-Copy" x="422.1" y="256" width="64" height="21.3"/>
		</g>
	</g>
</g>
</svg>
