<?xml version="1.0" encoding="utf-8"?>
<!-- Generator: Adobe Illustrator 21.1.0, SVG Export Plug-In . SVG Version: 6.00 Build 0)  -->
<svg version="1.1" id="Layer_1" xmlns="http://www.w3.org/2000/svg" xmlns:xlink="http://www.w3.org/1999/xlink" x="0px" y="0px"
	 viewBox="0 0 512 512" style="enable-background:new 0 0 512 512;" xml:space="preserve">
<g>
	<path d="M43.7,43.7h218.7v87.5h87.5v65.6h43.7v-96.5L293.3,0H43.7C19.6,0,0,19.6,0,43.7v393.6c0,24.1,19.6,43.7,43.7,43.7h174.9
		v-43.7H43.7V43.7z"/>
	<path d="M87.5,196.8h174.9v43.7H87.5V196.8z"/>
	<path d="M87.5,284.3h109.3V328H87.5V284.3z"/>
	<path d="M441,410.1c11.5-17.3,18.2-37.9,18.2-60.2c0-60.3-49-109.3-109.3-109.3s-109.3,49-109.3,109.3s49,109.3,109.3,109.3
		c22.3,0,42.9-6.8,60.2-18.2l71,71l30.9-30.9L441,410.1L441,410.1z M349.9,415.5c-36.2,0-65.6-29.4-65.6-65.6s29.4-65.6,65.6-65.6
		s65.6,29.4,65.6,65.6S386,415.5,349.9,415.5z"/>
</g>
</svg>
