<?xml version="1.0" encoding="utf-8"?>
<!-- Generator: Adobe Illustrator 21.1.0, SVG Export Plug-In . SVG Version: 6.00 Build 0)  -->
<svg version="1.1" id="Layer_1" xmlns="http://www.w3.org/2000/svg" xmlns:xlink="http://www.w3.org/1999/xlink" x="0px" y="0px"
	 viewBox="0 0 512 512" style="enable-background:new 0 0 512 512;" xml:space="preserve">
<style type="text/css">
	.st0{fill:#010101;}
</style>
<g>
	<path class="st0" d="M374.3,441.2c-9.7,0-27.1,0-46.6,0c0-1.9,0-5.8,0-7.8v-38.8c19.4,0,36.8,0,46.6,0c52.3,0,93.1-40.8,93.1-93.1
		s-40.8-93.1-93.1-93.1c-13.6,0-27.1,3.9-40.8,9.7l-19.4-19.4c-21.3-48.4-69.8-83.3-128-83.3c-77.6-0.1-139.7,62-139.7,139.6
		s62,139.7,139.7,139.7v38.8c0,1.9,0,5.8,0,7.8l0,0C83.3,441.2,0,357.8,0,255S83.3,68.9,186.1,68.9c69.9,0,129.9,38.8,162.9,95.1
		c7.8-1.9,15.6-1.9,23.2-1.9c77.6,0,139.7,62,139.7,139.7C513.9,379.2,451.9,441.2,374.3,441.2z"/>
	<path class="st0" d="M176.4,321c-9.7-9.7-9.7-23.2,0-32.9l64-64c9.7-9.7,23.2-9.7,32.9,0l66,66c9.7,9.7,9.7,23.2,0,32.9
		c-9.7,9.7-23.2,9.7-32.9,0l-25.2-25.2v122.2c0,13.6-9.7,23.2-23.2,23.2c-13.6,0-23.2-9.7-23.2-23.2V297.8L209.5,323
		C199.8,330.7,184.2,330.7,176.4,321z"/>
</g>
</svg>
