<?xml version="1.0" encoding="utf-8"?>
<!-- Generator: Adobe Illustrator 21.1.0, SVG Export Plug-In . SVG Version: 6.00 Build 0)  -->
<svg version="1.1" id="Layer_1" xmlns="http://www.w3.org/2000/svg" xmlns:xlink="http://www.w3.org/1999/xlink" x="0px" y="0px"
	 viewBox="0 0 512 512" style="enable-background:new 0 0 512 512;" xml:space="preserve">
<g id="Account-Settings_1_">
	<g id="Account-Setting-General-Copy_1_" transform="translate(-20.000000, -406.000000)">
		<g id="Line_Icons" transform="translate(20.000000, 406.000000)">
			<path id="Shape_2_" d="M487.4,213.3h-65.8c-4-15.5-10.2-30-18.1-43.5l46.7-46.6l0,0c10-10,10-26.2,0-36.2l-21.7-21.8l0,0
				c-9.6-9.7-25.2-10.1-35.3-0.9l-50,45.1c-13.5-7.9-28-14.1-43.5-18.1l0-65.8l0,0c0-14.1-11.4-25.6-25.6-25.6c0,0,0,0,0,0L240,0v0
				c-14.1,0-25.6,11.5-25.6,25.6l0,65.8c-15.5,4.1-30,10.2-43.5,18.1l-46.6-46.6l0,0c-10-10-26.2-10-36.2,0c0,0,0,0,0,0L63.9,87l0,0
				c-10,10-10,26.2,0,36.2l46.5,46.6c-7.9,13.5-14.1,28-18,43.5H26.6l0,0C12.5,213.3,1,224.8,1,238.9v34.1l0,0
				c0,14.1,11.5,25.6,25.6,25.6h65.8c4,15.5,10.2,30,18.1,43.5l-46.6,46.6l0,0c-10,10-10,26.2,0,36.2l24.1,24.1l0,0
				c10,10,26.2,10,36.2,0l46.6-46.6c13.5,7.9,28,14.1,43.5,18.1v65.7l0,0c0,14.1,11.5,25.6,25.6,25.6h34.1l0,0
				c14.1,0,25.6-11.5,25.6-25.6v-65.8c15.5-4.1,30-10.2,43.5-18.1l46.6,46.6l0,0c10,10,26.2,10,36.2,0l24.1-24.1l0,0
				c10-10,10-26.2,0-36.2l-46.6-46.6c7.9-13.4,14.1-27.9,18.1-43.5h65.7l0,0c14.1,0,25.6-11.5,25.6-25.6v-34.1l0,0
				C513,224.8,501.5,213.3,487.4,213.3z M257,341.4c-47.1,0-85.4-38.3-85.4-85.4c0-47,38.2-85.4,85.4-85.4s85.4,38.3,85.4,85.4
				S304.2,341.4,257,341.4z"/>
		</g>
	</g>
</g>
</svg>
