<?xml version="1.0" encoding="utf-8"?>
<!-- Generator: Adobe Illustrator 21.1.0, SVG Export Plug-In . SVG Version: 6.00 Build 0)  -->
<svg version="1.1" id="Layer_1" xmlns="http://www.w3.org/2000/svg" xmlns:xlink="http://www.w3.org/1999/xlink" x="0px" y="0px"
	 viewBox="0 0 512 512" style="enable-background:new 0 0 512 512;" xml:space="preserve">
<g>
	<path d="M96.2,412.4H478V56.2c0-31-28-56.2-62.5-56.2H89.3C54.8,0,26.9,25.2,26.9,56.2v399.5c0,31,28,56.2,62.5,56.2h326.2
		c23.3,0,43.8-11.6,54.5-28.7H96.2c-21.7,0-39.3-15.8-39.3-35.4C56.7,428.2,74.4,412.4,96.2,412.4z M134.1,172.9h28
		c2.3-9.1,5.9-17.7,10.6-25.5L153,127.7l35.1-35.1l19.7,19.7c7.8-4.6,16.5-8.3,25.5-10.6v-28h49.6v28c9.1,2.3,17.7,5.9,25.5,10.6
		l19.7-19.7l35.1,35.1l-19.7,19.6c4.6,7.8,8.3,16.5,10.6,25.5h28v49.6h-28c-2.3,9.1-5.9,17.7-10.6,25.5l19.7,19.7l-35.1,35.1
		L308.4,283c-7.8,4.6-16.5,8.3-25.5,10.6v28h-49.6v-27.8c-9.1-2.3-17.7-5.9-25.5-10.6l-19.7,19.7L153,267.7l19.7-19.7
		c-4.6-7.8-8.3-16.5-10.6-25.5h-28L134.1,172.9L134.1,172.9z"/>
	<path d="M258.1,247.3c27.4,0,49.6-22.2,49.6-49.6s-22.2-49.6-49.6-49.6c-27.4,0-49.6,22.2-49.6,49.6S230.8,247.3,258.1,247.3z"/>
</g>
</svg>
