<?xml version="1.0" encoding="utf-8"?>
<!-- Generator: Adobe Illustrator 22.0.1, SVG Export Plug-In . SVG Version: 6.00 Build 0)  -->
<svg version="1.1" id="Layer_1" xmlns="http://www.w3.org/2000/svg" xmlns:xlink="http://www.w3.org/1999/xlink" x="0px" y="0px"
	 viewBox="0 0 512 512" style="enable-background:new 0 0 512 512;" xml:space="preserve">
<g>
	<path d="M396,298.1l-30.4-30.4l121.3-121.3c33.4-33.4,33.4-87.9,0-121.3s-87.9-33.4-121.3,0L244.3,146.4L213.9,116
		c-16.8-16.8-43.9-16.8-60.6,0l0,0c-16.8,16.8-16.8,43.9,0,60.6l30.4,30.4L32,358.7c-16.8,16.8-30.9,49.4-31.5,73.2L0,451.7
		l7.1,53.2l53.2,7.1l19.9-0.5c23.7-0.8,56.4-14.7,73.2-31.5L305,328.3l30.4,30.4c16.8,16.8,43.9,16.8,60.6,0l0,0
		C412.8,342,412.8,314.9,396,298.1z M123.1,449.8c-9,9-31.2,18.6-43.9,18.9h-1.5l-34.2-34.2V433c0.3-12.9,9.9-34.9,18.9-44.1
		l151.7-151.7l60.6,60.6L123.1,449.8z"/>
</g>
</svg>
