<?xml version="1.0" encoding="utf-8"?>
<!-- Generator: Adobe Illustrator 22.0.1, SVG Export Plug-In . SVG Version: 6.00 Build 0)  -->
<svg version="1.1" id="Layer_1" xmlns="http://www.w3.org/2000/svg" xmlns:xlink="http://www.w3.org/1999/xlink" x="0px" y="0px"
	 viewBox="0 0 512 512" style="enable-background:new 0 0 512 512;" xml:space="preserve">
<title>Color</title>
<desc>Created with Sketch.</desc>
<g id="Page-1">
	<path id="color-1" d="M255.7,0C184.6,170.7,85,213.3,85,341.3C85,435.6,161.4,512,255.7,512c94.3,0,170.7-76.4,170.7-170.7
		C426.3,213.3,326.8,170.7,255.7,0z M203.4,257.3c-18.7,26.5-33.1,49.4-33.1,84.1c0,16.7,4.9,32.9,14.1,46.9
		c4.3,6.6,2.5,15.4-4,19.7c-2.4,1.6-5.1,2.3-7.8,2.3c-4.6,0-9.2-2.2-11.9-6.4c-12.3-18.6-18.8-40.2-18.8-62.5
		c0-43,17.4-70.9,38.3-100.5c4.5-6.4,13.4-7.9,19.8-3.4C206.4,242,208,250.8,203.4,257.3z"/>
</g>
</svg>
