<?xml version="1.0" encoding="utf-8"?>
<!-- Generator: Adobe Illustrator 21.1.0, SVG Export Plug-In . SVG Version: 6.00 Build 0)  -->
<svg version="1.1" id="Layer_1" xmlns="http://www.w3.org/2000/svg" xmlns:xlink="http://www.w3.org/1999/xlink" x="0px" y="0px"
	 viewBox="0 0 512 512" style="enable-background:new 0 0 512 512;" xml:space="preserve">
<g>
	<path d="M427.1,277.4c-4,31.5-16.4,60.3-35.2,84.2l60.3,60.3c33.6-39.7,55.3-89.7,59.7-144.5H427.1L427.1,277.4z"/>
	<path d="M277.4,426.1V512c54.8-4.6,104.8-26.2,144.5-59.7l-60.4-60.5C337.6,410.1,308.8,422.3,277.4,426.1z"/>
	<path d="M151.5,390.8l-61.4,61.4c39.7,33.6,89.7,55.3,144.5,59.7v-86.2C203.5,421.7,175,409.3,151.5,390.8z"/>
	<path d="M87.2,277.4H0.1c4.6,54.8,26.2,104.8,59.7,144.5l61.6-61.6C103.3,336.8,91.1,308.3,87.2,277.4z"/>
	<path d="M121.5,151.7L59.8,90.1C26.2,129.7,4.6,179.7,0.1,234.6h87.2C91.1,203.5,103.3,175.2,121.5,151.7z"/>
	<path d="M234.7,86.2V0C179.8,4.6,129.9,26.2,90.2,59.8l61.4,61.4C175,102.7,203.5,90.3,234.7,86.2z"/>
	<path d="M439.1,185.2l-18.8-18.8l75.1-75.1c20.7-20.7,20.7-54.4,0-75.1c-20.7-20.7-54.4-20.7-75.1,0l-75.1,75.1l-18.8-18.8
		c-10.4-10.4-27.2-10.4-37.5,0l0,0c-10.4,10.4-10.4,27.2,0,37.5l18.8,18.8l-93.9,93.9c-10.4,10.4-19.1,30.6-19.5,45.3l-0.3,12.3
		l4.4,32.9l32.9,4.4l12.3-0.3c14.7-0.5,34.9-9.1,45.3-19.5l93.9-93.9l18.8,18.8c10.4,10.4,27.2,10.4,37.5,0l0,0
		C449.5,212.4,449.5,195.6,439.1,185.2z M270.2,279.1c-5.6,5.6-19.3,11.5-27.2,11.7h-0.9l-21.2-21.2v-0.9c0.2-8,6.1-21.6,11.7-27.3
		l93.9-93.9l37.5,37.5L270.2,279.1z"/>
</g>
</svg>
