<?xml version="1.0" encoding="utf-8"?>
<!-- Generator: Adobe Illustrator 21.1.0, SVG Export Plug-In . SVG Version: 6.00 Build 0)  -->
<svg version="1.1" id="Layer_1" xmlns="http://www.w3.org/2000/svg" xmlns:xlink="http://www.w3.org/1999/xlink" x="0px" y="0px"
	 viewBox="0 0 512 512" style="enable-background:new 0 0 512 512;" xml:space="preserve">
<g id="Account-Settings">
	<g id="Account-Setting-General-Copy" transform="translate(-348.000000, -271.000000)">
		<g id="Group-4" transform="translate(348.000000, 271.000000)">
			<rect id="Rectangle-path" x="176.9" y="121" width="46.5" height="46.5"/>
			<rect id="Rectangle-path_1_" x="279.3" y="121" width="46.5" height="46.5"/>
			<rect id="Rectangle-path_2_" x="176.9" y="214.1" width="46.5" height="46.5"/>
			<rect id="Rectangle-path_3_" x="279.3" y="214.1" width="46.5" height="46.5"/>
			<rect id="Rectangle-path_4_" x="83.8" y="316.5" width="46.5" height="46.5"/>
			<rect id="Rectangle-path_5_" x="176.9" y="316.5" width="46.5" height="46.5"/>
			<rect id="Rectangle-path_6_" x="279.3" y="316.5" width="46.5" height="46.5"/>
			<rect id="Rectangle-path_7_" x="381.7" y="316.5" width="46.5" height="46.5"/>
			<path id="Shape" d="M486.4,242h-76.8V77.1c0-14.2-3.7-30.6-25.6-30.6H128c-19.5,0-25.6,16.4-25.6,30.6V242H25.6
				C11.5,242,0,257.1,0,271.3V477c0,14.2,11.5,25.7,25.6,25.7h460.8c14.1,0,25.6-11.5,25.6-25.7V271.3
				C512,257.1,500.5,242,486.4,242z M484.1,474.8H307.2v-55.9H195.4v55.9H27.9V270h102.4V74.4h251.3V270h102.4V474.8z"/>
			<path id="Rectangle-7" d="M195.4,9.3h111.8c12.4,0,18.6,6.4,18.6,19.3s0,18.8,0,18H176.9c0,0.9,0-5.1,0-18S183.1,9.3,195.4,9.3z"
				/>
		</g>
	</g>
</g>
</svg>
