<?xml version="1.0" encoding="utf-8"?>
<!-- Generator: Adobe Illustrator 21.1.0, SVG Export Plug-In . SVG Version: 6.00 Build 0)  -->
<svg version="1.1" id="Layer_1" xmlns="http://www.w3.org/2000/svg" xmlns:xlink="http://www.w3.org/1999/xlink" x="0px" y="0px"
	 viewBox="0 0 512 512" style="enable-background:new 0 0 512 512;" xml:space="preserve">
<g id="Send-Festure">
	<path id="Combined-Shape" d="M219,438v-37h74v37h128v0c0.2,0,0.3,0,0.5,0c9.7,0,17.5,7.8,17.5,17.5s-7.8,17.5-17.5,17.5
		c-0.2,0-0.3,0-0.5,0v0H90v-0.1c-9-0.8-16-8.3-16-17.4s7-16.7,16-17.4V438H219z M18.5,39c11.9,0,173,0,469.8,0
		c15.8,0,23.7,8.3,23.7,25v313.4c0,15.7-7.5,23.6-22.4,23.6s-170.1,0-465.7,0c-16,0.5-24-6.7-24-21.6S0,257.7,0,58.8
		C0,45.6,6.2,39,18.5,39z M70,110v220h372V110H70z"/>
</g>
</svg>
