<?xml version="1.0" encoding="utf-8"?>
<!-- Generator: Adobe Illustrator 21.0.0, SVG Export Plug-In . SVG Version: 6.00 Build 0)  -->
<svg version="1.1" id="Layer_1" xmlns="http://www.w3.org/2000/svg" xmlns:xlink="http://www.w3.org/1999/xlink" x="0px" y="0px"
	 viewBox="0 0 512 512" style="enable-background:new 0 0 512 512;" xml:space="preserve">
<style type="text/css">
	.st0{fill:#070707;}
</style>
<title>Combined Shape</title>
<desc>Created with Sketch.</desc>
<g id="Symbols">
	<g id="Nav-_x2F_-Side-Default" transform="translate(-18.000000, -495.000000)">
		<g id="Page-1" transform="translate(18.000000, 495.000000)">
			<path id="Combined-Shape" class="st0" d="M210.7,105.6c8.1,0,14.7,6,14.7,13.5v57.1h-36.4v-57.1c0-7.5,6.6-13.5,14.7-13.5H210.7z
				 M308.2,105.6c8.1,0,14.7,6,14.7,13.5v57.1h-36.4v-57.1c0-7.5,6.6-13.5,14.7-13.5H308.2z M256,5.7c141.2,0,256,114.8,256,256
				c0,68.6-26.8,133.1-75.4,181.5l-0.8,0.7c-6,5.5-60.3,53.7-108,53.7c-25.4,0-47.5-9.6-63.8-27.8c-29.5-33-34.2-87.1-33.9-120.2
				c-41.6-3.4-74.3-38.2-74.3-80.6v-76.7h200.6V269c0,43.3-34.1,78.6-76.9,80.8c-0.2,27.7,3.7,67.5,21.4,87.2
				c7,7.7,15.5,11.3,27,11.3c22.3,0,59.5-27,74.5-40.5c39-39,60.5-90.9,60.5-146.1C462.7,147.7,370,55,256,55S49.3,147.7,49.3,261.7
				c0,55,21.4,106.8,60.2,145.8c23,23.1,51.4,40.6,82.2,50.7c12.9,4.2,20,18.1,15.8,31.1c-3.4,10.4-13.1,17-23.4,17
				c-2.5,0-5.1-0.4-7.7-1.2c-38.2-12.4-73.4-34.2-101.9-62.8C26.5,394,0,329.8,0,261.7C0,120.5,114.8,5.7,256,5.7z"/>
		</g>
	</g>
</g>
</svg>
