<?xml version="1.0" encoding="utf-8"?>
<!-- Generator: Adobe Illustrator 21.1.0, SVG Export Plug-In . SVG Version: 6.00 Build 0)  -->
<svg version="1.1" id="Layer_1" xmlns="http://www.w3.org/2000/svg" xmlns:xlink="http://www.w3.org/1999/xlink" x="0px" y="0px"
	 viewBox="0 0 512 512" style="enable-background:new 0 0 512 512;" xml:space="preserve">
<g id="Account-Settings">
	<g id="Account-Setting-General-Copy" transform="translate(-17.000000, -91.000000)">
		<g id="Group-8" transform="translate(16.000000, 91.000000)">
			<path id="Combined-Shape" d="M48.1,140.5H1.6v316.1c0,21.8,11.1,32.7,33.4,32.7c33.4,0,419.3,0,448.7,0
				c19.6,0,29.4-9.1,29.4-27.4V140.5h-46.5v302.3H48.1V140.5z"/>
			<path id="Rectangle-84" d="M164.4,257.5h23.9V280l139.1,0.4v-22.5l24.1-0.4l-0.5,24c0.4,14.5-7.3,21.7-23,21.7
				c-14.3,0-60.8,0-139.5,0c-16,0-23.9-7.6-23.9-22.7V257.5z"/>
			<path id="Rectangle-85" d="M87.7,24.6c10.3,0,20.4,0,30.1,0v46.5v46.1H95v23.4H1.4l61.5-102C69.1,29.3,77.4,24.6,87.7,24.6z"/>
			<path id="Rectangle-85-Copy-2" d="M427.3,24.2c-10.7,0-20.8,0-30.4,0v46.7h23.4v23l23.4,23.7v23h69.7L451.6,37.8
				C446.1,28.8,438,24.2,427.3,24.2z"/>
			<polygon id="Rectangle-32-Copy-2" points="39.3,93.2 71.4,93.2 71.4,149.4 71.4,163 24.9,163 			"/>
			<rect id="Rectangle-33" x="117.9" y="24.2" width="279" height="46.5"/>
			<rect id="Rectangle-87" x="117.9" y="94" width="325.5" height="23.3"/>
			<rect id="Rectangle-88" x="48.1" y="140.5" width="418.5" height="23.3"/>
		</g>
	</g>
</g>
</svg>
