<?xml version="1.0" encoding="utf-8"?>
<!-- Generator: Adobe Illustrator 21.0.0, SVG Export Plug-In . SVG Version: 6.00 Build 0)  -->
<svg version="1.1" id="Layer_1" xmlns="http://www.w3.org/2000/svg" xmlns:xlink="http://www.w3.org/1999/xlink" x="0px" y="0px"
	 viewBox="0 0 512 512" style="enable-background:new 0 0 512 512;" xml:space="preserve">
<g>
	<g>
		<g>
			<path d="M456.7,408.6l-113.8-20.7v-15.6l-88,46.6l-88-46.6v15.6L53.2,408.6c0,0-25.9,3.3-41.4,15.6L184.2,512h50.1l-3.9-28.5
				l7.5-5.8l-5.2-8.7l22.3-40l22.3,40l-5.2,8.7l7.5,5.8l-3.9,28.5h50.1L498,424C482.5,411.7,456.7,408.6,456.7,408.6z"/>
		</g>
	</g>
	<g>
		<g>
			<path d="M461.2,103.3c0,0-21.3-1.6-41.4,15.6c0,0-31,31-46.6,36.3c0,0-15.6-155.2-82.8-155.2c0,0-19.5,0-34.7,9.4
				C240.4,0,221,0,221,0c-67.3,0-82.8,155.2-82.8,155.2c-15.6-5.2-46.6-36.3-46.6-36.3c-20-17.2-41.3-15.6-41.3-15.6
				C3.7,103.3,8.9,181,8.9,181c3.5,123.2,160.4,144.8,160.4,144.8c-11-21.5-11.3-45.1-11.3-45.1l-8.7-8.7c0,0,0-14,0-14.2
				c-6.7,0-7.1-17.4-7.1-17.3c-0.9-9.7-8.9-29-9-29c-8.1-34.4,15.6-25.4,15.6-25.4v-5.2c32,18.2,92.2,20.4,105.8,20.7l0,0
				c0,0,0.5,0,1.4,0c0.9,0,1.4,0,1.4,0l0,0c13.6-0.2,73.7-2.5,105.8-20.7v5.2c0,0,23.6-9,15.6,25.4c-0.2,0-8.1,19.3-9,29
				c0-0.2-0.5,17.3-7.1,17.3c0,0.2,0,14.2,0,14.2l-8.7,8.7c0,0-0.3,23.6-11.3,45.1c0,0,156.9-21.6,160.4-144.8
				C502.7,181,507.8,103.3,461.2,103.3z"/>
		</g>
	</g>
</g>
</svg>
