<?xml version="1.0" encoding="utf-8"?>
<!-- Generator: Adobe Illustrator 18.1.1, SVG Export Plug-In . SVG Version: 6.00 Build 0)  -->
<svg version="1.1" id="Layer_1" xmlns="http://www.w3.org/2000/svg" xmlns:xlink="http://www.w3.org/1999/xlink" x="0px" y="0px"
	 viewBox="0 0 482.5 500" enable-background="new 0 0 482.5 500" xml:space="preserve">
<g>
	<g>
		<g>
			<path d="M437.4,399l-111.1-20.2v-15.2l-85.9,45.5l-85.9-45.5v15.2L43.4,399c0,0-25.3,3.2-40.4,15.2L171.3,500h48.9l-3.8-27.8
				l7.3-5.7l-5.1-8.5l21.8-39.1l21.8,39.1l-5.1,8.5l7.3,5.7l-3.8,27.8h48.9l168.2-85.9C462.6,402.1,437.4,399,437.4,399z"/>
		</g>
	</g>
	<g>
		<g>
			<path d="M441.8,101c0,0-20.8-1.6-40.4,15.2c0,0-30.3,30.3-45.5,35.4c0,0-15.2-151.5-80.8-151.5c0,0-19,0-33.9,9.2
				c-15-9.2-34-9.2-34-9.2c-65.7,0-80.8,151.5-80.8,151.5c-15.2-5.1-45.5-35.4-45.5-35.4C61.4,99.4,40.6,101,40.6,101
				c-45.5,0-40.4,75.8-40.4,75.8c3.4,120.3,156.6,141.4,156.6,141.4c-10.7-21-11-44-11-44l-8.5-8.5c0,0,0-13.7,0-13.9
				c-6.5,0-6.9-17-6.9-16.9c-0.9-9.5-8.7-28.3-8.8-28.3c-7.9-33.6,15.2-24.8,15.2-24.8v-5.1c31.2,17.8,90,19.9,103.3,20.2l0,0
				c0,0,0.5,0,1.4,0c0.9,0,1.4,0,1.4,0l0,0c13.3-0.2,72-2.4,103.3-20.2v5.1c0,0,23-8.8,15.2,24.8c-0.2,0-7.9,18.8-8.8,28.3
				c0-0.2-0.5,16.9-6.9,16.9c0,0.2,0,13.9,0,13.9l-8.5,8.5c0,0-0.3,23-11,44c0,0,153.2-21.1,156.6-141.4
				C482.3,176.8,487.3,101,441.8,101z"/>
		</g>
	</g>
</g>
</svg>
