<svg id="Layer_1" data-name="Layer 1" xmlns="http://www.w3.org/2000/svg" viewBox="0 0 512 512"><title>payment icons</title><path d="M469.33,56.89A42.47,42.47,0,0,1,512,99.56V412.44a42.47,42.47,0,0,1-42.67,42.67H42.67a41.14,41.14,0,0,1-30.23-12.44A41.18,41.18,0,0,1,0,412.44V99.56A41.18,41.18,0,0,1,12.44,69.33,41.14,41.14,0,0,1,42.67,56.89ZM48,99.56a5.14,5.14,0,0,0-3.56,1.77,5.14,5.14,0,0,0-1.77,3.56v37.33H469.33V104.89A6.24,6.24,0,0,0,464,99.56ZM464,412.44a6.24,6.24,0,0,0,5.33-5.33V256H42.67V407.11a5.14,5.14,0,0,0,1.77,3.56A5.14,5.14,0,0,0,48,412.44ZM170.67,323.56A10.62,10.62,0,0,0,160,312.89H96a10.62,10.62,0,0,0-10.67,10.67v35.55A10.62,10.62,0,0,0,96,369.78h64a10.62,10.62,0,0,0,10.67-10.67Zm170.66,0a10.62,10.62,0,0,0-10.66-10.67H209.78a10.62,10.62,0,0,0-10.67,10.67v35.55a10.62,10.62,0,0,0,10.67,10.67H330.67a10.62,10.62,0,0,0,10.66-10.67Z"/></svg>