<?xml version="1.0" encoding="utf-8"?>
<!-- Generator: Adobe Illustrator 21.1.0, SVG Export Plug-In . SVG Version: 6.00 Build 0)  -->
<svg version="1.1" id="Layer_1" xmlns="http://www.w3.org/2000/svg" xmlns:xlink="http://www.w3.org/1999/xlink" x="0px" y="0px"
	 viewBox="0 0 512 512" style="enable-background:new 0 0 512 512;" xml:space="preserve">
<style type="text/css">
	.st0{fill:#020202;}
</style>
<path class="st0" d="M276.5,237.2h-36.4v64.7h36.4c25.2,0,39.5-10.8,39.5-32.9C315.9,247.4,301.7,237.2,276.5,237.2z M425.2,113.3
	h46.7l-36.6-70.5h-14.1L398.6,0H134.7l-22.5,42.8H98.1l-36.6,70.5h46.7l9,64.7h-13.8l29,235.7h18.1l13.9,98.3h204.3l13.8-98.3h18.2
	l29-235.7H416L425.2,113.3z M89.6,95.5l17.4-35.1h145.2l11.2-17.6H132l12.5-25.2h244.3l12.6,25.1h-48.5L364,60.4h62.3l17.4,35.1
	H89.6z M354.6,494.4H178.7l-11.1-80.6h198.2L354.6,494.4z M212.4,378.9V212.5h65.2c41.1,0,64.7,20.3,64.7,55.7
	c0,36.9-23.6,58.3-64.7,58.3h-37.5v52.2L212.4,378.9L212.4,378.9z M398.3,178H135l-8.8-64.7h280.9L398.3,178z"/>
</svg>
