<?xml version="1.0" encoding="utf-8"?>
<!-- Generator: Adobe Illustrator 21.1.0, SVG Export Plug-In . SVG Version: 6.00 Build 0)  -->
<svg version="1.1" id="Layer_1" xmlns="http://www.w3.org/2000/svg" xmlns:xlink="http://www.w3.org/1999/xlink" x="0px" y="0px"
	 viewBox="0 0 512 512" style="enable-background:new 0 0 512 512;" xml:space="preserve">
<g id="Account-Settings">
	<g id="Account-Setting-General-Copy" transform="translate(-535.000000, -464.000000)">
		<g id="Group-5">
			<g id="Group-11" transform="translate(535.000000, 464.000000)">
				<path id="Combined-Shape" d="M23.7,66.9h463.4c16.6,0,24.9,8.9,24.9,26.7c0,26.7,0,301.3,0,325c0,15.8-8.3,23.7-24.9,23.7
					c-293.2,0-447.6,0-463.4,0S0,434.5,0,418.7c0-198.9,0-307.2,0-325S7.9,66.9,23.7,66.9z M25.6,92.5v324.3h460.8V92.5H25.6z"/>
				<path id="Combined-Shape_1_" d="M256,365.6c-61.3,0-110.9-49.7-110.9-110.9S194.7,143.7,256,143.7s110.9,49.7,110.9,110.9
					S317.3,365.6,256,365.6z M302.9,276.1c0-25.1-21.3-32.5-40.5-37.5v-25.9c8.3,2,16.5,5.9,22.9,12l14.6-19.2
					c-10-9.1-22.6-15-37.5-16.5v-17.6h-17.6v17.2c-24.8,2.4-39.8,18.3-39.8,37.2c0,25,20.7,32.4,39.8,37v29
					c-12.4-2.2-22.4-8.5-29.4-15.7l-14.2,20c10.2,10.2,24.2,17.6,43.6,19.2V332h17.6v-16.8C289.6,312.4,302.9,296.5,302.9,276.1z
					 M232.1,223.6c0-6.7,5-11.5,14.4-12.4v23.5C238,232.5,232.1,229.3,232.1,223.6z M260.8,292.4v-25.9c8.9,2.6,15.3,5.7,15.3,12.6
					C276.1,285.2,271.3,290.9,260.8,292.4z"/>
				<rect id="Rectangle-5" x="59.7" y="237.6" width="51.2" height="25.6"/>
				<rect id="Rectangle-5_1_" x="401.1" y="237.6" width="51.2" height="25.6"/>
			</g>
		</g>
	</g>
</g>
</svg>
