<?xml version="1.0" encoding="utf-8"?>
<!-- Generator: Adobe Illustrator 21.1.0, SVG Export Plug-In . SVG Version: 6.00 Build 0)  -->
<svg version="1.1" id="Layer_1" xmlns="http://www.w3.org/2000/svg" xmlns:xlink="http://www.w3.org/1999/xlink" x="0px" y="0px"
	 viewBox="0 0 512 512" style="enable-background:new 0 0 512 512;" xml:space="preserve">
<g id="Account-Settings">
	<g id="Change-Plan---Trial-End-Status" transform="translate(-979.000000, -1148.000000)">
		<g id="Venti" transform="translate(900.000000, 484.000000)">
			<g id="Support" transform="translate(78.000000, 587.000000)">
				<path id="Fill-1" d="M181,384.3c-9.4-15.4,14.7-29.4,24.1-14.1c15,24.6,48.3,19.3,72.4,16.1c17.8-2.4,17.5,25.5,0,27.9
					C241.7,419,201.9,418.6,181,384.3 M352.1,298.3c0,17.5-14.2,31.8-31.8,31.8c-17.6,0-31.8-14.3-31.8-31.8
					c0-17.6,14.2-31.9,31.8-31.9C337.9,266.4,352.1,280.7,352.1,298.3 M224.1,298.3c0,17.5-14.3,31.8-31.9,31.8
					c-17.5,0-31.8-14.3-31.8-31.8c0-17.6,14.3-31.9,31.8-31.9C209.8,266.4,224.1,280.7,224.1,298.3 M256.3,149.9
					c-79.5,0-148.5,53.6-172.1,126.1c-0.7,1.8-1.2,3.5-1.7,5.3c-0.5,1.9-1.1,3.7-1.6,5.6c-0.3,1.2-0.5,2.2-0.8,3.3
					c0-1.4,0.1-2.7,0.3-4.1c0.1-2.2,0.3-4.5,0.5-6.7c0.2-2,0.4-3.9,0.7-5.9c11.3-91.1,73.2-168,172.8-168.7
					c100.8-0.7,163.1,80.2,173.3,172.1C403.9,204,338.4,149.9,256.3,149.9 M256.3,484c-83.4,0-153.1-69.6-153.1-153.2
					c0-83.6,69.6-153.1,153.1-153.1c85.9,0,150.1,69.6,153.2,153.1C406.4,414.3,342.2,484,256.3,484 M459.6,263.1
					c-1.8,0-3.8,0.1-5.6,0.4C438.4,161.9,365.7,77,254.4,77C143.4,77,70.7,161.7,55,263.1h-0.6c-22.5,0-40.9,18.4-40.9,40.9v53.7
					c0,22.6,18.4,40.9,40.9,40.9c1.8,0,3.5-0.1,5.3-0.4c11.7,80.6,60.9,146.9,137.1,169.2c0.4,12,10.2,21.6,22.3,21.6h41.5
					c12.3,0,22.2-9.9,22.2-22.2v-10.6c0-12.3-9.9-22.3-22.2-22.3H219c-6.1,0-11.6,2.5-15.6,6.5C138.1,521,97,463.4,87.1,394.3
					c26.2,68.1,92.8,117.8,169.1,117.6c82.4-0.3,148.2-54.7,171.8-128.2c7.5,9.1,18.9,14.9,31.6,14.9c22.6,0,40.9-18.3,40.9-40.9
					V304C500.5,281.5,482.2,263.1,459.6,263.1"/>
			</g>
		</g>
	</g>
</g>
</svg>
