<?xml version="1.0" encoding="utf-8"?>
<!-- Generator: Adobe Illustrator 21.1.0, SVG Export Plug-In . SVG Version: 6.00 Build 0)  -->
<svg version="1.1" id="Layer_1" xmlns="http://www.w3.org/2000/svg" xmlns:xlink="http://www.w3.org/1999/xlink" x="0px" y="0px"
	 viewBox="0 0 512 512" style="enable-background:new 0 0 512 512;" xml:space="preserve">
<g>
	<path d="M410.3,102.5H140.1v158.9h269.6V102.5H410.3z M162,124.4h225.8V234l-41.7-60.3c-5.5-7.6-18.1-7.6-23.6,0l-41.1,61.4
		l-19.2-28c-5.5-7.6-18.1-7.6-23.6,0l-20.1,29.7c-0.6,1.1-1.1,2.1-1.7,3.3H162V124.4z"/>
	<circle cx="202.6" cy="165" r="28"/>
	<path d="M404.8,287.7H143.4c-4.4,0-8.2,3.8-8.2,8.2s3.8,8.2,8.2,8.2h262c4.4,0,8.2-3.8,8.2-8.2
		C413.6,291.5,409.2,287.7,404.8,287.7z"/>
	<path d="M404.8,342.6H143.4c-4.4,0-8.2,3.8-8.2,8.2s3.8,8.2,8.2,8.2h262c4.4,0,8.2-3.8,8.2-8.2S409.2,342.6,404.8,342.6z"/>
	<path d="M404.8,57.5H143.4c-4.4,0-8.2,3.8-8.2,8.2s3.8,8.2,8.2,8.2h262c4.4,0,8.2-3.8,8.2-8.2C413.6,61.4,409.2,57.5,404.8,57.5z"
		/>
	<path d="M404.8,397.4H143.4c-4.4,0-8.2,3.8-8.2,8.2c0,4.4,3.8,8.2,8.2,8.2h262c4.4,0,8.2-3.8,8.2-8.2
		C413.6,401.2,409.2,397.4,404.8,397.4z"/>
	<path d="M417.9,0H132.5c-18.1,0-32.9,14.8-32.9,32.9v14.3h-5.5C76,47.2,61.2,62,61.2,80.1v399c0,18.1,14.8,32.9,32.9,32.9H373
		c18.1,0,32.9-14.8,32.9-32.9v-5.6h12c18.1,0,32.9-14.8,32.9-32.9V32.9C450.8,14.8,436,0,417.9,0z M384,479c0,6.1-4.9,11-11,11H94.1
		c-6.1,0-11-4.9-11-11V80.1c0-6.1,4.9-11,11-11h5.5v371.6c0,18.1,14.8,32.9,32.9,32.9H384V479z M428.9,440.6c0,6.1-4.9,11-11,11
		H132.5c-6.1,0-11-4.9-11-11V32.9c0-6.1,4.9-11,11-11h285.5c6.1,0,11,4.9,11,11V440.6L428.9,440.6z"/>
</g>
</svg>
