<?xml version="1.0" encoding="utf-8"?>
<!-- Generator: Adobe Illustrator 21.1.0, SVG Export Plug-In . SVG Version: 6.00 Build 0)  -->
<svg version="1.1" id="Layer_1" xmlns="http://www.w3.org/2000/svg" xmlns:xlink="http://www.w3.org/1999/xlink" x="0px" y="0px"
	 viewBox="0 0 512 512" style="enable-background:new 0 0 512 512;" xml:space="preserve">
<g id="Account-Settings">
	<g id="Account-Setting-General-Copy" transform="translate(-535.000000, -276.000000)">
		<g id="Group-5">
			<g id="Group-18" transform="translate(535.000000, 276.000000)">
				<path id="Shape" d="M268.1,386.5c4.4,9.3,15.4,13.6,24.7,9.8c9.3-3.8,13.7-15.3,9.9-24.5l-30.7-69.3l60.9,1.6L197.4,179.2
					L196.3,363l41.7-45.3L268.1,386.5z"/>
				<path id="Combined-Shape" d="M486.4,136.5V93.9H25.6v42.7H486.4z M486.4,162.1H25.6v256h460.8V162.1z M26.8,68.3
					c26.8,0,435.4,0,460.3,0c16.6,0,24.9,8.6,24.9,25.7v325.4c0,16.3-8.5,24.4-25.5,24.4c-25.5,0-435.1,0-460.8,0
					C8.6,443.7,0,435.6,0,419.2V95.4C0,77.3,8.9,68.3,26.8,68.3z"/>
				<circle id="Oval-16" cx="55.5" cy="115.2" r="12.8"/>
				<circle id="Oval-16_1_" cx="89.6" cy="115.2" r="12.8"/>
				<circle id="Oval-16_2_" cx="123.7" cy="115.2" r="12.8"/>
			</g>
		</g>
	</g>
</g>
</svg>
