<?xml version="1.0" encoding="utf-8"?>
<!-- Generator: Adobe Illustrator 21.1.0, SVG Export Plug-In . SVG Version: 6.00 Build 0)  -->
<svg version="1.1" id="Layer_1" xmlns="http://www.w3.org/2000/svg" xmlns:xlink="http://www.w3.org/1999/xlink" x="0px" y="0px"
	 viewBox="0 0 512 512" style="enable-background:new 0 0 512 512;" xml:space="preserve">
<g>
	<path d="M409.6,409.6v51.2H102.4v-51.2H51.2v51.2c0,28.2,22.9,51.2,51.2,51.2h307.2c28.3,0,51.2-23,51.2-51.2v-51.2H409.6z"/>
	<path d="M237.9,350.9c5,5,11.5,7.5,18.1,7.5c6.6,0,13.1-2.5,18.1-7.5l128-128c7.3-7.3,9.5-18.4,5.6-27.9
		c-3.9-9.5-13.3-15.8-23.7-15.8h-51.2V25.6c0-14.2-11.4-25.6-25.6-25.6H204.8c-14.2,0-25.6,11.4-25.6,25.6v153.6H128
		c-10.3,0-19.7,6.2-23.7,15.8c-3.9,9.5-1.8,20.6,5.6,27.9L237.9,350.9L237.9,350.9z M204.8,230.4c14.2,0,25.6-11.4,25.6-25.6V51.2
		h51.2v153.6c0,14.2,11.4,25.6,25.6,25.6h15L256,296.6l-66.2-66.2H204.8L204.8,230.4z"/>
</g>
</svg>
