<?xml version="1.0" encoding="utf-8"?>
<!-- Generator: Adobe Illustrator 21.1.0, SVG Export Plug-In . SVG Version: 6.00 Build 0)  -->
<svg version="1.1" id="Layer_1" xmlns="http://www.w3.org/2000/svg" xmlns:xlink="http://www.w3.org/1999/xlink" x="0px" y="0px"
	 viewBox="0 0 512 512" style="enable-background:new 0 0 512 512;" xml:space="preserve">
<g>
	<g>
		<path d="M422.4,512H64c-28.2,0-51.2-23-51.2-51.2V102.4c0-28.2,23-51.2,51.2-51.2h179.2v51.2H64v358.4h358.4V230.4h51.2v230.4
			C473.6,489,450.6,512,422.4,512z"/>
	</g>
	<path d="M212.7,214.1l72.4,72.4l-90.5,18.1L212.7,214.1z"/>
	<path d="M484.2,87.4c20-20,20-52.4,0-72.4c-20-20-52.4-20-72.4,0L248.9,177.9l72.4,72.4L484.2,87.4L484.2,87.4z"/>
</g>
</svg>
