<?xml version="1.0" encoding="utf-8"?>
<!-- Generator: Adobe Illustrator 21.1.0, SVG Export Plug-In . SVG Version: 6.00 Build 0)  -->
<svg version="1.1" id="Layer_1" xmlns="http://www.w3.org/2000/svg" xmlns:xlink="http://www.w3.org/1999/xlink" x="0px" y="0px"
	 viewBox="0 0 512 512" style="enable-background:new 0 0 512 512;" xml:space="preserve">
<g>
	<path d="M460.8,112.6H51.2C23,112.6,0,135.6,0,163.8v230.4c0,28.2,23,51.2,51.2,51.2h409.6c28.2,0,51.2-23,51.2-51.2V163.8
		C512,135.6,489,112.6,460.8,112.6z M412.5,163.8L256,261.6L99.5,163.8C99.5,163.8,412.5,163.8,412.5,163.8z M51.2,394.2V194
		l191.2,119.5c4.1,2.6,8.9,3.9,13.6,3.9c4.7,0,9.4-1.3,13.6-3.9L460.8,194l0,200.2H51.2L51.2,394.2z"/>
</g>
</svg>
