<?xml version="1.0" encoding="utf-8"?>
<!-- Generator: Adobe Illustrator 21.1.0, SVG Export Plug-In . SVG Version: 6.00 Build 0)  -->
<svg version="1.1" id="Layer_1" xmlns="http://www.w3.org/2000/svg" xmlns:xlink="http://www.w3.org/1999/xlink" x="0px" y="0px"
	 viewBox="0 0 512 512" style="enable-background:new 0 0 512 512;" xml:space="preserve">
<g id="Account-Settings">
	<g id="Account-Setting-General-Copy" transform="translate(-1107.000000, -266.000000)">
		<path id="Shape" d="M1593.2,334.3h-452.7c-23.2,0-33.5,6.4-33.5,27.9c0,202.3,0,309.3,0,320.8c0,17.3,9.2,26.8,25.1,26.8h461.1
			c16.3,0,25.8-6.2,25.8-26.8V362.2C1619,338.8,1618.5,334.3,1593.2,334.3z M1136.2,363.5h453.5v36.8l-195.6,136.3
			c-4.3,3.1-18.1,11.3-30.5,11.3c-17.3,0-29.1-9.5-29.1-9.5l-198.2-136.4V363.5z M1589.8,665.9l-120-146.2l120-83.8V665.9z
			 M1569,679.6h-417.8L1274,532.4l42.2,28.7c4,3.2,21.6,15.9,47.4,15.9c24.4,0,45.6-15.2,47.6-16.7l36.6-25.5L1569,679.6z
			 M1136.2,661.1V437.3l116.2,80L1136.2,661.1z"/>
	</g>
</g>
</svg>
