<?xml version="1.0" encoding="utf-8"?>
<!-- Generator: Adobe Illustrator 23.0.1, SVG Export Plug-In . SVG Version: 6.00 Build 0)  -->
<svg version="1.1" id="Layer_1" xmlns="http://www.w3.org/2000/svg" xmlns:xlink="http://www.w3.org/1999/xlink" x="0px" y="0px"
	 viewBox="0 0 512 512" style="enable-background:new 0 0 512 512;" xml:space="preserve">
<g>
	<path d="M443.1,149.5l-0.6,3.3l59.4,61.1l10-10l-54.4-55.5c2.2-11.1,8.3-46.1,11.7-66.6c1.7-11.1-1.1-30-13.9-45.5
		c-8.9-10.6-25.5-22.8-54.4-23.3c-0.6,0-1.1,0-1.7,0c-43.3,0-65,38.3-71.6,52.8c-33.3-6.7-194.4-39.4-227.1-47.8
		c-18.9-5-32.2-4.4-40,1.1c-6.1,5-6.7,10.6-7.2,11.7v2.2l63.9,107.7C43.3,186.7-0.1,251.6-0.1,314.4c0,75.5,43.3,146,112.7,184.4
		l1.7,1.1h227.1l1.1-1.1c70-38.3,113.3-108.8,113.3-184.4c0-63.9-43.3-128.8-116.6-174.9V73.9c3.3-8.3,21.7-47.2,60.5-47.2
		c0,0,0.6,0,1.1,0c18.3,0.6,33.3,6.7,43.3,18.9c9.4,11.1,12.2,25,11.1,33.9C451.4,104.5,443.1,148.9,443.1,149.5z M442,314.4
		c0,70-40,134.9-104.4,171H118.2c-64.4-36.1-104.4-101.1-104.4-171c0-68.9,58.3-129.4,113.3-163.8h203.2
		C384.2,184.4,442,245,442,314.4z"/>
	<path d="M225.5,303.3H48.6c-1.6,90.8,37.3,131.3,72.5,149.3l104.9,0.2l108.3-0.2c35.2-18,74.1-58.5,72.5-149.3H226.5H225.5z"/>
</g>
</svg>
