<?xml version="1.0" encoding="UTF-8"?>
<svg width="512px" height="512px" viewBox="0 0 512 512" version="1.1" xmlns="http://www.w3.org/2000/svg" xmlns:xlink="http://www.w3.org/1999/xlink">
    <!-- Generator: Sketch 47.1 (45422) - http://www.bohemiancoding.com/sketch -->
    <title>Eraser</title>
    <desc>Created with Sketch.</desc>
    <defs></defs>
    <g id="Page-1" stroke="none" stroke-width="1" fill="none" fill-rule="evenodd">
        <path d="M509.400956,5.90769231 C506.775315,2.62564103 502.836853,0 498.898392,0 L191.698392,0 C186.447109,0 181.195827,3.28205128 179.226597,8.53333333 L89.9548018,251.405128 L0.68300692,494.276923 C-0.629813593,498.215385 0.0265966637,502.810256 1.99582743,506.092308 C4.62146846,509.374359 8.55993,512 12.4983915,512 L319.698392,512 C324.949674,512 330.200956,508.717949 332.170186,503.466667 L421.441981,260.594872 L510.713776,17.7230769 C512.026597,13.7846154 512.026597,9.18974359 509.400956,5.90769231 Z M311.165058,485.74359 L32.1906992,485.74359 L111.61634,269.128205 L390.590699,269.128205 L311.165058,485.74359 Z" id="eraser-1" fill="#000000" fill-rule="nonzero"></path>
    </g>
</svg>