<?xml version="1.0" encoding="utf-8"?>
<!-- Generator: Adobe Illustrator 21.1.0, SVG Export Plug-In . SVG Version: 6.00 Build 0)  -->
<svg version="1.1" id="Layer_1" xmlns="http://www.w3.org/2000/svg" xmlns:xlink="http://www.w3.org/1999/xlink" x="0px" y="0px"
	 viewBox="0 0 512 512" style="enable-background:new 0 0 512 512;" xml:space="preserve">
<path d="M507.7,421.1L279.9,60.5c-10.9-17.3-36-17.3-47.6,0L4.3,421.1c-11.6,18.7,1.4,43.3,23.8,43.3h455.8
	C506.2,464.4,519.2,440,507.7,421.1z M256,427.6c-18,0-33.2-15.1-33.2-33.2c0-18.1,15.2-33.2,33.2-33.2s33.2,15.2,33.2,33.2
	C289.2,413.2,274,427.6,256,427.6z M281.9,332.4c0,4.3-3.6,7.2-7.9,7.2h-36c-4.3,0-7.2-2.9-7.9-7.2l-12.3-181c0-4.3,3.6-8.7,8-8.7
	h59.8c4.3,0,8,3.6,8,8.7L281.9,332.4z"/>
</svg>
