<?xml version="1.0" encoding="utf-8"?>
<!-- Generator: Adobe Illustrator 21.1.0, SVG Export Plug-In . SVG Version: 6.00 Build 0)  -->
<svg version="1.1" id="Layer_1" xmlns="http://www.w3.org/2000/svg" xmlns:xlink="http://www.w3.org/1999/xlink" x="0px" y="0px"
	 viewBox="0 0 512 512" style="enable-background:new 0 0 512 512;" xml:space="preserve">
<g>
	<path d="M460.8,102.4H281.6V25.6C281.6,11.5,270.2,0,256,0H51.2C37,0,25.6,11.5,25.6,25.6V512h51.2V307.2H128V384
		c0,14.1,11.4,25.6,25.6,25.6h307.2c14.2,0,25.6-11.5,25.6-25.6V128C486.4,113.9,475,102.4,460.8,102.4z M76.8,51.2h153.6V256H76.8
		V51.2z M435.2,358.4H215.4l58.7-58.7c4.6-4.6,7.5-11,7.5-18.1v-128h153.6V358.4z"/>
</g>
</svg>
