<?xml version="1.0" encoding="utf-8"?>
<!-- Generator: Adobe Illustrator 22.0.1, SVG Export Plug-In . SVG Version: 6.00 Build 0)  -->
<svg version="1.1" id="Layer_1" xmlns="http://www.w3.org/2000/svg" xmlns:xlink="http://www.w3.org/1999/xlink" x="0px" y="0px"
	 viewBox="0 0 512 512" style="enable-background:new 0 0 512 512;" xml:space="preserve">
<title>flash</title>
<desc>Created with Sketch.</desc>
<g id="Page-1">
	<g id="flash">
		<path id="Shape" d="M230.5,511.6c-2.8,0-5.7-0.5-8.5-1.5c-10.3-3.6-17.1-13.3-17.1-24.1V307H77c-9.8,0-18.8-5.7-23-14.5
			c-4.2-8.9-3.1-19.3,3.1-27.1L261.7,9.6c6.8-8.5,18.2-11.7,28.4-8.1c10.2,3.6,17.1,13.3,17.1,24.1v179.1h127.9
			c9.8,0,18.8,5.7,23,14.5c4.2,8.9,3.1,19.4-3.1,27.1L250.4,502C245.5,508.2,238.1,511.6,230.5,511.6z M130.2,255.8h100.2
			c14.1,0,25.6,11.5,25.6,25.6v131.7l125.8-157.3H281.6c-14.1,0-25.6-11.5-25.6-25.6V98.5L130.2,255.8z"/>
	</g>
</g>
</svg>
