<?xml version="1.0" encoding="utf-8"?>
<!-- Generator: Adobe Illustrator 21.1.0, SVG Export Plug-In . SVG Version: 6.00 Build 0)  -->
<svg version="1.1" id="Layer_1" xmlns="http://www.w3.org/2000/svg" xmlns:xlink="http://www.w3.org/1999/xlink" x="0px" y="0px"
	 viewBox="0 0 512 512" style="enable-background:new 0 0 512 512;" xml:space="preserve">
<g id="Account-Settings">
	<g id="Account-Setting-General-Copy" transform="translate(-227.000000, -557.000000)">
		<g id="Group-5">
			<g id="Line_Icons" transform="translate(227.000000, 557.000000)">
				<g id="Group">
					<path id="Shape" d="M460.8,115.2H249.6l-42.2-56.3c-9.6-12.8-24.9-20.5-41-20.5H51.2C23,38.4,0,61.4,0,89.6v332.8
						c0,28.2,23,51.2,51.2,51.2h409.6c28.2,0,51.2-23,51.2-51.2v-256C512,138.2,489,115.2,460.8,115.2z M51.2,422.4V89.6h115.2
						l42.2,56.3c9.6,12.8,24.9,20.5,41,20.5h211.2l0,256H51.2z"/>
				</g>
			</g>
		</g>
	</g>
</g>
</svg>
