<?xml version="1.0" encoding="utf-8"?>
<!-- Generator: Adobe Illustrator 22.0.1, SVG Export Plug-In . SVG Version: 6.00 Build 0)  -->
<svg version="1.1" id="Layer_1" xmlns="http://www.w3.org/2000/svg" xmlns:xlink="http://www.w3.org/1999/xlink" x="0px" y="0px"
	 viewBox="0 0 512 512" style="enable-background:new 0 0 512 512;" xml:space="preserve">
<title>Font Size</title>
<desc>Created with Sketch.</desc>
<g id="Page-1">
	<path id="fontsize" d="M89.9,455.9c-1.9-2.8-2.9-6.1-2.9-10c0.4-6.5,1.8-10.3,3.8-11.6c2.2-1.3,6.2-1.9,12.2-1.9
		c12.4,0,21.7-2.2,27.7-6.8c6-4.5,9.7-10.1,11.2-16.7c1.5-6.6,2.5-15.3,2.9-26.1v-307h-44.4c-14.6,0.4-25.8,3.5-33.8,9.3
		c-8,5.8-13.9,14.3-18,25.7S41,138.5,38,159.5c-0.4,3.4-3,6.2-7.7,8.4s-9.6,3.2-14.8,3.2c-3.8,0-7.4-1.2-10.6-3.5
		C1.7,165.2,0,162,0,158.2l1.9-90.8C1.9,57.2,7.7,52,19.3,52H334c11.2,0,16.7,5.2,16.7,15.5l2.6,90.8c0,3.8-1.8,6.9-5.2,9.3
		c-3.4,2.4-7.1,3.5-10.9,3.5c-5.2,0-10-1-14.5-3.2s-6.9-4.9-7.4-8.4c-3.4-21.4-7.1-37.8-10.9-48.9s-9.9-19.6-18-25.4
		c-8.1-5.8-19.5-8.9-34.1-9.3h-43.6v307c0.4,10.8,1.4,19.4,2.9,26.1c1.5,6.6,5.3,12.2,11.2,16.7c6,4.5,15.2,6.8,27.7,6.8h3.8
		c3.8,0,6.8,0.7,8.7,2.2c1.9,1.5,3.1,5.3,3.5,11.2c0,3.8-1,7.2-2.9,10c-1.9,2.8-4.9,4.1-8.7,4.1c-27.5-1.3-52.8-1.9-75.9-1.9
		c-25.7,0-52.6,0.6-80.4,1.9C94.7,460,91.8,458.6,89.9,455.9z M358.4,457.6c-1.1-1.6-1.7-3.6-1.7-5.8c0.2-3.8,1-6,2.2-6.7
		c1.3-0.7,3.6-1.1,7.1-1.1c7.3,0,12.6-1.3,16.1-4c3.5-2.6,5.7-5.9,6.6-9.8s1.4-8.9,1.7-15.2V235.9h-25.9c-8.5,0.2-15.1,2-19.7,5.4
		s-8.1,8.4-10.5,15s-4.5,16.1-6.2,28.4c-0.2,2-1.8,3.6-4.5,4.9c-2.7,1.3-5.6,1.9-8.6,1.9c-2.2,0-4.3-0.7-6.2-2
		c-1.9-1.4-2.8-3.2-2.8-5.4L307,231c0-6,3.4-9,10.1-9h183.6c6.5,0,9.8,3,9.8,9L512,284c0,2.2-1,4-3,5.4s-4.1,2-6.4,2
		c-3,0-5.8-0.6-8.5-1.9c-2.6-1.3-4-2.9-4.3-4.9c-2-12.5-4.1-22-6.4-28.5c-2.2-6.5-5.8-11.4-10.5-14.8s-11.4-5.2-19.9-5.4h-25.4V415
		c0.2,6.3,0.8,11.3,1.7,15.2c0.9,3.9,3.1,7.1,6.6,9.8c3.5,2.6,8.9,4,16.1,4h2.2c2.2,0,4,0.4,5.1,1.3s1.8,3.1,2,6.6
		c0,2.2-0.6,4.2-1.7,5.8s-2.8,2.4-5.1,2.4c-16-0.7-30.8-1.1-44.3-1.1c-15,0-30.7,0.4-46.9,1.1C361.2,460,359.5,459.2,358.4,457.6z"
		/>
</g>
</svg>
