<?xml version="1.0" encoding="utf-8"?>
<!-- Generator: Adobe Illustrator 21.1.0, SVG Export Plug-In . SVG Version: 6.00 Build 0)  -->
<svg version="1.1" id="Layer_1" xmlns="http://www.w3.org/2000/svg" xmlns:xlink="http://www.w3.org/1999/xlink" x="0px" y="0px"
	 viewBox="0 0 512 512" style="enable-background:new 0 0 512 512;" xml:space="preserve">
<g id="Account-Settings_1_">
	<g id="Account-Setting-General-Copy_1_" transform="translate(-915.000000, -460.000000)">
		<g id="Group-5_1_">
			<g id="Group-13" transform="translate(915.000000, 460.000000)">
				<path id="Combined-Shape" d="M509.9,121.4l-28.2,114.3l-10.9,209.7c-1.7,15.5-9.5,23.2-23.5,23.2c-21,0-348.7,0-378.1,0
					c-19.6,0-29.4-8.5-29.4-25.6L28.7,235.7l-27.8-114C-3,104.6,2.6,96,17.6,96c22.5,0,443.1,0,471.7,0
					C508.5,96,515.3,104.5,509.9,121.4z M476.3,135.7c2.7-7.8-0.6-11.7-9.8-11.7c-13.8,0-410.6,0-422.9,0c-8.2,0-11.3,4-9,12
					L57,235.6l12.1,205.1h372.6l12-204.9L476.3,135.7z"/>
				<path id="Rectangle-55" d="M59.3,59.6c18.1,0,201.8,0,216.8,0c15,0,33.5-25.6,48.2-25.6c14.7,0,109.9,0,127.6,0
					c11.8,0,17.7,5.5,17.7,16.4V96H41.2l0-21.1C41.2,64.7,47.2,59.6,59.3,59.6z"/>
				<path id="A" d="M165.2,350.3l55.2-143.6l-21.6-1.8v-25h78.5l69.9,177.8h0.3l19.5,0.9v26.2h-88.5v-25l13-0.9
					c3.9-0.4,6.5-1.2,7.9-2.5c1.4-1.2,1.5-3.5,0.3-6.8l-7.2-19.1h-80.2l-10.3,27.1l20.6,0.9v26.2h-79.2v-25l11.3-0.9
					C159.7,358.5,163.2,355.6,165.2,350.3z M252.6,214.4l-31.9,87.8h63.8l-30.9-87.8H252.6z"/>
			</g>
		</g>
	</g>
</g>
</svg>
