<?xml version="1.0" encoding="utf-8"?>
<!-- Generator: Adobe Illustrator 21.1.0, SVG Export Plug-In . SVG Version: 6.00 Build 0)  -->
<svg version="1.1" id="Layer_1" xmlns="http://www.w3.org/2000/svg" xmlns:xlink="http://www.w3.org/1999/xlink" x="0px" y="0px"
	 viewBox="0 0 512 512" style="enable-background:new 0 0 512 512;" xml:space="preserve">
<g>
	<path d="M486.4,51.2H332.8c-14.2,0-25.6,11.5-25.6,25.6v25.6H204.8V25.6c0-14.1-11.4-25.6-25.6-25.6H25.6C11.4,0,0,11.5,0,25.6
		v460.8C0,500.5,11.4,512,25.6,512h460.8c14.2,0,25.6-11.5,25.6-25.6V76.8C512,62.7,500.6,51.2,486.4,51.2z M51.2,51.2h102.4V128
		v332.8H51.2V51.2z M204.8,153.6h102.4v307.2H204.8V153.6z M460.8,460.8H358.4V128v-25.6h102.4V460.8z"/>
	<path d="M76.8,76.8H128v204.8H76.8V76.8z"/>
	<path d="M230.4,179.2h51.2v153.6h-51.2V179.2z"/>
	<path d="M384,128h51.2v179.2H384V128z"/>
</g>
</svg>
