<?xml version="1.0" encoding="UTF-8"?>
<svg width="13px" height="16px" viewBox="0 0 13 16" version="1.1" xmlns="http://www.w3.org/2000/svg" xmlns:xlink="http://www.w3.org/1999/xlink">
    <!-- Generator: Sketch 52.1 (67048) - http://www.bohemiancoding.com/sketch -->
    <title>general settings icon</title>
    <desc>Created with Sketch.</desc>
    <g id="Symbols" stroke="none" stroke-width="1" fill="none" fill-rule="evenodd">
        <g id="general-settings-(Unselected)" fill="#668C98" fill-rule="nonzero">
            <g id="general-settings-icon">
                <path d="M12,14.3333333 L12.6666667,14.3333333 L12.6666667,15.6666667 C12.6666667,15.8507616 12.5174282,16 12.3333333,16 L0.333333333,16 C0.149238417,16 2.2545125e-17,15.8507616 0,15.6666667 L0,0.333333333 C-2.2545125e-17,0.149238417 0.149238417,3.38176877e-17 0.333333333,0 L8.85123697,0 L12.6666667,3.74348957 L12.6666667,14.6666667 L12,14.6666667 L12,4.1356608 L12,4.33333333 L8.33333333,4.33333333 L8.33333333,0.666666667 L8.51920573,0.666666667 L0.666666667,0.666666667 L0.666666667,15.3333333 L12,15.3333333 L12,14.3333333 Z M9,0.96044922 L9,3.66666667 L11.7250977,3.66666667 L9,0.96044922 Z" id="Combined-Shape"></path>
                <path d="M9.33577645,9.11252198 L8.47867511,9.11252198 C8.42657168,8.91065963 8.34581138,8.72182067 8.24290711,8.54600508 L8.8512146,7.93911571 C8.98147316,7.80888194 8.98147316,7.59790324 8.8512146,7.46766947 L8.56855352,7.18375985 C8.4435053,7.05743309 8.24030194,7.05222374 8.10874079,7.17203881 L7.45744798,7.75939311 C7.28159893,7.65650843 7.09272401,7.5757635 6.89082324,7.52366999 L6.89082324,6.66673178 C6.89082324,6.48310217 6.74232848,6.33333333 6.55736132,6.33333333 C6.55736132,6.33333333 6.55736132,6.33333333 6.55736132,6.33333333 L6.11317963,6.33463567 C5.92951505,6.33463567 5.77971771,6.48440451 5.77971771,6.66803412 L5.77971771,7.52497233 C5.57781694,7.57836817 5.38894202,7.65781077 5.21309296,7.76069545 L4.60608807,7.15380608 C4.47582951,7.02357231 4.26481064,7.02357231 4.13455207,7.15380608 C4.13455207,7.15380608 4.13455207,7.15380608 4.13455207,7.15380608 L3.81932635,7.46766947 C3.68906779,7.59790324 3.68906779,7.80888194 3.81932635,7.93911571 L4.42502867,8.54600508 C4.3221244,8.72182067 4.24136409,8.91065963 4.19056325,9.11252198 L3.33346192,9.11252198 C3.14979735,9.11252198 3,9.26229081 3,9.44592043 L3,9.89001758 C3,10.0736472 3.14979735,10.223416 3.33346192,10.223416 L4.19056325,10.223416 C4.24266668,10.4252784 4.32342699,10.6141173 4.42633125,10.7899329 L3.81932635,11.3968223 C3.68906779,11.5270561 3.68906779,11.7380348 3.81932635,11.8682685 L4.13324949,12.1821319 C4.26350805,12.3123657 4.47452692,12.3123657 4.60478548,12.1821319 L5.21179038,11.5752426 C5.38763944,11.6781272 5.57651435,11.7588722 5.77841512,11.8109657 L5.77841512,12.6666015 C5.77841512,12.8502312 5.92821247,13 6.11187704,13 L6.55605874,13 C6.73972331,13 6.88952066,12.8502312 6.88952066,12.6666015 L6.88952066,11.8096633 C7.09142143,11.7562675 7.28029634,11.6768249 7.4561454,11.5739402 L8.0631503,12.1808296 C8.19340886,12.3110634 8.40442773,12.3110634 8.53468629,12.1808296 L8.84860942,11.8669662 C8.97886799,11.7367324 8.97886799,11.5257537 8.84860942,11.39552 L8.24160453,10.7886306 C8.34450879,10.6141173 8.4252691,10.4252784 8.47737252,10.2221137 L9.33317127,10.2221137 C9.51683585,10.2221137 9.66663319,10.0723449 9.66663319,9.88871524 L9.66663319,9.44461809 C9.66923836,9.26229081 9.51944102,9.11252198 9.33577645,9.11252198 Z M6.33461918,10.7808166 C5.72110136,10.7808166 5.22221106,10.2820212 5.22221106,9.66862017 C5.22221106,9.05652146 5.71979877,8.55642378 6.33461918,8.55642378 C6.94943959,8.55642378 7.4470273,9.05521912 7.4470273,9.66862017 C7.4470273,10.2820212 6.94943959,10.7808166 6.33461918,10.7808166 Z" id="Shape_2_"></path>
            </g>
        </g>
    </g>
</svg>