<?xml version="1.0" encoding="utf-8"?>
<!-- Generator: Adobe Illustrator 21.1.0, SVG Export Plug-In . SVG Version: 6.00 Build 0)  -->
<svg version="1.1" id="Layer_1" xmlns="http://www.w3.org/2000/svg" xmlns:xlink="http://www.w3.org/1999/xlink" x="0px" y="0px"
	 viewBox="0 0 512 512" style="enable-background:new 0 0 512 512;" xml:space="preserve">
<g>
	<path d="M460.8,153.2h-79.7c11.5-6,22.5-13.3,31.6-22.5c30-29.9,30-78.6,0-108.6c-29-29-79.6-29-108.6,0
		C262.2,64,256.5,142.9,256,151.8c-0.5-8.9-6.2-87.8-48.1-129.6c-29-29-79.6-29-108.6,0C84.8,36.6,76.8,55.9,76.8,76.4
		s8,39.8,22.5,54.3c9.1,9.2,20.1,16.5,31.6,22.5H51.2c-28.3,0-51.2,23-51.2,51.2v76.8c0,14.1,11.4,25.6,25.6,25.6v153.6
		c0,28.2,22.9,51.2,51.2,51.2h358.4c28.3,0,51.2-23,51.2-51.2V306.8c14.2,0,25.6-11.5,25.6-25.6v-76.8
		C512,176.2,489.1,153.2,460.8,153.2L460.8,153.2z M153.6,460.4H76.8V306.8h76.8V460.4z M153.6,255.6H51.2v-51.2h102.4V255.6z
		 M135.5,94.5c-4.8-4.8-7.5-11.3-7.5-18.1s2.7-13.3,7.5-18.1c4.8-4.8,11.2-7.5,18.1-7.5c6.9,0,13.3,2.7,18.1,7.5
		c15.1,15.1,23.9,42.2,28.6,64.8C177.8,118.4,150.5,109.6,135.5,94.5L135.5,94.5z M307.2,460.4H204.8V306.8h102.4V460.4z
		 M307.2,255.6H204.8v-51.2h102.4V255.6z M340.3,58.4c4.8-4.8,11.2-7.5,18.1-7.5c6.9,0,13.3,2.7,18.1,7.5c10,10,10,26.2,0,36.2
		c-15.1,15.1-42.2,24-64.8,28.6C316.4,100.6,325.2,73.5,340.3,58.4L340.3,58.4z M435.2,460.4h-76.8V306.8h76.8V460.4z M460.8,255.6
		H358.4v-51.2h102.4V255.6z"/>
</g>
</svg>
