<?xml version="1.0" encoding="utf-8"?>
<!-- Generator: Adobe Illustrator 21.0.0, SVG Export Plug-In . SVG Version: 6.00 Build 0)  -->
<svg version="1.1" id="Layer_1" xmlns="http://www.w3.org/2000/svg" xmlns:xlink="http://www.w3.org/1999/xlink" x="0px" y="0px"
	 viewBox="0 0 512 512" style="enable-background:new 0 0 512 512;" xml:space="preserve">
<g>
	<path d="M162.9,232.9v55.8h92.4c-3.7,24-28,70.2-92.4,70.2c-55.6,0-100.9-46.1-100.9-102.9s45.4-102.9,100.9-102.9
		c31.7,0,52.9,13.5,64.9,25.2l44.2-42.6C243.6,109.1,206.8,93,162.9,93C72.9,93.2,0,166,0,256.1S72.9,419,162.9,419
		c94,0,156.4-66.2,156.4-159.1c0-10.7-1.2-18.8-2.5-27L162.9,232.9L162.9,232.9z"/>
	<path d="M512,232.9h-46.5v-46.6H419v46.5h-46.5v46.5H419V326h46.5v-46.5H512"/>
</g>
</svg>
