<?xml version="1.0" encoding="utf-8"?>
<!-- Generator: Adobe Illustrator 21.1.0, SVG Export Plug-In . SVG Version: 6.00 Build 0)  -->
<svg version="1.1" id="Layer_1" xmlns="http://www.w3.org/2000/svg" xmlns:xlink="http://www.w3.org/1999/xlink" x="0px" y="0px"
	 viewBox="0 0 512 512" style="enable-background:new 0 0 512 512;" xml:space="preserve">
<path d="M492.3,353.8c1.6-3.8,3-7.6,4.4-11.4c0-0.1,0.1-0.2,0.1-0.3c1.3-3.8,2.6-7.5,3.8-11.3c0.1-0.2,0.1-0.4,0.2-0.6
	c1.1-3.7,2.2-7.5,3.2-11.3c0.1-0.2,0.1-0.4,0.2-0.7c0.9-3.8,1.8-7.5,2.6-11.3c0-0.2,0.1-0.5,0.1-0.7c0.8-3.8,1.5-7.6,2.1-11.5
	c0-0.2,0-0.4,0.1-0.6c0.6-3.9,1.1-7.8,1.5-11.7c0-0.1,0-0.3,0-0.4c0.4-4,0.7-7.9,1-11.9c0-0.1,0-0.2,0-0.3
	c1.8-33-2.7-66.8-14.4-99.6c-0.4-1-0.8-2-1.1-3c-1.1-3.1-2.3-6.2-3.6-9.3l0,0l0,0C451.4,59.5,356.2,0,255.8,0
	C223.2,0,190,6.3,158,19.5C27.4,73.6-34.5,223.4,19.6,353.8c26.7,64.5,76.8,112.3,136.3,137.6c-0.1-0.1-0.3-0.1-0.4-0.2l0.6,0.3
	c0.3,0.1,0.6,0.2,0.8,0.4l1.1,0.5l0,0c2.6,1.1,5.3,2.1,8,3.2c1.1,0.4,2.2,0.8,3.2,1.2c2.4,0.9,4.9,1.7,7.4,2.5
	c1.3,0.4,2.6,0.8,3.9,1.2c2.6,0.8,5.1,1.5,7.7,2.2c1,0.3,2.1,0.6,3.1,0.9c3.3,0.9,6.7,1.7,10,2.4c1.6,0.3,3.2,0.7,4.7,1
	c2,0.4,4,0.8,6,1.1c1.8,0.3,3.5,0.6,5.3,0.9c1.9,0.3,3.8,0.5,5.7,0.8c3.2,0.4,6.5,0.8,9.7,1.1c1.7,0.1,3.3,0.3,5,0.4
	c2.2,0.2,4.4,0.3,6.5,0.4c1.4,0.1,2.8,0.1,4.1,0.2c2.3,0.1,4.6,0.1,7,0.1c0.2,0,0.4,0,0.5,0c0.4,0,0.8,0,1.2,0
	c3.6,0,7.3-0.1,10.9-0.3c0.2,0,0.4,0,0.6,0c28.5-1.4,57.3-7.6,85.1-19.1l0,0v-0.1C419,465.3,467.2,414.4,492.3,353.8
	C492.2,353.9,492.3,353.9,492.3,353.8L492.3,353.8z M166.7,40.6L166.7,40.6l35.4,85.4c0,0,0,0-0.1,0c-35.8,14.8-62.3,42.9-76.1,76.2
	l-85.4-35.4C64.3,109.2,109.1,64.4,166.7,40.6z M166.6,471.4c-56-23.2-101.9-67.8-126.2-126.3l0,0l85.4-35.4
	c14.6,35.3,42.4,62.2,76.2,76.2L166.6,471.4z M255.9,373.9c-1.9,0-3.8-0.1-5.7-0.2c-1.3-0.1-2.6-0.1-4-0.2c-1.9-0.2-3.9-0.4-5.8-0.6
	c-1.4-0.2-2.8-0.4-4.2-0.6c-1.9-0.3-3.7-0.6-5.6-1c-1.6-0.3-3.1-0.8-4.6-1.2c-2.9-0.8-5.8-1.6-8.6-2.6c-1.5-0.5-3.1-1.1-4.6-1.7
	c-28.8-11.3-53.2-33.8-66-64.7c-12.4-30.1-11.5-62.4,0.1-90.3l0,0c11.6-27.9,33.8-51.4,63.9-63.9c0,0,0,0,0.1,0v0.1
	c18.7-7.7,38.3-10.3,57.1-8.4c0.2,0,0.4,0,0.6,0.1c11.1,1.2,21.9,4,32.1,8.2c28.1,11.5,51.7,33.7,64.3,64
	c24.9,60.2-3.7,129.2-63.9,154.2C286.3,371,271,373.9,255.9,373.9z M345.1,471.3l-35.3-85.4c34.7-14.4,61.8-41.4,76.2-76.2
	l85.4,35.4C447.4,402.7,402.6,447.5,345.1,471.3z M386,202.2C386,202.2,386,202.1,386,202.2c-14.6-35.3-42.3-62.2-76.1-76.2
	l35.4-85.5c56,23.2,101.9,67.8,126.1,126.3l0,0L386,202.2z"/>
</svg>
