<?xml version="1.0" encoding="utf-8"?>
<!-- Generator: Adobe Illustrator 21.0.0, SVG Export Plug-In . SVG Version: 6.00 Build 0)  -->
<svg version="1.1" id="Layer_1" xmlns="http://www.w3.org/2000/svg" xmlns:xlink="http://www.w3.org/1999/xlink" x="0px" y="0px"
	 viewBox="0 0 512 512" style="enable-background:new 0 0 512 512;" xml:space="preserve">
<path d="M256,0C114.6,0,0,114.6,0,256s114.6,256,256,256s256-114.6,256-256S397.4,0,256,0z M294.9,416.9c0,4.7-3.9,8.5-8.5,8.5
	h-57.9c-4.7,0-8.5-3.9-8.5-8.5v-56c0-4.7,3.9-8.5,8.5-8.5h57.9c4.7,0,8.5,3.9,8.5,8.5V416.9z M348.5,225.2
	c-5.5,7.7-15.2,17.1-29.9,28.6l-13.7,10.7c-6.1,4.8-10,10-11.9,16.2c-0.9,2.7-1.9,8.5-2.2,20.4c-0.1,4.7-3.9,8.4-8.5,8.4h-52.5
	c-2.3,0-4.6-0.9-6.1-2.6s-2.5-3.9-2.4-6.3c0.8-23,3.1-38.7,6.8-48.1c4-9.8,13.3-20.4,28.4-32.3l14.2-11.2c3.9-2.8,6.9-6,9.3-9.6
	c4.1-5.7,6.1-11.7,6.1-18.4c0-8.1-2.3-15.2-7.1-21.8c-4-5.7-12.2-8.5-24.3-8.5c-11.9,0-19.9,3.5-24.6,10.9
	c-5.5,8.6-8.1,17.3-8.1,26.4c0,4.7-3.9,8.5-8.5,8.5h-56c-2.3,0-4.6-0.9-6.1-2.6s-2.5-4-2.4-6.3c1.7-39.5,15.9-68.2,42.4-85
	c16.5-10.7,37-16,60.8-16c30.8,0,56.9,7.6,77.7,22.5c21.5,15.6,32.5,38.7,32.5,68.8C362.7,196.5,357.8,212.4,348.5,225.2z"/>
</svg>
