<?xml version="1.0" encoding="utf-8"?>
<!-- Generator: Adobe Illustrator 21.1.0, SVG Export Plug-In . SVG Version: 6.00 Build 0)  -->
<svg version="1.1" id="Layer_1" xmlns="http://www.w3.org/2000/svg" xmlns:xlink="http://www.w3.org/1999/xlink" x="0px" y="0px"
	 viewBox="0 0 512 512" style="enable-background:new 0 0 512 512;" xml:space="preserve">
<g>
	<g>
		<path d="M182.1,130.8c22-13.4,47-20.7,73.9-20.7s51.9,7.3,73.9,20.7l79.4-79.4C364,17.3,310.2,0.1,256,0.1S148,17.3,102.9,51.4
			L182.1,130.8z"/>
		<path d="M461,103.3l-79.4,79.4c13.4,22,20.7,47.6,20.7,73.9s-7.3,51.9-20.7,73.9l79.4,79.4C529.3,319.3,529.3,193.5,461,103.3z"/>
		<path d="M329.8,382.1c-22,13.4-47,20.7-73.9,20.7s-51.9-7.3-73.9-20.7l-79.4,79.4c45.1,34.1,98.8,51.3,153.1,51.3
			s108-17.1,153.1-51.3L329.8,382.1z"/>
		<path d="M130.3,330.3c-13.4-22-20.7-47.6-20.7-73.9c0-26.2,7.3-51.9,20.7-73.9L51,103.3c-67.7,90.9-67.7,216,0,306.3L130.3,330.3z
			"/>
	</g>
	<g>
		<path d="M217.4,172c10-6.4,22.1-9.6,36.6-9.6c19,0,34.8,4.6,47.4,13.6s18.9,22.6,18.9,40.4c0,11-2.7,20.2-8.1,27.6
			c-3.2,4.6-9.3,10.3-18.3,17.4l-8.9,7c-4.9,3.8-8.1,8.2-9.7,13.3c-1,3.2-1.6,8.1-1.6,14.9h-34.2c0.5-14.2,1.8-24,4-29.4
			s7.8-11.7,16.8-18.8l9.2-7.2c3-2.3,5.5-4.7,7.3-7.4c3.3-4.6,5-9.7,5-15.2c0-6.4-1.8-12.3-5.6-17.5c-3.8-5.3-10.5-7.9-20.5-7.9
			c-9.7,0-16.6,3.2-20.7,9.7c-4.1,6.5-6.1,13.2-6.1,20.2h-36.5C193.2,199,201.6,182.1,217.4,172z M238.3,313.9h37.8v36.5h-37.8
			V313.9z"/>
	</g>
</g>
</svg>
