<?xml version="1.0" encoding="utf-8"?>
<!-- Generator: Adobe Illustrator 22.0.1, SVG Export Plug-In . SVG Version: 6.00 Build 0)  -->
<svg version="1.1" id="Layer_1" xmlns="http://www.w3.org/2000/svg" xmlns:xlink="http://www.w3.org/1999/xlink" x="0px" y="0px"
	 viewBox="0 0 512 512" style="enable-background:new 0 0 512 512;" xml:space="preserve">
<title>noun_1235602_cc copy</title>
<desc>Created with Sketch.</desc>
<g id="Page-1">
	<g id="noun_1235602_cc-copy">
		<path id="Shape" d="M256.1,417.3c20-0.1,40-3.1,59.2-8.9l-12.2-41.3c-15.2,4.6-31.1,7-47,7.1c-92.2,0-173.2-85.5-200.9-118.3
			c18.7-22.2,39.5-42.6,62.1-60.8l-26.9-33.6c-29.9,23.9-56.8,51.3-80.2,81.7l-9.3,12.7l9.3,12.7
			C14.7,274.7,120.6,417.3,256.1,417.3z"/>
		<path id="Shape_1_" d="M154.9,255.9c0.1,55.9,45.4,101.1,101.2,101.2v-43c-32.1-0.1-58.1-26.1-58.2-58.2H154.9z"/>
		<path id="Shape_2_" d="M452.9,422.3l-54.6-54.6c39.4-27.5,74.3-61,103.6-99.1l9.3-12.7l-9.3-12.7
			c-4.5-6.1-110.3-148.7-245.8-148.7c-36.3,0.6-72,9.8-104,26.9L89.7,59.1L59.2,89.6l363.2,363.1L452.9,422.3z M256.1,137.6
			c92.2,0,173.1,85.5,200.9,118.3c-26,31-56.2,58.1-89.7,80.7l-26-26c25.7-40,20-92.6-13.6-126.2s-86.1-39.3-126.2-13.6l-17.1-17
			C206.9,143.5,231.3,138,256.1,137.6L256.1,137.6z M233.1,202.5c21.9-9.5,47.3-4.6,64.2,12.2c16.9,16.9,21.7,42.3,12.3,64.2
			L233.1,202.5z"/>
	</g>
</g>
</svg>
