<?xml version="1.0" encoding="utf-8"?>
<!-- Generator: Adobe Illustrator 22.0.1, SVG Export Plug-In . SVG Version: 6.00 Build 0)  -->
<svg version="1.1" id="Layer_1" xmlns="http://www.w3.org/2000/svg" xmlns:xlink="http://www.w3.org/1999/xlink" x="0px" y="0px"
	 viewBox="0 0 512 512" style="enable-background:new 0 0 512 512;" xml:space="preserve">
<style type="text/css">
	.st0{stroke:#000000;stroke-miterlimit:10;}
</style>
<g id="Page-1">
	<g id="Image-Library-_x3E_-image-preview-Copy-11" transform="translate(-1390.000000, -41.000000)">
		<g id="image-editing" transform="translate(1390.000000, 40.000000)">
			<path id="Shape" class="st0" d="M435.2,180.2c42.3,0,76.8-34.5,76.8-76.8s-34.5-76.8-76.8-76.8c-33.3,0-61.5,21.5-72.1,51.2H0
				V129h363.1C373.7,158.7,401.9,180.2,435.2,180.2z M435.2,77.8c14.1,0,25.6,11.5,25.6,25.6c0,14.2-11.5,25.6-25.6,25.6
				s-25.6-11.4-25.6-25.6C409.6,89.3,421.1,77.8,435.2,77.8z"/>
			<path id="Shape_1_" class="st0" d="M179.2,180.2c-33.3,0-61.5,21.5-72.1,51.2H0v51.2h107.1c10.6,29.7,38.8,51.2,72.1,51.2
				s61.5-21.5,72.1-51.2H512v-51.2H251.3C240.7,201.7,212.5,180.2,179.2,180.2z M179.2,282.6c-14.1,0-25.6-11.4-25.6-25.6
				c0-14.1,11.5-25.6,25.6-25.6s25.6,11.5,25.6,25.6C204.8,271.2,193.3,282.6,179.2,282.6z"/>
			<path id="Shape_2_" class="st0" d="M435.2,333.8c-33.3,0-61.5,21.5-72.1,51.2H0v51.2h363.1c10.6,29.7,38.8,51.2,72.1,51.2
				c42.3,0,76.8-34.5,76.8-76.8S477.5,333.8,435.2,333.8z M435.2,436.2c-14.1,0-25.6-11.4-25.6-25.6c0-14.1,11.5-25.6,25.6-25.6
				s25.6,11.5,25.6,25.6C460.8,424.8,449.3,436.2,435.2,436.2z"/>
		</g>
	</g>
</g>
</svg>
