<?xml version="1.0" encoding="utf-8"?>
<!-- Generator: Adobe Illustrator 22.0.1, SVG Export Plug-In . SVG Version: 6.00 Build 0)  -->
<svg version="1.1" id="Layer_1" xmlns="http://www.w3.org/2000/svg" xmlns:xlink="http://www.w3.org/1999/xlink" x="0px" y="0px"
	 viewBox="0 0 512 512" style="enable-background:new 0 0 512 512;" xml:space="preserve">
<g id="Page-1">
	<g id="Image-Library-_x3E_-image-preview-Copy-11" transform="translate(-1260.000000, -609.000000)">
		<g id="Group-4" transform="translate(1169.000000, 101.000000)">
			<g id="roate-left" transform="translate(91.000000, 508.000000)">
				<path id="Shape" d="M378.2,76.8H369l33.1-33.1L365.9,7.5L271,102.4l94.9,94.9l36.2-36.1L369,128h9.2c82.6,0,82.6,57.8,82.6,76.8
					v25.6H512v-25.6C512,124.6,462,76.8,378.2,76.8z"/>
				<path id="Shape_1_" d="M51.2,51.2h128v153.6h51.2V51.2c0-28.2-23-51.2-51.2-51.2h-128C23,0,0,23,0,51.2v358.4
					c0,28.2,23,51.2,51.2,51.2h51.2v-51.2H51.2V51.2z"/>
				<path id="Shape_2_" d="M460.8,256h-256c-28.2,0-51.2,23-51.2,51.2v153.6c0,28.2,23,51.2,51.2,51.2h256c28.2,0,51.2-23,51.2-51.2
					V307.2C512,279,489,256,460.8,256z M204.8,460.8V307.2h256v153.6L204.8,460.8L204.8,460.8z"/>
			</g>
		</g>
	</g>
</g>
</svg>
