<?xml version="1.0" encoding="utf-8"?>
<!-- Generator: Adobe Illustrator 22.0.1, SVG Export Plug-In . SVG Version: 6.00 Build 0)  -->
<svg version="1.1" id="Layer_1" xmlns="http://www.w3.org/2000/svg" xmlns:xlink="http://www.w3.org/1999/xlink" x="0px" y="0px"
	 viewBox="0 0 512 512" style="enable-background:new 0 0 512 512;" xml:space="preserve">
<g id="Page-1">
	<g id="Image-Library-_x3E_-image-preview-Copy-11" transform="translate(-1305.000000, -609.000000)">
		<g id="Group-4" transform="translate(1169.000000, 101.000000)">
			
				<g id="rotate-right" transform="translate(146.000000, 518.000000) scale(-1, 1) translate(-146.000000, -518.000000) translate(136.000000, 508.000000)">
				<path id="Shape" d="M-113.8,76.8h-9.2l33.1-33.1l-36.2-36.1l-94.9,94.9l94.9,94.9l36.2-36.1L-123,128h9.2
					c82.6,0,82.6,57.8,82.6,76.8v25.6H20v-25.6C20,124.6-30,76.8-113.8,76.8z"/>
				<path id="Shape_1_" d="M-440.8,51.2h128v153.6h51.2V51.2c0-28.2-23-51.2-51.2-51.2h-128C-469,0-492,23-492,51.2v358.4
					c0,28.2,23,51.2,51.2,51.2h51.2v-51.2h-51.2V51.2z"/>
				<path id="Shape_2_" d="M-31.2,256h-256c-28.2,0-51.2,23-51.2,51.2v153.6c0,28.2,23,51.2,51.2,51.2h256C-3,512,20,489,20,460.8
					V307.2C20,279-3,256-31.2,256z M-287.2,460.8V307.2h256v153.6L-287.2,460.8L-287.2,460.8z"/>
			</g>
		</g>
	</g>
</g>
</svg>
