<?xml version="1.0" encoding="utf-8"?>
<!-- Generator: Adobe Illustrator 21.0.0, SVG Export Plug-In . SVG Version: 6.00 Build 0)  -->
<svg version="1.1" id="Layer_1" xmlns="http://www.w3.org/2000/svg" xmlns:xlink="http://www.w3.org/1999/xlink" x="0px" y="0px"
	viewBox="0 0 512 512" style="enable-background:new 0 0 512 512;" xml:space="preserve">
<style type="text/css">
   .st0{display:none;}
</style>
<rect x="274" y="243.4" class="st0" width="66" height="29"/>
<path d="M255.9-0.1C114-0.1-0.1,114-0.1,255.9S114,512,255.9,512s256-114.1,256-256C515.1,114,397.8-0.1,255.9-0.1z M249.8,83.2
   c24.7,0,46.3,21.6,46.3,46.3s-21.6,43.2-46.3,43.2s-43.2-18.5-43.2-43.2S225.1,83.2,249.8,83.2z M333,404h-145v-9.3
   c9.3-3.1,15.4-3.1,21.6-3.1c3.1,0,6.2-3.1,9.3-6.2c3.1-3.1,6.2-6.2,6.2-9.3c3.1-6.2,3.1-12.3,3.1-21.6v-92.5c0-9.3,0-15.4,0-21.6
   s-3.1-12.3-6.2-18.5c-3.1-3.1-9.3-3.1-15.4-6.2c-6.2,0-12.3-3.1-24.7-3.1v-12.3l86.4-3.1h21.6v151.2c0,12.3,0,21.6,3.1,24.7
   c3.1,6.2,6.2,9.3,12.3,9.3c6.2,3.1,15.4,3.1,27.8,6.2V404L333,404z"/>
</svg>
