<?xml version="1.0" encoding="UTF-8"?>
<svg width="22px" height="22px" viewBox="0 0 22 22" version="1.1" xmlns="http://www.w3.org/2000/svg" xmlns:xlink="http://www.w3.org/1999/xlink">
    <!-- Generator: Sketch 53.2 (72643) - https://sketchapp.com -->
    <title>interface-information copy</title>
    <desc>Created with Sketch.</desc>
    <g id="Page-1" stroke="none" stroke-width="1" fill="none" fill-rule="evenodd">
        <g id="View-Plans-" transform="translate(-382.000000, -351.000000)" fill="#F1AE16" fill-rule="nonzero">
            <g id="Warning-Alert" transform="translate(255.000000, 337.000000)">
                <g id="Group-31" transform="translate(127.000000, 14.000000)">
                    <g id="interface-information-copy">
                        <g id="Line_Icons">
                            <g id="Group">
                                <path d="M10.9126984,21.8253968 C4.89543651,21.8253968 0,16.9310516 0,10.9126984 C0,4.89652778 4.89543651,0 10.9126984,0 C16.9299603,0 21.8253968,4.89543651 21.8253968,10.9126984 C21.8253968,16.9310516 16.9299603,21.8253968 10.9126984,21.8253968 Z M10.9126984,2.18253968 C6.09910714,2.18253968 2.18253968,6.09910714 2.18253968,10.9126984 C2.18253968,15.7262897 6.09910714,19.6428571 10.9126984,19.6428571 C15.7262897,19.6428571 19.6428571,15.7262897 19.6428571,10.9126984 C19.6428571,6.09910714 15.7262897,2.18253968 10.9126984,2.18253968 Z" id="Shape"></path>
                                <path d="M12.0039683,14.1865079 L12.0039683,9.82142857 C12.0039683,9.21904762 11.5161706,8.73015873 10.9126984,8.73015873 L8.73015873,8.73015873 L8.73015873,10.9126984 L9.82142857,10.9126984 L9.82142857,14.1865079 L7.63888889,14.1865079 L7.63888889,16.3690476 L14.1865079,16.3690476 L14.1865079,14.1865079 L12.0039683,14.1865079 Z" id="Shape"></path>
                                <circle id="Oval" cx="10.9126984" cy="6.54761905" r="1.3640873"></circle>
                            </g>
                        </g>
                    </g>
                </g>
            </g>
        </g>
    </g>
</svg>