<?xml version="1.0" encoding="utf-8"?>
<!-- Generator: Adobe Illustrator 21.1.0, SVG Export Plug-In . SVG Version: 6.00 Build 0)  -->
<svg version="1.1" id="Layer_1" xmlns="http://www.w3.org/2000/svg" xmlns:xlink="http://www.w3.org/1999/xlink" x="0px" y="0px"
	 viewBox="0 0 512 512" style="enable-background:new 0 0 512 512;" xml:space="preserve">
<g>
	<path d="M297,254.4c15.8,15.8,15.8,41.4,0,57.2c-15.8,15.8-41.4,15.8-57.2,0c-15.8-15.8-15.8-41.4,0-57.2
		C255.6,238.6,281.2,238.6,297,254.4"/>
	<path d="M430.1,80.8h-53.9V0h-53.9v80.8H214.5V0h-53.9v80.8h-53.9c-29.7,0-53.9,24.1-53.9,53.9v80.8
		c0,109.7,82.5,200.4,188.6,213.7V512h53.9v-82.7C401.5,416,484,325.3,484,215.6v-80.8C484,105,459.8,80.8,430.1,80.8L430.1,80.8z
		 M430.1,134.7v26.9H106.7v-26.9H430.1z M268.4,377.3c-89.2,0-161.7-72.5-161.7-161.7h323.4C430.1,304.7,357.6,377.3,268.4,377.3z"
		/>
</g>
</svg>
