<?xml version="1.0" encoding="utf-8"?>
<!-- Generator: Adobe Illustrator 21.1.0, SVG Export Plug-In . SVG Version: 6.00 Build 0)  -->
<svg version="1.1" id="Layer_1" xmlns="http://www.w3.org/2000/svg" xmlns:xlink="http://www.w3.org/1999/xlink" x="0px" y="0px"
	 viewBox="0 0 512 512" style="enable-background:new 0 0 512 512;" xml:space="preserve">
<g id="Account-Settings">
	<g id="Account-Setting-General-Copy" transform="translate(-1105.000000, -267.000000)">
		<g id="Group-5">
			<g id="Group-9" transform="translate(1105.000000, 267.000000)">
				<path id="_x24_" d="M324.3,182.4c0,23.8-17.9,42.5-54.4,45.7v19.7h-23.6v-19.5c-26.1-2-44.9-10.6-58.6-22.5l19.1-23.4
					c9.4,8.5,22.8,15.8,39.5,18.4v-34c-25.6-5.4-53.4-14.1-53.4-43.4c0-22.1,20.1-40.7,53.4-43.6V59.7h23.6v20.6
					c20.1,1.7,37,8.7,50.4,19.3l-19.6,22.5c-8.7-7.2-19.6-11.7-30.8-14.1v30.3C295.7,144.3,324.3,152.9,324.3,182.4z M229.2,120.9
					c0,6.7,7.9,10.4,19.4,13v-27.5C235.9,107.4,229.2,113.1,229.2,120.9z M267.7,201.5c14.1-1.7,20.6-8.5,20.6-15.6
					c0-8-8.7-11.7-20.6-14.7V201.5z"/>
				<path id="Combined-Shape" d="M192.8,332L25.6,225.7v260.7h460.8V225.7L325.5,330.5l103,103c3.3,3.3,3.3,8.7,0,12.1
					c-3.3,3.3-8.7,3.3-12.1,0L259.9,289.1L103.4,445.6c-3.3,3.3-8.7,3.3-12.1,0c-3.3-3.3-3.3-8.7,0-12.1l0,0L192.8,332z M214,310.9
					l37.8-37.8c0.4-0.9,1-1.8,1.8-2.5c1.8-1.8,4.1-2.6,6.4-2.5c2.3-0.1,4.7,0.7,6.4,2.5c0.8,0.8,1.3,1.6,1.8,2.5l34.5,34.5
					l106.7-68.7V25.6H102.2v213.3L214,310.9z M435,147.9l64.9,35.6l0,0c3.1,1.7,5.5,4.1,7.2,6.9c3,2.3,4.9,6,4.9,10.1v298.7
					c0,3.5-1.4,6.7-3.7,9.1c-2.3,2.3-5.5,3.7-9.1,3.7H12.8c-3.5,0-6.7-1.4-9.1-3.7c-2.3-2.3-3.7-5.5-3.7-9.1l0,0V200.5
					c0-3.8,1.6-7.1,4.2-9.5c0.2-0.4,0.4-0.7,0.6-1.1c1.7-2.7,4.2-5,7-6.5l0,0l64.7-34.7V20.4C76.6,6.8,83.1,0,96,0
					c19.4,0,304.6,0,321.8,0C429.3,0,435,6.8,435,20.3V147.9z"/>
			</g>
		</g>
	</g>
</g>
</svg>
