<?xml version="1.0" encoding="utf-8"?>
<!-- Generator: Adobe Illustrator 22.0.1, SVG Export Plug-In . SVG Version: 6.00 Build 0)  -->
<svg version="1.1" id="Layer_1" xmlns="http://www.w3.org/2000/svg" xmlns:xlink="http://www.w3.org/1999/xlink" x="0px" y="0px"
	 viewBox="0 0 512 512" style="enable-background:new 0 0 512 512;" xml:space="preserve">
<title>Italics</title>
<desc>Created with Sketch.</desc>
<g id="Page-1">
	<path id="italics-1" d="M440.2,0l-10.5,34.6c-7.5,0.2-17.2,1.3-29.2,3.2c-12,1.9-20.9,3.7-26.7,5.4c-10.1,3.1-17.3,7.9-21.6,14.4
		s-7.5,13.6-9.4,21.3l-80.3,358.5c-0.5,1.7-0.8,3.6-1.1,5.8s-0.4,4.1-0.4,5.8c0,5.5,1.2,10.2,3.6,14.1s6.7,7.2,13,10.1
		c3.6,1.7,11.5,3.7,23.8,6s21.4,3.7,27.4,4.1l-6.6,28.7H71.5l5.9-32.3c6.7-0.5,16.4-1.2,28.9-2.2s21.4-2.4,26.7-4.3
		c9.4-3.4,16.5-8,21.3-13.9c4.8-5.9,8.1-13,9.7-21.5L247.8,79c0.5-2.2,0.8-4.3,1.1-6.5c0.2-2.2,0.4-4.3,0.4-6.5c0-4.8-1-9-3.1-12.6
		s-6.3-6.9-12.8-9.7c-6.5-2.9-15.3-5.6-26.5-8.1c-11.2-2.5-19.4-4-24.7-4.5l7.3-31H440.2z"/>
</g>
</svg>