<?xml version="1.0" encoding="utf-8"?>
<!-- Generator: Adobe Illustrator 21.1.0, SVG Export Plug-In . SVG Version: 6.00 Build 0)  -->
<svg version="1.1" id="Layer_1" xmlns="http://www.w3.org/2000/svg" xmlns:xlink="http://www.w3.org/1999/xlink" x="0px" y="0px"
	 viewBox="0 0 512 512" style="enable-background:new 0 0 512 512;" xml:space="preserve">
<g>
	<path d="M300.8,2.2c-21.6,8-34.8,30.6-34.8,59.3c0,20.8,4.8,34.3,15.7,43.9c11.9,10.4,24.4,11.6,39.8,4
		c15.2-7.6,23.9-19.5,29.2-39.4C361.5,27.6,334-9.6,300.8,2.2z"/>
	<path d="M264,145.9c-26.3,5.5-55.2,27.7-81.3,62.9c-18.4,24.6-26.6,41.9-23,48.5c1.4,2.6,4,4.7,6,4.7c1.7,0,11.3-12.4,21.5-27.5
		c10.2-15,21.5-29.9,25.3-33.2c14.2-12,25.4-4,20.2,15c-1.1,5-14,47.4-27.9,94.3c-30.3,100.8-36.5,127.3-36.8,156.4
		c0,18.2,0.7,22.6,5.4,29.9c11,17.7,34.9,19.9,63.5,6c39.2-19.5,95.3-86.6,92.9-111.2c-0.5-4.8-1.8-7.6-4-7.6
		c-3.5,0-6.9,4-31.5,38.2c-21.3,29.3-35,34.2-35,12.1c0-5.3,12.4-53.1,27.2-106.7c14.9-53.6,28.5-104,29.9-112.5
		c3.7-19.7,1.7-43.2-4.2-53.1C303.7,147.8,285.5,141.7,264,145.9z"/>
</g>
</svg>
