<?xml version="1.0" encoding="utf-8"?>
<!-- Generator: Adobe Illustrator 21.0.0, SVG Export Plug-In . SVG Version: 6.00 Build 0)  -->
<svg version="1.1" id="Layer_1" xmlns="http://www.w3.org/2000/svg" xmlns:xlink="http://www.w3.org/1999/xlink" x="0px" y="0px"
	 viewBox="0 0 512 512" style="enable-background:new 0 0 512 512;" xml:space="preserve">
<g>
	<path d="M257.5,0.2V0c-0.5,0-0.9,0.1-1.5,0.1c-0.5,0-0.9-0.1-1.4-0.1v0.2c-81.9,1.6-147.9,68.4-147.9,150.7
		c0,77.1,55.6,93.3,78.9,141.7c21.5,44.6-2,141.5,24,141.5h92.9c26,0,2.5-96.9,24-141.5c23.3-48.5,79-64.6,79-141.7
		C405.5,68.6,339.4,1.7,257.5,0.2z M309.7,253.5c-43.6,45.6-48.8,107.3-52.6,107.3h-1c-4.1,0-7.8-52.4-53.6-107.3
		c-26.3-31.3-60.2-49.2-60.2-107.9c0-62.7,50.3-113.6,112.6-114.8v-0.1c0.4,0,0.8,0,1.1,0c0.4,0,0.8,0,1.1,0v0.1
		c62.5,1.2,112.6,52.1,112.6,114.8C369.8,204.2,338,223.9,309.7,253.5z"/>
	<path d="M298,94.1h-83.6c-6.8,0-12.4,5.5-12.4,12.4c0,6.9,5.5,12.4,12.4,12.4H298c6.8,0,12.4-5.5,12.4-12.4
		C310.4,99.6,304.7,94.1,298,94.1z"/>
	<path d="M298,131h-83.6c-6.8,0-12.4,5.5-12.4,12.4s5.5,12.3,12.4,12.3H298c6.8,0,12.4-5.5,12.4-12.4C310.3,136.5,304.7,131,298,131
		z"/>
	<path d="M298,168h-83.6c-6.8,0-12.4,5.5-12.4,12.4s5.5,12.4,12.4,12.4H298c6.8,0,12.4-5.5,12.4-12.4S304.7,168,298,168z"/>
	<path d="M300.2,447.2h-88.4c-6.8,0-12.4,5.5-12.4,12.4v40c0,6.8,5.5,12.4,12.4,12.4h88.4c6.8,0,12.4-5.5,12.4-12.4v-40
		C312.5,452.6,307,447.2,300.2,447.2z"/>
</g>
</svg>
