<?xml version="1.0" encoding="utf-8"?>
<!-- Generator: Adobe Illustrator 21.1.0, SVG Export Plug-In . SVG Version: 6.00 Build 0)  -->
<svg version="1.1" id="Layer_1" xmlns="http://www.w3.org/2000/svg" xmlns:xlink="http://www.w3.org/1999/xlink" x="0px" y="0px"
	 viewBox="0 0 512 512" style="enable-background:new 0 0 512 512;" xml:space="preserve">
<g id="Editor">
	<g id="Add-Variables-_x3E_-Variables-list-Copy" transform="translate(-1415.000000, -257.000000)">
		<path id="Combined-Shape" d="M1739.3,396.4c0-0.7,0-1.4,0-2.1c0-33.4,0-65.5,0-101.4c0-23.9,11.4-35.9,34.1-35.9h8.6h85.3h10.1
			c21.7,0,32.6,12.1,32.6,36.4c0,36.4,0,64.6,0,99.5c0,23.2-11.5,34.8-34.4,34.8h-8.4h-64.3l0.9,0.9l-201.2,201.2
			c0.1,1.6,0.2,3.3,0.2,5c0,36.4,0,64.6,0,99.5c0,23.2-11.5,34.8-34.4,34.8h-8.4h-85.2h-8.6c-22.7,0-34.1-11.1-34.1-33.4
			c0-33.4,0-65.5,0-101.4c0-23.9,11.4-35.9,34.1-35.9h8.6h64.4l-0.9-0.9L1739.3,396.4z M1790.5,376.5h68.3v-68.3h-68.3V376.5z
			 M1483.3,717.8h68.3v-68.3h-68.3V717.8z"/>
	</g>
</g>
</svg>
