<?xml version="1.0" encoding="utf-8"?>
<!-- Generator: Adobe Illustrator 21.0.0, SVG Export Plug-In . SVG Version: 6.00 Build 0)  -->
<svg version="1.1" id="Layer_1" xmlns="http://www.w3.org/2000/svg" xmlns:xlink="http://www.w3.org/1999/xlink" x="0px" y="0px"
	 viewBox="0 0 512 512.8" style="enable-background:new 0 0 512 512.8;" xml:space="preserve">
<style type="text/css">
	.st0{fill:#010101;}
</style>
<g>
	<g>
		<path class="st0" d="M454.9,262.6c-50.3-50.3-98.8-68.5-148.4-47.3l61,61.5c14.7,4.2,29.4,13.9,44.4,28.9
			c38.1,38,43.1,74.3,4.9,112.5s-74.4,33.2-112.5-4.9c-16.8-16.8-27.2-33.3-30.2-49.7c-19-18.9-48.5-48.3-58.9-58.5
			c-23.2,50.5-5.2,100,46.2,151.3c68.4,68.5,133.7,77.6,202.5,8.8C532.4,396.3,523.3,331,454.9,262.6z"/>
		<path class="st0" d="M100.2,207.1C62.1,169,57.1,132.8,95.3,94.6s74.4-33.2,112.5,4.9c15.9,15.9,26,31.5,29.5,47.1l60.2,59.7
			c22.1-49.9,4-99-46.8-149.8C182.3-12,117.1-21.1,48.3,47.6c-68.8,68.8-59.7,134,8.8,202.5C108,301,156.9,319,207,296.9l-59.7-60.2
			C131.7,233.1,116.1,223,100.2,207.1z"/>
		<path class="st0" d="M365.2,289.1L223.3,147.2c-5.5-1.8-11.1-2.9-16.9-2.9c-18.7,0-35,9.6-43.3,17.9c-13,13-23,37.2-15.2,60.1
			l142,142c5.5,1.8,11.1,2.9,16.9,2.9c18.7,0,35-9.6,43.3-17.9C362.9,336.3,373.1,312.1,365.2,289.1z"/>
	</g>
</g>
</svg>
