<?xml version="1.0" encoding="utf-8"?>
<!-- Generator: Adobe Illustrator 21.0.0, SVG Export Plug-In . SVG Version: 6.00 Build 0)  -->
<svg version="1.1" id="Layer_1" xmlns="http://www.w3.org/2000/svg" xmlns:xlink="http://www.w3.org/1999/xlink" x="0px" y="0px"
	 viewBox="0 0 512 512" style="enable-background:new 0 0 512 512;" xml:space="preserve">
<g>
	<path d="M8.4,170.1h106.1v341.4H8.4C8.4,511.5,8.4,170.1,8.4,170.1z M61.6,0.3c33.9,0,61.5,27.6,61.5,61.5
		c0,34-27.6,61.6-61.5,61.6C27.6,123.4,0,95.8,0,61.8C0,28,27.5,0.3,61.6,0.3"/>
	<path d="M181.2,170.1h101.8v46.7h1.4c14.1-26.8,48.8-55.1,100.4-55.1c107.5,0,127.3,70.7,127.3,162.7v187.3H405.9V345.6
		c0-39.6-0.7-90.6-55.1-90.6c-55.2,0-63.7,43.1-63.7,87.7v169H181V170.1H181.2z"/>
</g>
</svg>
