<?xml version="1.0" encoding="utf-8"?>
<!-- Generator: Adobe Illustrator 21.1.0, SVG Export Plug-In . SVG Version: 6.00 Build 0)  -->
<svg version="1.1" id="Layer_1" xmlns="http://www.w3.org/2000/svg" xmlns:xlink="http://www.w3.org/1999/xlink" x="0px" y="0px"
	 viewBox="0 0 512 512" style="enable-background:new 0 0 512 512;" xml:space="preserve">
<g>
	<path d="M76.8,0C34.5,0,0,34.4,0,76.8s34.5,76.8,76.8,76.8s76.8-34.5,76.8-76.8S119.1,0,76.8,0z M76.8,102.4
		c-14.1,0-25.6-11.5-25.6-25.6s11.5-25.6,25.6-25.6c14.1,0,25.6,11.5,25.6,25.6S90.9,102.4,76.8,102.4z"/>
	<g transform="translate(2, 9)">
		<path id="path-1" d="M76.8,179.2C34.5,179.2,0,213.7,0,256s34.5,76.8,76.8,76.8s76.8-34.5,76.8-76.8S119.1,179.2,76.8,179.2z
			 M76.8,281.6c-14.1,0-25.6-11.5-25.6-25.6c0-14.1,11.5-25.6,25.6-25.6c14.1,0,25.6,11.5,25.6,25.6
			C102.4,270.1,90.9,281.6,76.8,281.6z"/>
	</g>
	<g transform="translate(2, 16)">
		<path id="path-1_1_" d="M76.8,358.4C34.5,358.4,0,392.9,0,435.2S34.5,512,76.8,512s76.8-34.5,76.8-76.8S119.1,358.4,76.8,358.4z
			 M76.8,460.8c-14.1,0-25.6-11.5-25.6-25.6c0-14.1,11.5-25.6,25.6-25.6c14.1,0,25.6,11.5,25.6,25.6
			C102.4,449.3,90.9,460.8,76.8,460.8z"/>
	</g>
	<g transform="translate(10, 4)">
		<path id="path-2" d="M204.8,51.2H512v51.2H204.8V51.2z"/>
	</g>
	<g transform="translate(10, 11)">
		<path id="path-2_1_" d="M204.8,230.4H512v51.2H204.8V230.4z"/>
	</g>
	<g transform="translate(10, 18)">
		<path id="path-2_2_" d="M204.8,409.6H512v51.2H204.8V409.6z"/>
	</g>
</g>
</svg>
