<?xml version="1.0" encoding="utf-8"?>
<!-- Generator: Adobe Illustrator 21.1.0, SVG Export Plug-In . SVG Version: 6.00 Build 0)  -->
<svg version="1.1" id="Layer_1" xmlns="http://www.w3.org/2000/svg" xmlns:xlink="http://www.w3.org/1999/xlink" x="0px" y="0px"
	 viewBox="0 0 512 512" style="enable-background:new 0 0 512 512;" xml:space="preserve">
<g>
	<g transform="translate(8, 4)">
		<path id="path-1" d="M137.5,52.7h368.7v52.7H137.5V52.7z"/>
	</g>
	<g transform="translate(8, 11)">
		<path id="path-1_1_" d="M137.5,237h368.7v52.7H137.5V237z"/>
	</g>
	<g transform="translate(8, 18)">
		<path id="path-1_2_" d="M137.5,421.4h368.7V474H137.5V421.4z"/>
	</g>
	<path d="M40.6,49.2v94.8h28.8V14.4c0-5.8-3.5-11.1-8.9-13.3c-5.4-2.3-11.6-1-15.7,3.1l-39,39l20.4,20.4
		C26.2,63.6,40.6,49.2,40.6,49.2z"/>
	<path d="M45.3,184.3c-21.8,0-39.5,17.7-39.5,39.5V237h26.3v-13.2c0-7.3,5.9-13.2,13.2-13.2c7.3,0,13.2,5.9,13.2,13.2
		c0,12.9-25.4,46.2-48.8,69.7c-3.8,3.8-4.9,9.4-2.8,14.4c2,5,6.8,8.1,12.1,8.1h65.8v-26.3H49c16.4-19.3,35.9-46.4,35.9-65.8
		C84.8,202.1,67.1,184.3,45.3,184.3z"/>
	<path d="M45.3,380.3l-39.5,0l0,26.3l39.5,0c7.2,0,13.2,5.9,13.2,13.2S52.6,433,45.3,433l0,0H32.2v26.3h13.2l0,0
		c7.2,0,13.2,5.9,13.2,13.2c0,7.3-5.9,13.2-13.2,13.2H5.8l0,26.3h39.5c21.8,0,39.5-17.7,39.5-39.5c0-10.1-3.8-19.4-10.1-26.3
		c6.3-7,10.1-16.2,10.1-26.3C84.8,398.1,67.1,380.3,45.3,380.3z"/>
</g>
</svg>
