<?xml version="1.0" encoding="utf-8"?>
<!-- Generator: Adobe Illustrator 21.1.0, SVG Export Plug-In . SVG Version: 6.00 Build 0)  -->
<svg version="1.1" id="Layer_1" xmlns="http://www.w3.org/2000/svg" xmlns:xlink="http://www.w3.org/1999/xlink" x="0px" y="0px"
	 viewBox="0 0 512 512" style="enable-background:new 0 0 512 512;" xml:space="preserve">
<g id="Library">
	<g id="Content-Library---Sections" transform="translate(-214.000000, -312.000000)">
		<g id="lock-1-copy" transform="translate(214.000000, 312.000000)">
			<g id="Line_Icons">
				<g id="Group">
					<circle id="Oval" cx="256" cy="355.6" r="42.7"/>
					<path id="Shape" d="M412.4,199.1v-56.9C412.4,63.8,334.4,0,256,0S99.6,63.8,99.6,142.2v56.9c-56.9,0-56.9,0-56.9,29.5v254.9
						c0,28.4,0,28.4,28.4,28.4h370.4c27.8,0,27.8,0,27.8-28.4V228.7C469.3,197.3,469.3,199.1,412.4,199.1z M156.5,142.2
						c0-47,40.1-84.6,99.5-84.6s99.5,37.6,99.5,84.6v56.9H156.5V142.2z M99.6,455.1V256h312.9l0.1,199.1H99.6z"/>
				</g>
			</g>
		</g>
	</g>
</g>
</svg>
