<?xml version="1.0" encoding="utf-8"?>
<!-- Generator: Adobe Illustrator 21.1.0, SVG Export Plug-In . SVG Version: 6.00 Build 0)  -->
<svg version="1.1" id="Layer_1" xmlns="http://www.w3.org/2000/svg" xmlns:xlink="http://www.w3.org/1999/xlink" x="0px" y="0px"
	 viewBox="0 0 512 512" style="enable-background:new 0 0 512 512;" xml:space="preserve">
<g>
	<path d="M490.7,170.7H320c-11.8,0-21.3,9.6-21.3,21.3v64h42.7v-42.7H384v213.3h-42.7v42.7h128v-42.7h-42.7V213.3h42.7V256H512v-64
		C512,180.2,502.4,170.7,490.7,170.7z"/>
	<path d="M192,85.3h106.7V128h42.7V64c0-11.8-9.6-21.3-21.3-21.3H21.3C9.6,42.7,0,52.2,0,64v64h42.7V85.3h106.7v341.3h-64v42.7H256
		v-42.7h-64V85.3z"/>
</g>
</svg>
