<?xml version="1.0" encoding="utf-8"?>
<!-- Generator: Adobe Illustrator 21.0.0, SVG Export Plug-In . SVG Version: 6.00 Build 0)  -->
<svg version="1.1" id="Layer_1" xmlns="http://www.w3.org/2000/svg" xmlns:xlink="http://www.w3.org/1999/xlink" x="0px" y="0px"
	 viewBox="0 0 512 512" style="enable-background:new 0 0 512 512;" xml:space="preserve">
<g>
	<path d="M365.1,54.7H201.2V0h-54.8v36.6H183v127.9h-18.9V54.7h-17.2c-50.8,0-92,41.2-92,92v127.5h402.1V146.6
		C457.1,95.8,415.9,54.7,365.1,54.7z M438.7,256h-146V145.7c0-40.3,32.7-73,73-73c40.3,0,73,32.7,73,73V256z"/>
	<path d="M420.8,146.2v91.5H311v-91.5c0-30.3,24.6-54.9,54.9-54.9C396.2,91.3,420.8,115.9,420.8,146.2z"/>
	<path d="M110.1,512v-18.3H165c0,0,12.6-41.9-36.8-73.2c0,0,58.5,5.7,73.2,73.2c0,0,13-75.5-54.8-128c0,0,77.8,26.9,91.3,127.9
		V292.5h37v201.1c13.5-100.9,91.3-127.9,91.3-127.9c-67.8,52.5-54.8,128-54.8,128c14.7-67.5,73.2-73.2,73.2-73.2
		c-49.4,31.3-36.8,73.2-36.8,73.2h54.9V512"/>
</g>
</svg>
