<?xml version="1.0" encoding="utf-8"?>
<!-- Generator: Adobe Illustrator 21.0.0, SVG Export Plug-In . SVG Version: 6.00 Build 0)  -->
<svg version="1.1" id="Layer_1" xmlns="http://www.w3.org/2000/svg" xmlns:xlink="http://www.w3.org/1999/xlink" x="0px" y="0px"
	 viewBox="0 0 512 512" style="enable-background:new 0 0 512 512;" xml:space="preserve">
<style type="text/css">
	.st0{display:none;}
</style>
<rect x="79" y="210.5" class="st0" width="198" height="87"/>
<path d="M414.6,158.6C414.6,71,343.6,0,256,0S97.4,71,97.4,158.6c0,19.8,3.8,38.7,10.4,56.2h-0.1l0.3,0.6
	c3.7,9.5,8.2,18.6,13.5,27.2L256,512l134.4-269.4c5.4-8.6,9.9-17.6,13.6-27.2l0.3-0.6h-0.1C410.8,197.3,414.6,178.4,414.6,158.6z
	 M256,240.3c-43.4,0-78.5-35.2-78.5-78.5s35.2-78.5,78.5-78.5s78.5,35.2,78.5,78.5S299.4,240.3,256,240.3z"/>
</svg>
