<?xml version="1.0" encoding="utf-8"?>
<!-- Generator: Adobe Illustrator 21.1.0, SVG Export Plug-In . SVG Version: 6.00 Build 0)  -->
<svg version="1.1" id="Layer_1" xmlns="http://www.w3.org/2000/svg" xmlns:xlink="http://www.w3.org/1999/xlink" x="0px" y="0px"
	 viewBox="0 0 512 512" style="enable-background:new 0 0 512 512;" xml:space="preserve">
<path d="M257,0C115.7,0,1,114.7,1,256s114.7,256,256,256s256-114.7,256-256S398.3,0,257,0z M405.6,288.5c0,3.3-1.4,6.7-3.9,10.3
	c-2.6,3.5-6.1,5.4-10.5,5.4H122.9c-9.7,0-14.4-5.2-14.4-15.7v-66.5c0-9.5,4.8-14.4,14.4-14.4h268.3c3.9,0,7.4,1.2,10.1,3.8
	c2.9,2.5,4.2,6,4.2,10.6v66.3H405.6z"/>
</svg>
