<?xml version="1.0" encoding="utf-8"?>
<!-- Generator: Adobe Illustrator 21.1.0, SVG Export Plug-In . SVG Version: 6.00 Build 0)  -->
<svg version="1.1" id="Layer_1" xmlns="http://www.w3.org/2000/svg" xmlns:xlink="http://www.w3.org/1999/xlink" x="0px" y="0px"
	 viewBox="0 0 512 512" style="enable-background:new 0 0 512 512;" xml:space="preserve">
<g id="Send-Festure">
	<path id="Combined-Shape" d="M145.8,0h223.6c25,0,37.6,14.2,37.6,42.5c0,42.5,0,396.6,0,430.5c0,22.6-12.5,35.6-37.6,39
		c-121.8,0-196.4,0-223.6,0S105,499,105,473c0-260.7,0-404.2,0-430.5S118.6,2,145.8,0z M135,53v381h242V53H135z M256,494
		c11.6,0,21-9.4,21-21s-9.4-21-21-21c-11.6,0-21,9.4-21,21S244.4,494,256,494z"/>
</g>
</svg>
