<?xml version="1.0" encoding="utf-8"?>
<!-- Generator: Adobe Illustrator 21.1.0, SVG Export Plug-In . SVG Version: 6.00 Build 0)  -->
<svg version="1.1" id="Layer_1" xmlns="http://www.w3.org/2000/svg" xmlns:xlink="http://www.w3.org/1999/xlink" x="0px" y="0px"
	 viewBox="0 0 512 512" style="enable-background:new 0 0 512 512;" xml:space="preserve">
<g>
	<path d="M180.6,111V63.8H96l30.5-30.5L93.2,0L5.7,87.4l87.4,87.4l33.4-33.4L96,111H180.6z"/>
	<path d="M447.5,348.1l-54.6-18.2v-77.3c0-13-10.6-23.6-23.6-23.6h-70.8c-13,0-23.6,10.6-23.6,23.6v117.9h-23.6
		c-8.2,0-15.8,4.2-20.1,11.2c-4.3,7-4.7,15.6-1,23l47.2,94.3c4,8,12.2,13,21.1,13H440c13,0,23.6-10.5,23.6-23.6V370.5
		C463.6,360.3,457.1,351.3,447.5,348.1z M416.5,464.8H313.1l-23.6-47.2h9c13,0,23.6-10.5,23.6-23.6V276.1h23.6v70.8
		c0,10.2,6.5,19.2,16.1,22.4l54.6,18.2V464.8z"/>
	<path d="M333.9,158.2c60.8,0,112.8,41.3,126.4,100.4l45.9-10.6c-18.6-80.6-89.5-137-172.4-137s-153.8,56.3-172.4,137l45.9,10.6
		C221.1,199.5,273.1,158.2,333.9,158.2z"/>
</g>
</svg>
