<?xml version="1.0" encoding="UTF-8"?>
<svg width="40px" height="40px" viewBox="0 0 40 40" version="1.1" xmlns="http://www.w3.org/2000/svg" xmlns:xlink="http://www.w3.org/1999/xlink">
    <!-- Generator: Sketch 52.6 (67491) - http://www.bohemiancoding.com/sketch -->
    <title>outline-videocam-40px</title>
    <desc>Created with Sketch.</desc>
    <g id="Gmail" stroke="none" stroke-width="1" fill="none" fill-rule="evenodd">
        <g id="Icon" transform="translate(-230.000000, -155.000000)">
            <g id="outline-videocam-40px" transform="translate(230.000000, 155.000000)">
                <g id="Bounding_Boxes" fill="#FFFFFF" fill-opacity="0.01">
                    <polygon id="Shape" points="0 0 40 0 40 40 0 40"></polygon>
                </g>
                <g id="Outline" transform="translate(5.000000, 10.000000)" fill="#737373" fill-rule="nonzero">
                    <path d="M20,3.33333333 L20,16.6666667 L3.33333333,16.6666667 L3.33333333,3.33333333 L20,3.33333333 Z M21.6666667,0 L1.66666667,0 C0.75,0 0,0.75 0,1.66666667 L0,18.3333333 C0,19.25 0.75,20 1.66666667,20 L21.6666667,20 C22.5833333,20 23.3333333,19.25 23.3333333,18.3333333 L23.3333333,12.5 L30,19.1666667 L30,0.833333333 L23.3333333,7.5 L23.3333333,1.66666667 C23.3333333,0.75 22.5833333,0 21.6666667,0 Z" id="Shape"></path>
                </g>
            </g>
        </g>
    </g>
</svg>