<?xml version="1.0" encoding="utf-8"?>
<!-- Generator: Adobe Illustrator 21.1.0, SVG Export Plug-In . SVG Version: 6.00 Build 0)  -->
<svg version="1.1" id="Layer_1" xmlns="http://www.w3.org/2000/svg" xmlns:xlink="http://www.w3.org/1999/xlink" x="0px" y="0px"
	 viewBox="0 0 512 512" style="enable-background:new 0 0 512 512;" xml:space="preserve">
<g id="Page-1">
	<g id="Page-Flow-icon">
		<path id="Combined-Shape" d="M189.2,233.6h-77.9c-6.2,0-11.1-5-11.1-11.1V0h11.1v217c0,3,2.5,5.6,5.6,5.6l0,0h72.3V233.6z
			 M322.8,233.6h77.9c6.2,0,11.1-5,11.1-11.1V0h-11.1v217l0,0c0,3-2.5,5.6-5.6,5.6h-72.3V233.6z"/>
		<rect id="Rectangle-5" x="144.7" y="133.5" width="222.6" height="22.3"/>
		<rect id="Rectangle-5_1_" x="144.7" y="89" width="222.6" height="22.3"/>
		<path id="Rectangle-5_2_" d="M155.8,0h44.5c6.2,0,11.1,5,11.1,11.1v44.5c0,6.2-5,11.1-11.1,11.1h-44.5c-6.2,0-11.1-5-11.1-11.1
			V11.1C144.7,5,149.7,0,155.8,0z"/>
		<rect id="Rectangle-5_3_" x="233.7" y="44.5" width="133.6" height="22.3"/>
		<rect id="Rectangle-5_4_" x="233.7" width="133.6" height="22.3"/>
		<path id="Combined-Shape_1_" d="M322.8,278.3h77.9c6.2,0,11.1,5,11.1,11.1V512h-11.1V295l0,0c0-3-2.5-5.6-5.6-5.6h-72.3V278.3z
			 M189.2,278.3h-77.9c-6.2,0-11.1,5-11.1,11.1V512h11.1V295c0-3,2.5-5.6,5.6-5.6l0,0h72.3V278.3z"/>
		<rect id="Rectangle-5_5_" x="144.7" y="445.2" width="222.6" height="22.3"/>
		<rect id="Rectangle-5_6_" x="144.7" y="489.7" width="222.6" height="22.3"/>
		<rect id="Rectangle-5_7_" x="233.7" y="400.7" width="133.6" height="22.3"/>
		<rect id="Rectangle-5_8_" x="233.7" y="356.2" width="133.6" height="22.3"/>
		<path id="Rectangle-5_9_" d="M155.8,356.2h44.5c6.2,0,11.1,5,11.1,11.1v44.5c0,6.2-5,11.1-11.1,11.1h-44.5
			c-6.2,0-11.1-5-11.1-11.1v-44.5C144.7,361.1,149.7,356.2,155.8,356.2z"/>
		<path id="Combined-Shape_2_" d="M233.7,264.3h-22.3l35.9,43.4c0.4,0.5,0.9,1,1.4,1.4c4.8,3.9,11.7,3.2,15.7-1.4l0,0l35.9-43.4
			h-22.3v-75.2H256h-22.3V264.3z"/>
	</g>
</g>
</svg>
