<?xml version="1.0" encoding="utf-8"?>
<!-- Generator: Adobe Illustrator 21.1.0, SVG Export Plug-In . SVG Version: 6.00 Build 0)  -->
<svg version="1.1" id="Layer_1" xmlns="http://www.w3.org/2000/svg" xmlns:xlink="http://www.w3.org/1999/xlink" x="0px" y="0px"
	 viewBox="0 0 512 512" style="enable-background:new 0 0 512 512;" xml:space="preserve">
<g id="Templates">
	<g id="Pageflow_small">
		<path id="Combined-Shape" d="M307.2,273.1V68.3H204.8v204.8h-68.3L256,409.6l119.5-136.5H307.2z"/>
		<path id="Combined-Shape_1_" d="M34.1,0v170.7h443.7V0H512v204.8H0V0H34.1z M477.9,512V341.3H34.1V512H0V307.2h512V512H477.9z
			 M102.4,307.2h307.2v34.1H102.4V307.2z M136.5,170.7h238.9v34.1H136.5V170.7z M68.3,0h136.5v34.1H68.3V0z M307.2,0h136.5v34.1
			H307.2V0z M68.3,68.3h102.4v34.1H68.3V68.3z M341.3,68.3h102.4v34.1H341.3V68.3z M68.3,409.6h102.4v34.1H68.3V409.6z M341.3,409.6
			h102.4v34.1H341.3V409.6z M68.3,477.9h136.5V512H68.3V477.9z M307.2,477.9h136.5V512H307.2V477.9z"/>
	</g>
</g>
</svg>
