<?xml version="1.0" encoding="UTF-8"?>
<svg width="29px" height="30px" viewBox="0 0 29 30" version="1.1" xmlns="http://www.w3.org/2000/svg" xmlns:xlink="http://www.w3.org/1999/xlink">
    <!-- Generator: Sketch 53.2 (72643) - https://sketchapp.com -->
    <title>Partner icon</title>
    <desc>Created with Sketch.</desc>
    <defs>
        <polygon id="path-1" points="0.0009 -3.55271368e-15 28.9729 -3.55271368e-15 28.9729 29.6577 0.0009 29.6577"></polygon>
    </defs>
    <g id="Page-1" stroke="none" stroke-width="1" fill="none" fill-rule="evenodd">
        <g id="First-billing---no-paid-seats-(billing-update)" transform="translate(-15.000000, -462.000000)">
            <g id="-Main-Nav">
                <g id="icons" transform="translate(15.000000, 92.000000)">
                    <g id="Partner-icon" transform="translate(0.000000, 370.000000)">
                        <mask id="mask-2" fill="white">
                            <use xlink:href="#path-1"></use>
                        </mask>
                        <g id="Clip-2"></g>
                        <path d="M28.6049,18.49 C28.8489,19.283 28.9729,20.124 28.9729,20.993 C28.9729,25.777 25.0929,29.658 20.3089,29.658 C15.5259,29.658 11.6449,25.777 11.6449,20.993 C11.6449,16.209 15.5259,12.329 20.3089,12.329 C21.1369,12.329 21.9369,12.448 22.6879,12.663 C22.5059,13.15 22.4099,13.678 22.4099,14.227 C22.4099,15.861 23.2719,17.294 24.5649,18.094 C24.5729,18.1 24.5859,18.107 24.5929,18.114 C24.6419,18.163 24.6979,18.198 24.7599,18.219 C25.4139,18.58 26.1709,18.789 26.9709,18.789 C27.5479,18.789 28.0979,18.684 28.6049,18.49 L28.6049,18.49 Z M19.2729,15.486 C19.0719,15.695 19.0719,16.021 19.2729,16.223 C19.3769,16.328 19.5099,16.377 19.6419,16.377 C19.7819,16.377 19.9139,16.328 20.0099,16.223 L21.3389,14.902 C21.5409,14.7 21.5409,14.366 21.3389,14.165 C21.1299,13.963 20.8029,13.963 20.6019,14.165 L19.2729,15.486 Z M15.0939,15.778 C14.8929,15.979 14.8929,16.313 15.0939,16.515 L16.4219,17.837 C16.5269,17.941 16.6589,17.989 16.7909,17.989 C16.9229,17.989 17.0549,17.941 17.1599,17.837 C17.3609,17.635 17.3609,17.308 17.1599,17.099 L15.8379,15.778 C15.6289,15.576 15.3029,15.576 15.0939,15.778 L15.0939,15.778 Z M14.0859,22.022 L15.4069,20.694 C15.6159,20.493 15.6159,20.166 15.4069,19.957 C15.2059,19.756 14.8779,19.756 14.6699,19.957 L13.3489,21.286 C13.1469,21.487 13.1469,21.813 13.3489,22.022 C13.4469,22.12 13.5849,22.176 13.7169,22.176 C13.8499,22.176 13.9819,22.12 14.0859,22.022 L14.0859,22.022 Z M17.1599,26.236 C17.3689,26.035 17.3689,25.701 17.1599,25.5 L15.8379,24.178 C15.6359,23.969 15.3029,23.969 15.1009,24.178 C14.8999,24.38 14.8999,24.707 15.1009,24.915 L16.4219,26.236 C16.5269,26.341 16.6589,26.389 16.7909,26.389 C16.9299,26.389 17.0619,26.341 17.1599,26.236 L17.1599,26.236 Z M21.3389,26.528 C21.5409,26.327 21.5409,25.993 21.3389,25.792 C21.1299,25.59 20.8029,25.59 20.6019,25.792 L19.2729,27.12 C19.0719,27.321 19.0719,27.648 19.2729,27.856 C19.3769,27.954 19.5099,28.01 19.6419,28.01 C19.7819,28.01 19.9139,27.954 20.0099,27.856 L21.3389,26.528 Z M20.3089,24.275 C22.1249,24.275 23.5909,22.802 23.5909,20.993 C23.5909,19.178 22.1249,17.711 20.3089,17.711 C18.4949,17.711 17.0279,19.178 17.0279,20.993 C17.0279,22.802 18.4949,24.275 20.3089,24.275 L20.3089,24.275 Z M25.5519,26.236 C25.7609,26.035 25.7609,25.701 25.5519,25.5 L24.2319,24.178 C24.0299,23.969 23.6959,23.969 23.4949,24.178 C23.2929,24.38 23.2929,24.707 23.4949,24.915 L24.8159,26.236 C24.9189,26.341 25.0519,26.389 25.1839,26.389 C25.3229,26.389 25.4559,26.341 25.5519,26.236 L25.5519,26.236 Z M27.1719,20.694 C27.3749,20.493 27.3749,20.166 27.1719,19.957 C26.9639,19.756 26.6369,19.756 26.4359,19.957 L25.1079,21.286 C24.9059,21.487 24.9059,21.813 25.1079,22.022 C25.2109,22.12 25.3439,22.176 25.4759,22.176 C25.6159,22.176 25.7479,22.12 25.8439,22.022 L27.1719,20.694 Z M3.3109,5.815 L3.7659,9.144 L17.2649,9.144 L17.7169,5.815 L3.3109,5.815 Z M4.2509,0.908 L3.6099,2.197 L10.3459,2.197 L9.7709,3.1 L2.3229,3.1 L1.4299,4.901 L19.5939,4.907 L18.7059,3.107 L15.5069,3.107 L14.9329,2.197 L17.4319,2.197 L16.7799,0.908 L4.2509,0.908 Z M11.8279,26.276 L5.2859,26.276 L4.5719,21.231 L3.6339,21.231 L2.1449,9.144 L2.8629,9.144 L2.3949,5.815 L0.0009,5.815 L1.8729,2.197 L2.5909,2.197 L3.7469,-3.55271368e-15 L17.2819,-3.55271368e-15 L18.4399,2.197 L19.1589,2.197 L21.0339,5.815 L18.6379,5.815 L18.1719,9.144 L18.8839,9.144 L18.6359,11.158 C13.9169,11.945 10.3139,16.052 10.3139,20.993 C10.3139,21.069 10.3149,21.145 10.3169,21.22 L5.4429,21.22 L6.0019,25.366 L11.3229,25.366 C11.4749,25.678 11.6439,25.982 11.8279,26.276 L11.8279,26.276 Z" id="Fill-1" fill="#668C98" mask="url(#mask-2)"></path>
                    </g>
                </g>
            </g>
        </g>
    </g>
</svg>