<?xml version="1.0" encoding="utf-8"?>
<!-- Generator: Adobe Illustrator 21.1.0, SVG Export Plug-In . SVG Version: 6.00 Build 0)  -->
<svg version="1.1" id="Layer_1" xmlns="http://www.w3.org/2000/svg" xmlns:xlink="http://www.w3.org/1999/xlink" x="0px" y="0px"
	 viewBox="0 0 512 512" style="enable-background:new 0 0 512 512;" xml:space="preserve">
<g>
	<path d="M320,64v22.4c-24.3,4.9-42.7,26.5-42.7,52.3c0,29.4,23.9,53.3,53.3,53.3H352c5.9,0,10.7,4.8,10.7,10.7s-4.8,10.7-10.7,10.7
		h-32v64h42.7v-22.4c24.3-4.9,42.7-26.5,42.7-52.3c0-29.4-23.9-53.3-53.3-53.3h-21.3c-5.9,0-10.7-4.8-10.7-10.7s4.8-10.7,10.7-10.7
		h74.7V85.3h-42.7V64H320z"/>
	<path d="M405.3,384c0,11.8-9.6,21.3-21.3,21.3H277.3V448h85.3c0,11.8-9.6,21.3-21.3,21.3H179.5L128,417.8V307.5l51.5-51.5H256v21.3
		c0,11.8-9.6,21.3-21.3,21.3H192v42.7h42.7c35.3,0,64-28.7,64-64v-42.7c0-11.8-9.5-21.3-21.3-21.3H170.7c-5.7,0-11.1,2.2-15.1,6.3
		l-39.1,39.1c-3-1.6-6.2-2.7-9.8-2.7H21.3C9.5,256,0,265.6,0,277.3V448c0,11.8,9.5,21.3,21.3,21.3h85.3c3.6,0,6.8-1.1,9.8-2.7
		l39.1,39.1c4,4,9.4,6.2,15.1,6.2h170.7c35.3,0,64-28.7,64-64v-3.9c24.8-8.8,42.7-32.3,42.7-60.1v-21.3h-42.7V384L405.3,384z
		 M85.3,426.7H42.7v-128h42.7V426.7z"/>
	<path d="M341.3,0c-94.1,0-170.7,76.6-170.7,170.7c0,7.2,0.6,14.3,1.5,21.3h43.1c-1.2-7-1.9-14.1-1.9-21.3c0-70.6,57.4-128,128-128
		s128,57.4,128,128c0,70.6-57.4,128-128,128c-7.3,0-14.4-0.7-21.3-1.9v43.1c7,0.9,14.1,1.5,21.3,1.5c94.1,0,170.7-76.6,170.7-170.7
		C512,76.6,435.4,0,341.3,0z"/>
</g>
</svg>
