<?xml version="1.0" encoding="utf-8"?>
<!-- Generator: Adobe Illustrator 21.1.0, SVG Export Plug-In . SVG Version: 6.00 Build 0)  -->
<svg version="1.1" id="Layer_1" xmlns="http://www.w3.org/2000/svg" xmlns:xlink="http://www.w3.org/1999/xlink" x="0px" y="0px"
	 viewBox="0 0 512 512" style="enable-background:new 0 0 512 512;" xml:space="preserve">
<g id="Proposal-Settings">
	<g id="Payment-icon-Copy">
		<rect id="Rectangle" x="26" y="130.5" width="460" height="76.8"/>
		<path id="Combined-Shape" d="M294.4,387.3c-35.3,0-64-28.7-64-64s28.7-64,64-64s64,28.7,64,64S329.7,387.3,294.4,387.3z
			 M294.4,355.3c17.7,0,32-14.3,32-32c0-17.7-14.3-32-32-32c-17.7,0-32,14.3-32,32C262.4,341,276.7,355.3,294.4,355.3z"/>
		<circle id="Oval-Copy" cx="396.8" cy="323.3" r="64"/>
		<rect id="Rectangle-Copy" x="76.8" y="310.5" width="102.4" height="25.6"/>
		<path id="Combined-Shape_1_" d="M0,54.5h512v410H0V54.5z M26,79.5v360h460v-360H26z"/>
	</g>
</g>
</svg>
