<?xml version="1.0" encoding="utf-8"?>
<!-- Generator: Adobe Illustrator 21.0.0, SVG Export Plug-In . SVG Version: 6.00 Build 0)  -->
<svg version="1.1" id="Layer_1" xmlns="http://www.w3.org/2000/svg" xmlns:xlink="http://www.w3.org/1999/xlink" x="0px" y="0px"
	 viewBox="0 0 512 512" style="enable-background:new 0 0 512 512;" xml:space="preserve">
<g>
	<path d="M451,153.5v-18.1L300.5,0v0.5H107.1C81.6,0.5,60.9,21,60.9,46.6v419.3c0,25.4,20.7,46.1,46.2,46.1h297.9
		c25.5,0,46.2-20.7,46.2-46.2L451,153.5L451,153.5L451,153.5z M409.9,465.8c0,2.7-2.3,5.1-5.1,5.1H107.1c-2.8,0-5.2-2.4-5.2-5.1
		V46.6c0-2.8,2.3-5.1,5.2-5.1h193.4v112.1h109.6L409.9,465.8L409.9,465.8z"/>
	<path d="M271.5,210.4c0.3-16.2-4.8-24.5-7.3-27.3c-4.4-5.8-11.6-9.3-19-9.2c-3.2,0-6.1,0.6-9,1.5c-7.9,2.5-14.1,8.6-17.4,16.2
		c-2.3,5.2-3,10.8-3,16.5c0.1,17.1,7.1,36.2,14.1,52.2c-7.9,30.8-20.9,67.4-34.4,97.5c-35.6,17.1-56.9,33.1-60.2,54.6
		c-0.2,1-0.2,2.3-0.2,3.3c-0.2,7.9,3.6,18.3,14.3,26.2c4.1,3.2,9.2,4.8,14.4,4.8c13.3-0.2,23.4-9.4,33.9-24
		c7.3-10.2,14.8-23.6,22.5-39.7c23.6-10.1,52.2-19.3,77.3-24.8c14.9,13.5,29,21.4,43.5,21.5c11.3,0.1,22-5.6,28.4-15.1
		c4.2-6,6.9-12.4,6.9-19c0-3.6-0.8-7.3-2.5-10.6c-6.4-11.8-19.7-15.6-35.7-15.5c-8.6,0-18.4,0.9-29.7,2.7
		c-15.6-17.3-31.9-41.5-43.7-65.5C269.8,235.7,271.5,221.1,271.5,210.4z M238.7,340.4c4.9-12.7,9.6-25.8,13.7-38.6
		c6.4,10,13,19.7,19.9,28.3C261.1,333.3,249.7,336.7,238.7,340.4z"/>
</g>
</svg>
