<?xml version="1.0" encoding="utf-8"?>
<!-- Generator: Adobe Illustrator 21.1.0, SVG Export Plug-In . SVG Version: 6.00 Build 0)  -->
<svg version="1.1" id="Layer_1" xmlns="http://www.w3.org/2000/svg" xmlns:xlink="http://www.w3.org/1999/xlink" x="0px" y="0px"
	 viewBox="0 0 512 512" style="enable-background:new 0 0 512 512;" xml:space="preserve">
<g id="Editor">
	<g id="Add-Variables-_x3E_-Variables-list-Copy" transform="translate(-1414.000000, -337.000000)">
		<g id="Group-11" transform="translate(1410.000000, 336.000000)">
			
				<g id="Group-5" transform="translate(11.172287, 10.606602) rotate(45.000000) translate(-11.172287, -10.606602) translate(5.672287, 1.106602)">
				<path id="Combined-Shape" d="M352.9,222.9c4.1,5,6.6,11.4,6.6,18.4c0,15.6-12.3,28.2-27.7,28.8c-0.4,1-0.8,2-1.1,3
					c-0.4-1-0.8-2-1.2-3c-15.4-0.6-27.6-13.3-27.6-28.8c0-6.5,2.2-12.6,5.8-17.4c-11.6-22-24.4-42.6-38.3-61.9
					c-21.9-30.2-46.7-54.1-75.1-68.8c-4.4-2.3-5.5-9.3-4.4-11.8c18.9-42.2,28.3-79.6,28.3-112.1c0-29.9-2.3-59.9-7-89.8
					c-0.7-4.5,0-13.6,12.7-13.6c8.2,0,75.8,0,210.3,0c10.7,0,11.9,10.3,10.7,15.7C439.1-92.3,440-63,440-30.6
					c0,36.7,10.3,74.2,31,112.4c1.3,2.5,0,9-4.4,12.2c-28.1,20.5-54.4,40-75.8,68.1C377,180.2,364.4,200.4,352.9,222.9z M257.6-76.3
					c0,19.8,0,39.6,0,59.4S252,32.9,240.9,73c15.2,13,30.9,27.5,47.1,43.5c16.2,16,30.4,31.7,42.7,47.1c14-18.3,27.5-34,40.5-47.1
					c13-13.1,29.7-27.6,50.2-43.5C405,35.6,396.8,5.6,396.8-16.8s0-42.3,0-59.4H257.6z"/>
				<path id="Combined-Shape_1_" d="M316.3,64.2c-8.6-5-14.4-14.3-14.4-25c0-15.9,12.9-28.9,28.9-28.9c15.9,0,28.9,12.9,28.9,28.9
					c0,10.7-5.8,20-14.4,25v148.2h-28.9V64.2z"/>
				<path id="Rectangle-2" d="M229-220.6c13.8,0,175.3,0,190.5,0c10.1,0,15.1,5.6,15.1,16.9v25.9c0,10-5,14.9-15.1,14.9
					c-15.1,0-175,0-189.6,0c-9.8,0-14.7-4.3-14.7-13v-31.3C215.2-216.1,219.8-220.6,229-220.6z"/>
			</g>
			<path id="Rectangle-3" d="M79.2,490.8c21-35.7,54.3-53.4,99.8-53.1c68.2,0.4,110.6,47.9,162.6,48.5c20.4,0.3,52.4-7.9,95.9-24.7
				c6-0.5,10.2,0.5,12.5,3c3.5,3.7,4.8,9.6,1.9,12.1c-2.8,2.6-27.5,28-102.3,35.6c-74.8,7.6-110.4-49.3-170.7-50.7
				c-40.2-1-72.1,10.4-95.8,34c-1.9,0.8-3.3,0.8-3.9,0C78.5,494.8,78.5,493.2,79.2,490.8z"/>
		</g>
	</g>
</g>
</svg>
