<?xml version="1.0" encoding="utf-8"?>
<!-- Generator: Adobe Illustrator 21.1.0, SVG Export Plug-In . SVG Version: 6.00 Build 0)  -->
<svg version="1.1" id="Layer_1" xmlns="http://www.w3.org/2000/svg" xmlns:xlink="http://www.w3.org/1999/xlink" x="0px" y="0px"
	 viewBox="0 0 512 512" style="enable-background:new 0 0 512 512;" xml:space="preserve">
<g id="Account-Settings">
	<g id="Account-Setting-General-Copy" transform="translate(-199.000000, -251.000000)">
		<g id="Group-20" transform="translate(199.000000, 251.000000)">
			<g id="Group-21">
				<circle id="Oval-3" cx="50.4" cy="486.8" r="25.2"/>
				<circle id="Oval-3-Copy" cx="461.6" cy="486.8" r="25.2"/>
				<path id="Combined-Shape" d="M486.8,482.6h-50.4c0-99.7-80.8-180.5-180.5-180.5S75.5,383,75.5,482.6l-50.4,0
					c0-97.9,60.9-181.6,147-215.1c-38.1-26.5-63-70.7-63-120.6C109.1,65.8,174.9,0,256,0s146.9,65.8,146.9,146.9
					c0,50-24.9,94.1-63,120.6C425.9,301.1,486.8,384.7,486.8,482.6z M256,243.4c53.3,0,96.5-43.2,96.5-96.5S309.3,50.4,256,50.4
					s-96.5,43.2-96.5,96.5S202.7,243.4,256,243.4z"/>
			</g>
		</g>
	</g>
</g>
</svg>
