<?xml version="1.0" encoding="utf-8"?>
<!-- Generator: Adobe Illustrator 21.1.0, SVG Export Plug-In . SVG Version: 6.00 Build 0)  -->
<svg version="1.1" id="Layer_1" xmlns="http://www.w3.org/2000/svg" xmlns:xlink="http://www.w3.org/1999/xlink" x="0px" y="0px"
	 viewBox="0 0 512 512" style="enable-background:new 0 0 512 512;" xml:space="preserve">
<g>
	<path d="M435.2,281.6H230.4V76.8c0-7.3-3.1-14.3-8.7-19.2c-5.5-4.9-12.8-7.1-20.1-6.2C86.7,65.8,0,164.7,0,281.6
		C0,408.6,103.3,512,230.4,512c116.9,0,215.9-86.7,230.2-201.6c0.9-7.3-1.4-14.6-6.2-20.1C449.5,284.7,442.5,281.6,435.2,281.6
		L435.2,281.6z M230.4,460.8c-98.8,0-179.2-80.4-179.2-179.2c0-81,53.3-151,128-173.3v198.9c0,14.1,11.4,25.6,25.6,25.6h198.9
		C381.4,407.5,311.4,460.8,230.4,460.8z"/>
	<path d="M281.6,0C267.4,0,256,11.5,256,25.6v204.8c0,14.1,11.4,25.6,25.6,25.6h204.8c14.2,0,25.6-11.5,25.6-25.6
		C512,103.4,408.7,0,281.6,0z M307.2,204.8V53c78.4,11.2,140.5,73.4,151.8,151.8H307.2z"/>
</g>
</svg>
