<?xml version="1.0" encoding="UTF-8"?>
<svg width="512px" height="512px" viewBox="0 0 512 512" version="1.1" xmlns="http://www.w3.org/2000/svg" xmlns:xlink="http://www.w3.org/1999/xlink">
    <!-- Generator: Sketch 52.3 (67297) - http://www.bohemiancoding.com/sketch -->
    <title>Artboard Copy</title>
    <desc>Created with Sketch.</desc>
    <g id="Artboard-Copy" stroke="none" stroke-width="1" fill="none" fill-rule="evenodd">
        <g id="noun_Planning_442369" transform="translate(0.000000, 41.000000)" fill="#000000" fill-rule="nonzero">
            <path d="M353.17551,159.946939 C365.714286,159.946939 376.163265,149.497959 376.163265,136.959184 L376.163265,23.5877551 C376.163265,11.0489796 365.714286,0.6 353.17551,0.6 L277.942857,0.6 L234.057143,0.6 L158.82449,0.6 C146.285714,0.6 135.836735,11.0489796 135.836735,23.5877551 L135.836735,136.959184 C135.836735,149.497959 146.285714,159.946939 158.82449,159.946939 L241.371429,159.946939 L241.371429,208.534694 L65.3061224,208.534694 C56.9469388,208.534694 50.677551,215.326531 50.677551,223.163265 L50.677551,270.706122 L79.9346939,270.706122 L79.9346939,237.791837 L240.84898,237.791837 L240.84898,270.706122 L270.106122,270.706122 L270.106122,237.791837 L431.020408,237.791837 L431.020408,270.706122 L460.277551,270.706122 L460.277551,223.163265 C460.277551,214.804082 453.485714,208.534694 445.64898,208.534694 L270.628571,208.534694 L270.628571,159.946939 L353.17551,159.946939 Z M293.616327,80.0122449 C293.616327,71.1306122 300.930612,63.8163265 309.812245,63.8163265 C318.693878,63.8163265 326.008163,71.1306122 326.008163,80.0122449 C326.008163,88.8938776 318.693878,96.2081633 309.812245,96.2081633 C300.930612,96.2081633 293.616327,88.8938776 293.616327,80.0122449 Z M218.383673,80.0122449 C218.383673,88.8938776 211.069388,96.2081633 202.187755,96.2081633 C193.306122,96.2081633 185.991837,88.8938776 185.991837,80.0122449 C185.991837,71.1306122 193.306122,63.8163265 202.187755,63.8163265 C211.069388,63.8163265 218.383673,71.1306122 218.383673,80.0122449 Z M256,96.2081633 C247.118367,96.2081633 239.804082,88.8938776 239.804082,80.0122449 C239.804082,71.1306122 247.118367,63.8163265 256,63.8163265 C264.881633,63.8163265 272.195918,71.1306122 272.195918,80.0122449 C272.195918,88.8938776 264.881633,96.2081633 256,96.2081633 Z M321.828571,321.383673 L321.828571,399.228571 C321.828571,413.857143 309.812245,425.873469 295.183673,425.873469 L216.816327,425.873469 C202.187755,425.873469 190.171429,413.857143 190.171429,399.228571 L190.171429,321.383673 C190.171429,306.755102 202.187755,294.738776 216.816327,294.738776 L294.661224,294.738776 C309.812245,294.738776 321.828571,306.755102 321.828571,321.383673 Z M512,321.383673 L512,399.228571 C512,413.857143 499.983673,425.873469 485.355102,425.873469 L407.510204,425.873469 C392.881633,425.873469 380.865306,413.857143 380.865306,399.228571 L380.865306,321.383673 C380.865306,306.755102 392.881633,294.738776 407.510204,294.738776 L485.355102,294.738776 C499.983673,294.738776 512,306.755102 512,321.383673 Z M131.134694,321.383673 L131.134694,399.228571 C131.134694,413.857143 119.118367,425.873469 104.489796,425.873469 L26.644898,425.873469 C12.0163265,425.873469 0,413.857143 0,399.228571 L0,321.383673 C0,306.755102 12.0163265,294.738776 26.644898,294.738776 L104.489796,294.738776 C119.118367,294.738776 131.134694,306.755102 131.134694,321.383673 Z" id="Shape"></path>
        </g>
    </g>
</svg>