<?xml version="1.0" encoding="UTF-8"?>
<svg width="24px" height="22px" viewBox="0 0 24 22" version="1.1" xmlns="http://www.w3.org/2000/svg" xmlns:xlink="http://www.w3.org/1999/xlink">
    <!-- Generator: Sketch 52.4 (67378) - http://www.bohemiancoding.com/sketch -->
    <title></title>
    <desc>Created with Sketch.</desc>
    <g id="Trial-Plan-User" stroke="none" stroke-width="1" fill="none" fill-rule="evenodd">
        <path d="M14.9999642,14.7500125 L14.9999642,12.5000179 L23.9999428,12.5000179 L23.9999428,19.2500018 C23.9999428,19.8437506 23.7733811,20.3671864 23.3202569,20.8203105 C22.8671327,21.2734347 22.343697,21.4999964 21.7499481,21.4999964 L2.24999464,21.4999964 C1.65624581,21.4999964 1.13281004,21.2734347 0.679685879,20.8203105 C0.226561721,20.3671864 0,19.8437506 0,19.2500018 L0,12.5000179 L8.99997854,12.5000179 L8.99997854,14.7500125 C8.99997854,14.9687622 9.07029087,15.1484491 9.21091554,15.2890737 C9.3515402,15.4296984 9.53122704,15.5000107 9.74997675,15.5000107 L14.249966,15.5000107 C14.4687157,15.5000107 14.6484026,15.4296984 14.7890272,15.2890737 C14.9296519,15.1484491 14.9999642,14.9687622 14.9999642,14.7500125 Z M21.7499481,5.00003576 C22.343697,5.00003576 22.8671327,5.22659748 23.3202569,5.67972164 C23.7733811,6.1328458 23.9999428,6.65628158 23.9999428,7.2500304 L23.9999428,11.0000215 L0,11.0000215 L0,7.2500304 C0,6.65628158 0.226561721,6.1328458 0.679685879,5.67972164 C1.13281004,5.22659748 1.65624581,5.00003576 2.24999464,5.00003576 L5.99998569,5.00003576 L5.99998569,2.75004113 C5.99998569,2.1562923 6.22654742,1.63285653 6.67967157,1.17973237 C7.13279573,0.726608213 7.65623151,0.500046492 8.24998033,0.500046492 L15.7499624,0.500046492 C16.3437113,0.500046492 16.867147,0.726608213 17.3202712,1.17973237 C17.7733954,1.63285653 17.9999571,2.1562923 17.9999571,2.75004113 L17.9999571,5.00003576 L21.7499481,5.00003576 Z M14.9999642,5.00003576 L14.9999642,3.50003934 L8.99997854,3.50003934 L8.99997854,5.00003576 L14.9999642,5.00003576 Z" id="" fill="#668C98"></path>
    </g>
</svg>