<?xml version="1.0" encoding="utf-8"?>
<!-- Generator: Adobe Illustrator 21.1.0, SVG Export Plug-In . SVG Version: 6.00 Build 0)  -->
<svg version="1.1" id="Layer_1" xmlns="http://www.w3.org/2000/svg" xmlns:xlink="http://www.w3.org/1999/xlink" x="0px" y="0px"
	 viewBox="0 0 512 512" style="enable-background:new 0 0 512 512;" xml:space="preserve">
<g id="Resource">
	<g id="podcast">
		<path id="Combined-Shape" d="M158.4,312.5c-22.7-24-36.5-56.3-36.5-91.8c0-73.9,60.1-133.9,134.4-133.9s134.4,59.9,134.4,133.9
			c0,34.7-13.3,66.4-35,90.1c-6-7.7-13.7-14.9-23.4-21.1c16.7-18.2,26.9-42.4,26.9-69c0-56.5-46-102.3-102.7-102.3
			s-102.7,45.8-102.7,102.3c0,26.8,10.3,51.2,27.3,69.5C171.4,296.7,164.4,304.5,158.4,312.5z M140.3,408.6
			C77,369.7,34.9,300.1,34.9,220.7C34.9,98.9,134,0.2,256.1,0.2s221.3,98.7,221.3,220.5c0,79.4-42.2,149.2-105.4,188
			c1.6-13.7,2.5-27.4,2.2-39.9c43.6-34.6,71.6-88,71.6-148c0-104.4-84.9-189-189.6-189S66.5,116.3,66.5,220.7
			c0,60.8,28.8,114.9,73.5,149.5C139.2,382.5,139.3,395.7,140.3,408.6z M256.1,271.1c-27.9,0-50.5-22.6-50.5-50.4
			s22.6-50.4,50.5-50.4c27.9,0,50.5,22.6,50.5,50.4S284.1,271.1,256.1,271.1z M177.2,341.5c12.4-19.3,31.7-34.1,80.7-34.1
			s73.5,18.8,82.6,41.7c9.2,23-2,75.5-9.5,107.9c-5.1,21.6-13.8,39.9-26.3,55.1h-95.4c-14.2-21.7-23.8-44-28.7-66.7
			C173.3,411.2,164.7,360.7,177.2,341.5z"/>
	</g>
</g>
</svg>
