<?xml version="1.0" encoding="utf-8"?>
<!-- Generator: Adobe Illustrator 21.1.0, SVG Export Plug-In . SVG Version: 6.00 Build 0)  -->
<svg version="1.1" id="Layer_1" xmlns="http://www.w3.org/2000/svg" xmlns:xlink="http://www.w3.org/1999/xlink" x="0px" y="0px"
	 viewBox="0 0 512 512" style="enable-background:new 0 0 512 512;" xml:space="preserve">
<g id="Account-Settings">
	<g id="Account-Setting-General-Copy" transform="translate(-724.000000, -456.000000)">
		<g id="Group-5">
			<g id="Group-12" transform="translate(723.000000, 456.000000)">
				<path id="Combined-Shape" d="M208.6,364.5c-95,0-178.5,0-182,0c-5.5,0-8.2-3-8.2-9v-51.1c-0.8-6.2,1.9-9.3,8.2-9.3
					c9.4,0,451.3,0,460.3,0c6,0,8.9,3.9,8.8,11.7v50.6c0,4.8-2.9,7.2-8.8,7.2c-4,0-100.3,0-203.7,0l86.7,88.2
					c0.1,0.1,0.2,0.2,0.3,0.3c4.5,4.5,4.5,11.8,0,16.3c-4.7,4.7-12.2,4.7-16.9,0l0,0L265.1,381v119.1c0,6.6-5.3,11.9-11.9,11.9
					c-6.6,0-11.9-5.3-11.9-11.9V381L153,469.2c-4.7,4.7-12.2,4.7-16.9,0c-4.7-4.7-4.7-12.2,0-16.9l87.9-87.9H208.6z M40.1,321.1
					v17.4H474v-17.4H40.1z"/>
				<path id="Combined-Shape_1_" d="M34.3,43.4h445.5v277.7H34.3V43.4z M58.2,69.4v225.6h397.7V69.4H58.2z"/>
				<path id="Rectangle-53" d="M105.7,112.8H138c5.1,0,7.7,2.7,7.7,8.1c0,8.1,0,28.3,0,36.8c0,5.7-2.6,8.1-7.7,7.1
					c-16.8,0-27.6,0-32.6,0c-5,0-7.4-2-7.4-6c0-17.8,0-29.9,0-36.4C98,116,100.5,112.8,105.7,112.8z"/>
				<path id="Rectangle-53_1_" d="M194.6,112.8c9.2,0,205.9,0,213.7,0c5.2,0,7.8,3.1,7.8,9.4v35.2c0,5-2.4,7.5-7.4,7.5
					c-7.4,0-205,0-214.2,0c-6.1,0-9.2-2.5-9.2-7.5v-36.4C185.5,115.5,188.5,112.8,194.6,112.8z"/>
				<path id="Rectangle-53_2_" d="M105.2,199.6H138c5.1,0,7.7,3.2,7.7,9.5c0,5.7,0,17.6,0,35.9c0,2.1,0,6.7-5.2,6.7s-24.3,0-33.4,0
					S98,247,98,245c0-18.5,0-30.3,0-35.9C98,202.7,100.4,199.6,105.2,199.6z"/>
				<path id="Rectangle-53_3_" d="M194.7,199.6c9.2,0,203.8,0,212.6,0c5.9,0,8.8,3,8.8,9v35c0,5.3-2.2,8-6.6,8
					c-6.6,0-205.4,0-214.7,0c-6.2,0-9.4-2.5-9.4-7.6V209C185.5,202.7,188.5,199.6,194.7,199.6z"/>
				<path id="Combined-Shape_2_" d="M27.7,0C37,0,478.4,0,487,0c5.8,0,8.7,3,8.7,8.9V61c0,5.6-2.6,8.4-7.9,8.4c-7.9,0-452.5,0-461,0
					c-5.6,0-8.4-2.6-8.4-7.9V8.9C18.4,3,21.5,0,27.7,0z M40.1,26v17.4H474V26H40.1z"/>
			</g>
		</g>
	</g>
</g>
</svg>
