<?xml version="1.0" encoding="utf-8"?>
<!-- Generator: Adobe Illustrator 21.1.0, SVG Export Plug-In . SVG Version: 6.00 Build 0)  -->
<svg version="1.1" id="Layer_1" xmlns="http://www.w3.org/2000/svg" xmlns:xlink="http://www.w3.org/1999/xlink" x="0px" y="0px"
	 viewBox="0 0 512 512" style="enable-background:new 0 0 512 512;" xml:space="preserve">
<g id="Resource_1_">
	<g id="radio">
		<circle id="Oval-6" cx="73.1" cy="438.9" r="73.1"/>
		<path id="Combined-Shape_2_" d="M0,193.5c23.2-6.9,47.7-10.6,73.1-10.6c141.4,0,256,114.6,256,256c0,25.4-3.7,50-10.6,73.1h-77.8
			c9.8-22.4,15.2-47.1,15.2-73.1c0-101-81.9-182.9-182.9-182.9c-26,0-50.7,5.4-73.1,15.2C0,271.2,0,193.5,0,193.5z"/>
		<path id="Combined-Shape_1_" d="M0,6.1C23.8,2.1,48.2,0,73.1,0C315.5,0,512,196.5,512,438.9c0,24.9-2.1,49.4-6.1,73.1h-74.4
			c4.8-23.6,7.3-48.1,7.3-73.1c0-202-163.7-365.7-365.7-365.7c-25,0-49.5,2.5-73.1,7.3V6.1z"/>
	</g>
</g>
</svg>
