<?xml version="1.0" encoding="utf-8"?>
<!-- Generator: Adobe Illustrator 21.1.0, SVG Export Plug-In . SVG Version: 6.00 Build 0)  -->
<svg version="1.1" id="Layer_1" xmlns="http://www.w3.org/2000/svg" xmlns:xlink="http://www.w3.org/1999/xlink" x="0px" y="0px"
	 viewBox="0 0 512 512" style="enable-background:new 0 0 512 512;" xml:space="preserve">
<g>
	<path d="M428.8,174.3l14.6-14.6c12.6-12.6,12.6-32.9,0-45.4s-32.9-12.6-45.4,0l-14.1,14.1C356.4,107.7,323.7,93.5,288,88V64.5h7.5
		c17.8,0,32.2-14.5,32.2-32.2S313.3,0,295.5,0h-79.4c-17.8,0-32.2,14.5-32.2,32.2s14.5,32.2,32.2,32.2h7.7V88
		C121.5,103.6,42.8,191.9,42.8,298.7c0,117.6,95.7,213.3,213.3,213.3s213.2-95.7,213.2-213.3C469.2,252.3,454.2,209.4,428.8,174.3z
		 M255.9,447.7c-82.2,0-149-66.8-149-149s66.8-149,149-149s149,66.8,149,149S338.1,447.7,255.9,447.7z"/>
	<path d="M338.5,299.5L276,283.1v-83.5c0-14.1-11.5-25.8-25.8-25.8c-14.1,0-25.8,11.5-25.8,25.8v103.4c0,11.6,7.9,21.9,19.2,24.8
		l81.6,21.4c2.2,0.6,4.4,0.8,6.6,0.8c11.5,0,21.9-7.7,24.8-19.2C360.3,317.2,352.1,303.1,338.5,299.5z"/>
</g>
</svg>
