<?xml version="1.0" encoding="utf-8"?>
<!-- Generator: Adobe Illustrator 21.1.0, SVG Export Plug-In . SVG Version: 6.00 Build 0)  -->
<svg version="1.1" id="Layer_1" xmlns="http://www.w3.org/2000/svg" xmlns:xlink="http://www.w3.org/1999/xlink" x="0px" y="0px"
	 viewBox="0 0 512 512" style="enable-background:new 0 0 512 512;" xml:space="preserve">
<g>
	<g>
		<path d="M446,278.5c0.4,3.4,0.7,6.8,0.7,10.3c0,40-52.5,63.2-77.7,63.2H128v-64L0,384l128,96v-64h248.5
			c73,0,135.4-69.8,135.4-143.2c0-14.8-2.5-25.2-7.5-39.3L446,278.5z M65.9,233.5c-0.5-3.4-0.7-6.8-0.7-10.3
			c0-40,52.5-63.2,77.7-63.2H384v64l128-96L383.9,32v64H135.4C62.4,96,0,165.8,0,239.4c0,14.8,2.5,25.2,7.5,39.3L65.9,233.5z"/>
	</g>
</g>
</svg>
