<?xml version="1.0" encoding="utf-8"?>
<!-- Generator: Adobe Illustrator 21.1.0, SVG Export Plug-In . SVG Version: 6.00 Build 0)  -->
<svg version="1.1" id="Layer_1" xmlns="http://www.w3.org/2000/svg" xmlns:xlink="http://www.w3.org/1999/xlink" x="0px" y="0px"
	 viewBox="0 0 512 512" style="enable-background:new 0 0 512 512;" xml:space="preserve">
<g id="Account-Settings">
	<g id="Account-Setting-General-Copy_1_" transform="translate(-1115.000000, -445.000000)">
		<g id="Group-14" transform="translate(1115.000000, 445.000000)">
			<path id="Combined-Shape_4_" d="M41,163.8H471l0,0c17,0,30.7,13.8,30.7,30.7v286.7c0,17-13.8,30.7-30.7,30.7H41
				c-17,0-30.7-13.8-30.7-30.7V194.6l0,0C10.2,177.6,24,163.8,41,163.8L41,163.8z M41,194.6v286.7H471V194.6H41z"/>
			<path id="Combined-Shape_3_" d="M144.3,121.9C144.3,54.6,198.9,0,266.2,0s121.9,54.6,121.9,121.9h-36.6
				c0-47.1-38.2-85.3-85.3-85.3s-85.3,38.2-85.3,85.3H144.3z M144.3,121.9h36.6v51.2h-36.6V121.9z M351.6,121.9h36.6v51.2h-36.6
				V121.9z"/>
			<path id="Combined-Shape_2_" d="M245.8,346.9v62.7c0,5.7,4.6,10.2,10.2,10.2s10.2-4.6,10.2-10.2v-62.7
				c17.7-4.5,30.7-20.6,30.7-39.7c0-22.6-18.3-41-41-41s-41,18.3-41,41C215,326.3,228.1,342.3,245.8,346.9z M256,460.8
				c-67.9,0-122.9-55-122.9-122.9S188.1,215,256,215s122.9,55,122.9,122.9S323.9,460.8,256,460.8z"/>
		</g>
	</g>
</g>
</svg>
