<?xml version="1.0" encoding="utf-8"?>
<!-- Generator: Adobe Illustrator 21.1.0, SVG Export Plug-In . SVG Version: 6.00 Build 0)  -->
<svg version="1.1" id="Layer_1" xmlns="http://www.w3.org/2000/svg" xmlns:xlink="http://www.w3.org/1999/xlink" x="0px" y="0px"
	 viewBox="0 0 512 512" style="enable-background:new 0 0 512 512;" xml:space="preserve">
<g>
	<path d="M448,76.8h-51.2V51.2c0-28.2-23-51.2-51.2-51.2H64C35.8,0,12.8,23,12.8,51.2v102.4c0,28.2,23,51.2,51.2,51.2h281.6
		c28.2,0,51.2-23,51.2-51.2V128H448v102.4H217.6c-28.2,0-51.2,23-51.2,51.2v51.2h-25.6v128c0,28.2,23,51.2,51.2,51.2
		s51.2-23,51.2-51.2v-128h-25.6v-51.2H448c28.2,0,51.2-23,51.2-51.2V128C499.2,99.8,476.2,76.8,448,76.8z M64,153.6V51.2h281.6
		l0,102.4H64z"/>
</g>
</svg>
