<?xml version="1.0" encoding="utf-8"?>
<!-- Generator: Adobe Illustrator 22.0.1, SVG Export Plug-In . SVG Version: 6.00 Build 0)  -->
<svg version="1.1" id="Layer_1" xmlns="http://www.w3.org/2000/svg" xmlns:xlink="http://www.w3.org/1999/xlink" x="0px" y="0px"
	 viewBox="0 0 512 512" style="enable-background:new 0 0 512 512;" xml:space="preserve">
<title>Rotate Left</title>
<desc>Created with Sketch.</desc>
<g id="Page-1">
	<path id="rotate-left" d="M163.8,432c2.1-19.5,5.4-27.8,9.1-34.1c56.5,35,131.8,36.6,191.1-2.2c77-50.5,99.3-153.2,50.2-229.7
		c-51.9-80.5-162-103.2-243.1-51.1c-25.1,16.1-43.9,37.2-57.6,61l51.9,32.2L0,292.5L7.4,111l45.1,27.7
		c18.3-32.2,45.1-60.5,78.7-82.1c114.1-73.3,268.2-42.2,342.3,70.5c71.3,108.2,40.5,254.2-68.5,326.3
		c-73.6,48.8-164.3,53.3-239.6,20C164.3,470.5,161.6,451.6,163.8,432z"/>
</g>
</svg>
