<?xml version="1.0" encoding="utf-8"?>
<!-- Generator: Adobe Illustrator 22.0.1, SVG Export Plug-In . SVG Version: 6.00 Build 0)  -->
<svg version="1.1" id="Layer_1" xmlns="http://www.w3.org/2000/svg" xmlns:xlink="http://www.w3.org/1999/xlink" x="0px" y="0px"
	 viewBox="0 0 512 512" style="enable-background:new 0 0 512 512;" xml:space="preserve">
<title>Rotate Right</title>
<desc>Created with Sketch.</desc>
<g id="Page-1">
	<path id="rotate-right" d="M348.2,432c-2.1-19.5-5.4-27.8-9.1-34.1c-56.5,35-131.8,36.6-191.1-2.2c-77-50.5-99.3-153.2-50.2-229.7
		c51.9-80.5,162-103.2,243.1-51.1c25.1,16.1,43.9,37.2,57.6,61l-51.9,32.2L512,292.5L504.6,111l-45.1,27.7
		c-18.3-32.2-45.1-60.5-78.7-82.1C266.7-16.6,112.6,14.4,38.4,127.1c-71.3,108.2-40.5,254.2,68.5,326.3
		c73.6,48.8,164.3,53.3,239.6,20C347.7,470.5,350.4,451.6,348.2,432z"/>
</g>
</svg>
