<?xml version="1.0" encoding="utf-8"?>
<!-- Generator: Adobe Illustrator 21.1.0, SVG Export Plug-In . SVG Version: 6.00 Build 0)  -->
<svg version="1.1" id="Layer_1" xmlns="http://www.w3.org/2000/svg" xmlns:xlink="http://www.w3.org/1999/xlink" x="0px" y="0px"
	 viewBox="0 0 512 512" style="enable-background:new 0 0 512 512;" xml:space="preserve">
<path d="M147.3,292.8l21.8,214L0,374.1l30.4-16.8C16.1,325.1,8.7,290.6,8.7,256.8C8.7,118,121.6,5.1,260.3,5.1S512,118,512,256.8
	c0,37.8-8.7,74.8-26.1,110l-6,12.3l-80.3-44.4l5.2-11.2c10-21.5,15.2-44.1,15.2-66.9c0-87.9-71.6-159.5-159.7-159.5
	s-159.7,71.6-159.7,159.5c0,19,3.5,37.6,10.6,55.8L147.3,292.8z"/>
</svg>
