<?xml version="1.0" encoding="utf-8"?>
<!-- Generator: Adobe Illustrator 21.0.0, SVG Export Plug-In . SVG Version: 6.00 Build 0)  -->
<svg version="1.1" id="Layer_1" xmlns:sketch="http://www.bohemiancoding.com/sketch/ns"
	 xmlns="http://www.w3.org/2000/svg" xmlns:xlink="http://www.w3.org/1999/xlink" x="0px" y="0px" viewBox="0 0 512 512"
	 style="enable-background:new 0 0 512 512;" xml:space="preserve">
<title>Slice 1</title>
<description>Created with Sketch (http://www.bohemiancoding.com/sketch)</description>
<g>
	<path d="M109.7,201.2C109.7,90.1,199.8,0,310.8,0S512,90.1,512,201.2s-90.1,201.2-201.2,201.2c-36.8,0-71.2-9.8-100.9-27.1
		L73.2,512C32.9,512.2,0,479.3,0,439l136.8-136.8C119.5,272.5,109.7,238,109.7,201.2z M438.8,201.2c0-70.7-57.3-128-128-128
		s-128,57.3-128,128s57.4,128,128.2,128S438.8,271.9,438.8,201.2z"/>
</g>
</svg>
