<?xml version="1.0" encoding="utf-8"?>
<!-- Generator: Adobe Illustrator 22.0.1, SVG Export Plug-In . SVG Version: 6.00 Build 0)  -->
<svg version="1.1" id="Layer_1" xmlns="http://www.w3.org/2000/svg" xmlns:xlink="http://www.w3.org/1999/xlink" x="0px" y="0px"
	 viewBox="0 0 512 512" style="enable-background:new 0 0 512 512;" xml:space="preserve">
<g id="Page-1">
	
		<g id="Editor-_x2F_-Table-Pane-_x3E_-Hover-on-a-Row-_x3E_-Move-_x2F_-Add-_x2F_-Delete" transform="translate(-426.000000, -477.000000)">
		<g id="sectionslibrary" transform="translate(426.000000, 477.000000)">
			<path id="Shape" d="M460.8,102.4H249.6l-42.2-30.7c-9.6-12.8-24.9-20.5-41-20.5H51.2C23,51.2,0,74.2,0,102.4v307.2
				c0,28.2,23,51.2,51.2,51.2h409.6c28.2,0,51.2-23,51.2-51.2v-256C512,125.4,489,102.4,460.8,102.4z M51.2,409.6v-160h409.6v160
				H51.2z M51.2,205.1V102.4h115.2l42.2,30.7c8.8,6.4,21.4,20.5,41,20.5h211.2v51.5H51.2z"/>
		</g>
	</g>
</g>
</svg>
