<?xml version="1.0" encoding="utf-8"?>
<!-- Generator: Adobe Illustrator 21.0.0, SVG Export Plug-In . SVG Version: 6.00 Build 0)  -->
<svg version="1.1" id="Layer_2" xmlns="http://www.w3.org/2000/svg" xmlns:xlink="http://www.w3.org/1999/xlink" x="0px" y="0px"
	 viewBox="0 0 512 512" style="enable-background:new 0 0 512 512;" xml:space="preserve">
<style type="text/css">
	.st0{fill:#161616;}
</style>
<path class="st0" d="M460.6-0.2H51C22.7-0.2-0.2,22.8-0.2,51v128c0,28.2,22.9,51.2,51.2,51.2h409.6c28.3,0,51.2-23,51.2-51.2V51
	C511.8,22.8,488.9-0.2,460.6-0.2z M460.2,178.7H51.5V51.4h408.7V178.7z"/>
<path class="st0" d="M460.6,281.6H51c-28.3,0-51.2,23-51.2,51.2v128C-0.2,489,22.7,512,51,512h409.6c28.3,0,51.2-23,51.2-51.2v-128
	C511.8,304.6,488.9,281.6,460.6,281.6z M460.2,460.5H51.5V333.1h408.7V460.5z"/>
</svg>
