<?xml version="1.0" encoding="utf-8"?>
<!-- Generator: Adobe Illustrator 21.1.0, SVG Export Plug-In . SVG Version: 6.00 Build 0)  -->
<svg version="1.1" id="Layer_1" xmlns="http://www.w3.org/2000/svg" xmlns:xlink="http://www.w3.org/1999/xlink" x="0px" y="0px"
	 viewBox="0 0 512 512" style="enable-background:new 0 0 512 512;" xml:space="preserve">
<g>
	<path d="M498,234.6c-120.3-52.2-208-91.3-272.1-119.9C100.7,58.9,67.1,43.9,43.6,43.9c-20.1,0-30,12.2-33.3,16.2
		C-1.9,75.3-3.4,96.7,6.6,113.4L92.2,256L6.6,398.6c-10.1,16.7-8.5,38.1,3.8,53.3c3.3,4,13.1,16.2,33.3,16.2l0,0
		c23.4,0,56.9-15,181.5-70.5c64.2-28.7,152-67.8,272.8-120.2c8.5-3.7,14-12.1,14-21.4C512,246.7,506.5,238.3,498,234.6L498,234.6z
		 M48.5,91.1c18.6,3.8,68.2,25.9,158.4,66.2c44.5,19.8,100.4,44.7,170.3,75.4H132.5l0,0C132.5,232.7,48.5,91.1,48.5,91.1z
		 M206.2,355C114.5,396,65,418,47.3,421.1l85.1-141.9h244.7C306.9,310.1,250.8,335.2,206.2,355L206.2,355z"/>
</g>
</svg>
