<?xml version="1.0" encoding="utf-8"?>
<!-- Generator: Adobe Illustrator 21.1.0, SVG Export Plug-In . SVG Version: 6.00 Build 0)  -->
<svg version="1.1" id="Layer_1" xmlns="http://www.w3.org/2000/svg" xmlns:xlink="http://www.w3.org/1999/xlink" x="0px" y="0px"
	 viewBox="0 0 512 512" style="enable-background:new 0 0 512 512;" xml:space="preserve">
<g>
	<path d="M460.8,363.2V148.9c29.7-10.6,51.2-38.8,51.2-72.1C512,34.5,477.5,0,435.2,0c-33.3,0-61.5,21.5-72.1,51.2H148.9
		C138.3,21.5,110.1,0,76.8,0C34.5,0,0,34.5,0,76.8c0,33.3,21.5,61.5,51.2,72.1v214.3C21.5,373.7,0,401.9,0,435.2
		C0,477.5,34.5,512,76.8,512c33.3,0,61.5-21.5,72.1-51.2h214.2c10.6,29.7,38.8,51.2,72.1,51.2c42.3,0,76.8-34.5,76.8-76.8
		C512,401.9,490.5,373.7,460.8,363.2z M435.2,51.2c14.1,0,25.6,11.5,25.6,25.6c0,14.2-11.5,25.6-25.6,25.6
		c-14.1,0-25.6-11.4-25.6-25.6C409.6,62.7,421.1,51.2,435.2,51.2z M76.8,51.2c14.1,0,25.6,11.5,25.6,25.6
		c0,14.2-11.5,25.6-25.6,25.6S51.2,91,51.2,76.8C51.2,62.7,62.7,51.2,76.8,51.2z M76.8,460.8c-14.1,0-25.6-11.4-25.6-25.6
		c0-14.1,11.5-25.6,25.6-25.6s25.6,11.5,25.6,25.6C102.4,449.4,90.9,460.8,76.8,460.8z M363.1,409.6H148.9
		c-7.7-21.7-24.8-38.8-46.5-46.4V148.9c21.7-7.7,38.8-24.8,46.5-46.5h214.2c7.7,21.7,24.8,38.8,46.5,46.5v214.3
		C387.9,370.8,370.8,387.9,363.1,409.6z M435.2,460.8c-14.1,0-25.6-11.4-25.6-25.6c0-14.1,11.5-25.6,25.6-25.6
		c14.1,0,25.6,11.5,25.6,25.6C460.8,449.4,449.3,460.8,435.2,460.8z"/>
</g>
</svg>
