<?xml version="1.0" encoding="utf-8"?>
<!-- Generator: Adobe Illustrator 23.0.1, SVG Export Plug-In . SVG Version: 6.00 Build 0)  -->
<svg version="1.1" id="Layer_1" xmlns="http://www.w3.org/2000/svg" xmlns:xlink="http://www.w3.org/1999/xlink" x="0px" y="0px"
	 viewBox="0 0 512 512" style="enable-background:new 0 0 512 512;" xml:space="preserve">
<g id="Page-1">
	<g id="Working-artboard" transform="translate(-5610.000000, -3815.000000)">
		<g id="Share-template-icon-Copy" transform="translate(5610.000000, 3815.000000)">
			<path id="Shape" d="M502.6,334.5c-80.1-33.4-138.5-58.4-181.2-76.7c-83.3-35.7-105.8-45.3-121.4-45.3c-13.4,0-20,7.8-22.1,10.3
				c-8.2,9.7-9.2,23.4-2.5,34.1l57,91.2l-57.1,91.2c-6.7,10.7-5.7,24.4,2.5,34.1c2.2,2.6,8.8,10.4,22.2,10.4l0,0
				c15.6,0,37.9-9.6,120.9-45.1c42.8-18.3,101.2-43.4,181.7-76.9c5.7-2.4,9.3-7.7,9.3-13.7S508.3,336.8,502.6,334.5z M203.3,242.6
				c12.4,2.4,45.4,16.6,105.5,42.3c29.6,12.7,66.8,28.6,113.4,48.3h-163l0,0L203.3,242.6z M308.3,411.5
				c-61.1,26.2-94.1,40.3-105.8,42.3l56.7-90.8h163C375.4,382.8,338,398.8,308.3,411.5z"/>
			<rect id="Rectangle-path" x="65.1" y="150.4" width="130.3" height="32.6"/>
			<rect x="65.1" y="215.6" width="74.5" height="32.6"/>
			<path d="M32.6,60.8h162.9v65.1h65.1v81.4h32.6V102.9l-74.7-74.7H32.6C14.6,28.3,0,42.9,0,60.8V354c0,18,14.6,32.6,32.6,32.6
				h130.3V354H32.6V60.8z"/>
		</g>
	</g>
</g>
</svg>
