<?xml version="1.0" encoding="utf-8"?>
<!-- Generator: Adobe Illustrator 22.0.1, SVG Export Plug-In . SVG Version: 6.00 Build 0)  -->
<svg version="1.1" id="Layer_1" xmlns="http://www.w3.org/2000/svg" xmlns:xlink="http://www.w3.org/1999/xlink" x="0px" y="0px"
	 viewBox="0 0 512 512" style="enable-background:new 0 0 512 512;" xml:space="preserve">
<g id="Page-1">
	<path id="Shape" d="M507.3,249.4C435.7,159.9,352.9,94.5,256.2,94.5S71.2,164.1,4.5,249.4L0,255.9l4.5,6.6
		C55.5,331.9,150,417.1,256.2,417.1s189.1-77.9,251.1-154.6l4.7-6.5L507.3,249.4z M256.2,374.1c-52.1,0-128.5-34.4-200.7-118.2
		c51.3-57,116.8-118.4,200.8-118.4s151.2,64.2,200.8,118.4C383.3,340.2,308.3,374.1,256.2,374.1z M258,154.7
		c-51.1,0-103.6,43.8-103.6,101.1s48.8,101,103.6,101c54.7,0,99.2-45.3,99.2-102.7S309.1,154.7,258,154.7z M258,314.2
		c-34.2,0-59.9-26.4-59.9-60s30.2-56.4,59.9-56.4c29.7,0,56.5,26.1,56.5,56.4S292.1,314.2,258,314.2z"/>
</g>
</svg>
