<?xml version="1.0" encoding="UTF-8"?>
<svg width="18px" height="14px" viewBox="0 0 18 14" version="1.1" xmlns="http://www.w3.org/2000/svg" xmlns:xlink="http://www.w3.org/1999/xlink">
    <!-- Generator: Sketch 51.2 (57519) - http://www.bohemiancoding.com/sketch -->
    <title>Initials Icon</title>
    <desc>Created with Sketch.</desc>
    <defs></defs>
    <g id="Page-4" stroke="none" stroke-width="1" fill="none" fill-rule="evenodd">
        <g id="Initials-Icon" fill="#668C98">
            <path d="M6.58300781,7.63574219 L2.72753906,7.63574219 L1.92089844,9.953125 L0.123046875,9.953125 L3.8828125,0 L5.43457031,0 L9.20117188,9.953125 L7.39648438,9.953125 L6.58300781,7.63574219 Z M3.21289062,6.24121094 L6.09765625,6.24121094 L4.65527344,2.11230469 L3.21289062,6.24121094 Z M10.3291016,9.953125 L10.3291016,0 L13.7402344,0 C14.865891,0 15.7226533,0.225583682 16.3105469,0.676757812 C16.8984404,1.12793194 17.1923828,1.80012574 17.1923828,2.69335938 C17.1923828,3.14909082 17.0693372,3.55924297 16.8232422,3.92382812 C16.5771472,4.28841328 16.2171248,4.57096254 15.7431641,4.77148438 C16.2809272,4.91731844 16.6967759,5.19189251 16.9907227,5.59521484 C17.2846694,5.99853717 17.4316406,6.48274457 17.4316406,7.04785156 C17.4316406,7.98210103 17.1320017,8.69986729 16.5327148,9.20117188 C15.933428,9.70247646 15.0755264,9.953125 13.9589844,9.953125 L10.3291016,9.953125 Z M12.0585938,5.46191406 L12.0585938,8.57226562 L13.9794922,8.57226562 C14.5218126,8.57226562 14.9456365,8.43782687 15.2509766,8.16894531 C15.5563166,7.90006376 15.7089844,7.52636958 15.7089844,7.04785156 C15.7089844,6.01334118 15.1803438,5.48470063 14.1230469,5.46191406 L12.0585938,5.46191406 Z M12.0585938,4.19042969 L12.0585938,1.39453125 L13.7402344,1.39453125 C14.3326853,1.39453125 14.7690416,1.50390516 15.0493164,1.72265625 C15.3295912,1.94140734 15.4697266,2.29687254 15.4697266,2.7890625 C15.4697266,3.23567932 15.3181981,3.58089071 15.0151367,3.82470703 C14.7120753,4.06852335 14.2916694,4.19042969 13.7539062,4.19042969 L12.0585938,4.19042969 Z M0,11.953125 L18,11.953125 L18,13.953125 L0,13.953125 L0,11.953125 Z" id="Combined-Shape"></path>
        </g>
    </g>
</svg>