<?xml version="1.0" encoding="utf-8"?>
<!-- Generator: Adobe Illustrator 21.1.0, SVG Export Plug-In . SVG Version: 6.00 Build 0)  -->
<svg version="1.1" id="Layer_1" xmlns="http://www.w3.org/2000/svg" xmlns:xlink="http://www.w3.org/1999/xlink" x="0px" y="0px"
	 viewBox="0 0 512 512" style="enable-background:new 0 0 512 512;" xml:space="preserve">
<style type="text/css">
	.st0{fill:#010101;}
</style>
<g>
	<path class="st0" d="M506.9,341.1l-0.7-4.7c-2.1,0.3-34.9,3.4-504.1,3.4v9.6c261,0,384.4-0.9,442.1-1.7c67.9-0.9,67.9-0.9,67.9-6.6
		H506.9z"/>
	<path class="st0" d="M2.9,333.5c2.1,0,5.6-2.8,22.3-18.6c5,4.8,11.2,10.6,18.4,17.6l6.7-6.9c-7.2-6.9-13-12.5-18.1-17.4
		c5.1-4.9,11.2-10.7,18.4-17.7l-6.7-6.9c-7.5,7.2-13.6,13.1-18.7,17.9C4.7,281.9,3.9,282,1.4,282.8l1.5,4.8L0,291.3
		c0.3,0.2,2.8,2.3,18.2,16.9C3.1,322.5,0.7,324.5,0.4,324.7l2.8,3.9l-1.5,4.5C2.1,333.3,2.5,333.5,2.9,333.5z"/>
	<path class="st0" d="M77.2,339.5c13.2-7,26.2-14.4,37.3-24.5c0.5-0.5,10.3-10.1,10.6-10.4c10.3-10.7,19.8-22.2,28.8-34.1
		c-3.9,11.5-7.3,23.1-11.1,34.6c-2.6,6.3-3.2,12.9-3.1,19.7c0.2,4.5,0.7,7.8,5.9,8c17.2-5.4,30.6-17.5,42.9-29.9
		c6.1-6.6,12.4-13,18.7-19.2c1.5,0.9,2.8,2.3,3.8,3.6c2.8,3.8,5.4,5.9,10.1,6.3c5,0,10-0.8,15-0.1c5.4,1.7,11.1,3.2,16.6,4.6
		c3.2,0.9,6.2,1.9,9.5,2.3c5.9,0.6,14.4,0.3,20,0.2c12.3-0.2,24.6-0.6,36.8-0.8c30.8-0.7,61.6-0.5,92.3-2
		c15.9-0.8,22.3-1.4,37.9-2.8c5.8-0.7,11.7-1.4,17.5-2.1l18-13.4c-5.8,0.8-11.7,1.5-17.5,2.4c-14.3,1.3-23.9,2.5-38.4,3.3
		c-30.6,1.8-61.3,1.8-92,1.8c-12.7,0-22.9,0-35.4-0.1c-2.8,0-14.7-0.2-18.6-0.6c-3.2-0.3-6.2-1.3-9.3-2.1
		c-5.4-1.6-10.9-3.2-16.2-5.1c-5-1.3-10.1-0.4-15.3-0.3c-4.7,0.3-6.1-0.5-9.1-4.4c-0.7-0.8-2.9-3.5-3.7-4.1
		c-10.5-9.1-27.9,8.7-33.6,12.2c-10.5,9.6-20.2,20.2-30.2,30.3c-1.1,1-2,1.9-3,2.9c-0.1-0.9-0.1-1.7-0.1-2
		c-0.2-6.4,0.6-12.6,2.9-18.6c3.6-11.9,7-23.9,11.4-35.4c3.7-9.2,7.4-18.4,11.5-27.4c4.7-10.9,8.9-22,12.6-33.3
		c2.3-7,4.7-14.1,4.1-21.5c-3.4-14.4-24.7,5.9-27.3,15.9c-5.4,11.8-11,23.5-15.9,35.5c-0.8,1.9-5.5,12.8-6.4,14.7
		c-5.1,10.5-11.5,20.5-18.2,30.1c-10.7,14.3-22.1,28.2-34.7,40.8c-5.2,5-10.4,10-16.2,14.5c-1.4,1.1-6.1,4.2-4.5,3.4
		c7.6-3.7,25.7-14.6,15.6-8.5L77.2,339.5z M201.3,283.2C191.5,288.6,196,284.8,201.3,283.2L201.3,283.2z M166.3,317.3
		c-0.5,0.2-0.9,0.5-1.4,0.8C168.9,315.8,170.8,314.8,166.3,317.3z"/>
</g>
</svg>
