<?xml version="1.0" encoding="UTF-8"?>
<svg width="25px" height="25px" viewBox="0 0 25 25" version="1.1" xmlns="http://www.w3.org/2000/svg" xmlns:xlink="http://www.w3.org/1999/xlink">
    <title>00 icons/stages</title>
    <defs>
        <polygon id="path-1" points="0 0.00037037037 25 0.00037037037 25 18.5614815 0 18.5614815"></polygon>
    </defs>
    <g id="00-icons/stages" stroke="none" stroke-width="1" fill="none" fill-rule="evenodd">
        <g id="Group-3" transform="translate(0.000000, 2.000000)">
            <mask id="mask-2" fill="white">
                <use xlink:href="#path-1"></use>
            </mask>
            <g id="Clip-2"></g>
            <path d="M22.6851852,12.2228704 L22.6851852,6.53305556 L22.6888889,6.53490741 L22.6888889,-0.000277777778 L15.2175926,3.28861111 L20.8333333,5.75990741 L20.8333333,12.2237963 C19.7916667,12.5349074 18.9722222,13.3534259 18.662037,14.3950926 L15.5981481,14.3950926 C15.1953704,13.0321296 13.9490741,12.0802778 12.5,12.0802778 C11.0509259,12.0802778 9.80462963,13.0321296 9.40185185,14.3950926 L6.33888889,14.3950926 C5.93611111,13.0321296 4.68981481,12.0802778 3.24074074,12.0802778 C1.4537037,12.0802778 0,13.5339815 0,15.3210185 C0,17.1071296 1.4537037,18.5617593 3.24074074,18.5617593 C4.68981481,18.5617593 5.93611111,17.6089815 6.33888889,16.2469444 L9.40185185,16.2469444 C9.80462963,17.6089815 11.0509259,18.5617593 12.5,18.5617593 C13.9490741,18.5617593 15.1953704,17.6089815 15.5981481,16.2469444 L18.6611111,16.2469444 C19.0638889,17.6089815 20.3101852,18.5617593 21.7592593,18.5617593 C23.5462963,18.5617593 25,17.1071296 25,15.3210185 C25,13.8710185 24.0481481,12.6256481 22.6851852,12.2228704" id="Fill-1" fill="#000000" mask="url(#mask-2)"></path>
        </g>
    </g>
</svg>