<?xml version="1.0" encoding="utf-8"?>
<!-- Generator: Adobe Illustrator 21.0.0, SVG Export Plug-In . SVG Version: 6.00 Build 0)  -->
<svg version="1.1" id="Layer_1" xmlns="http://www.w3.org/2000/svg" xmlns:xlink="http://www.w3.org/1999/xlink" x="0px" y="0px"
	 viewBox="0 0 512 512" style="enable-background:new 0 0 512 512;" xml:space="preserve">
<g>
	<path d="M204.6,273.6c0.4,2,0.7,4,1.2,5.8c2.4,8.9,8.4,14.7,16.2,19.1c6.9,3.8,14.2,5.9,22,7c11.8,1.5,23.4,0.5,34.6-3.8
		c6.3-2.5,12.1-5.7,16.7-10.9c4.9-5.5,7-12,7.4-19.2c0.5-8.6,1-17.3,1.5-25.9c0.5-8.2,1.1-16.5,1.6-24.7c0.3-3.8,0.5-7.6,0.8-11.5
		c0-0.5,0.5-1.2,1-1.5c12.5-8,24.9-16,37.5-23.9c0.5-0.3,1.3-0.4,1.7-0.2c33.8,14.6,67.4,29.3,101.2,44c1.3,0.5,1.6,1.2,1.6,2.6
		c-0.1,9.4,0,18.7,0,28.1c0,7.4-0.2,14.7-0.1,22.1c0,10,0.1,20.2,0.3,30.2c0.1,4-1.4,6.9-4.6,9.2c-24.5,17.5-48.9,35-73.4,52.5
		c-31.4,22.6-62.9,45.2-94.3,67.9c-32.9,23.7-65.5,47.2-98.3,70.9c-0.8,0.6-1.5,0.7-2.5,0.2c-30.4-15.9-60.9-31.7-91.4-47.5
		c-7.3-3.8-14.5-7.6-21.8-11.3c-1.1-0.5-1.5-1.3-1.5-2.6c0-28.3,0-56.6,0-84.9c0-1.3,0.4-1.9,1.5-2.7c46.5-29.5,93-59,139.5-88.5
		C203.7,274.2,204.1,273.9,204.6,273.6z"/>
	<path d="M322.2,83c0,14.9-0.1,29.9,0,44.8c0.1,7.3-2.8,13.1-8,17.9c-1.6,1.5-3.6,3-5.5,4.4c-1.7,1.3-2.7,2.8-2.9,5
		c-0.9,13.7-1.9,27.4-2.9,41.2c-0.9,13.4-1.9,26.7-2.8,40c-0.8,12.1-1.5,24.2-2.4,36.2c-0.5,9.3-5.1,15.9-12.8,20.8
		c-6.1,3.8-12.8,6-20,7.2c-13.7,2.3-27,0.9-39.6-5.4c-6.6-3.4-11.9-7.8-14.5-14.9c-1.4-3.9-1.4-7.9-1.6-12c-0.5-6.9-1-13.7-1.5-20.6
		c-0.8-9.8-1.6-19.8-2.5-29.6c-0.9-11.5-1.8-22.8-2.8-34.3c-0.5-6.9-1.1-13.8-1.5-20.8c-0.3-3.6-1.7-6.1-5.1-7.6
		c-6-2.8-11.9-5.9-16.5-11c-1.3-1.5-2.6-3.1-3.6-4.7c-1.8-3.1-2.9-6.3-2.9-10.1c0.1-30.9,0.2-61.7,0-92.7c0-6.2,2.3-11.2,6.2-15.5
		c5.9-6.3,13.5-10.2,21.4-13.4c9.6-3.8,19.8-5.6,29.9-7.1c8.4-1.1,16.7-1.1,25-0.7c16.7,0.8,33.1,3.8,48,12c4.3,2.4,8.3,5.5,12,8.7
		c4.6,4.1,6.7,9.6,6.7,15.8c0,15.4,0,30.8,0,46.1C322.1,83,322.2,83,322.2,83z"/>
</g>
</svg>
