<?xml version="1.0" encoding="utf-8"?>
<!-- Generator: Adobe Illustrator 21.1.0, SVG Export Plug-In . SVG Version: 6.00 Build 0)  -->
<svg version="1.1" id="Layer_1" xmlns="http://www.w3.org/2000/svg" xmlns:xlink="http://www.w3.org/1999/xlink" x="0px" y="0px"
	 viewBox="0 0 512 512" style="enable-background:new 0 0 512 512;" xml:space="preserve">
<style type="text/css">
	.st0{fill:#0B0B0B;}
</style>
<g>
	<path class="st0" d="M510.1,168.8c-3.9-9.5-13.3-15.8-23.7-15.8H348.6L278.9,13.6c-8.7-17.3-37.1-17.3-45.8,0L163.4,153H25.6
		c-10.3,0-19.7,6.2-23.7,15.8c-3.9,9.5-1.8,20.6,5.6,27.9l117.4,117.4L77.8,478.8c-2.9,10.3,0.8,21.4,9.5,27.7
		c8.7,6.3,20.4,6.6,29.3,0.6L256,414.2l139.4,92.9c4.3,2.9,9.2,4.3,14.2,4.3c5.3,0,10.6-1.6,15.1-4.9c8.7-6.3,12.4-17.4,9.5-27.7
		l-47.1-164.7l117.4-117.4C511.8,189.4,514,178.4,510.1,168.8L510.1,168.8z"/>
</g>
</svg>
