<?xml version="1.0" encoding="utf-8"?>
<!-- Generator: Adobe Illustrator 21.1.0, SVG Export Plug-In . SVG Version: 6.00 Build 0)  -->
<svg version="1.1" id="Layer_1" xmlns="http://www.w3.org/2000/svg" xmlns:xlink="http://www.w3.org/1999/xlink" x="0px" y="0px"
	 viewBox="0 0 512 512" style="enable-background:new 0 0 512 512;" xml:space="preserve">
<g id="Page-1">
	<g id="Group">
		<path id="Combined-Shape_1_" d="M114.4,0h283.3c6,0,10.9,4.8,10.9,10.9v490.3c0,6-4.8,10.9-10.9,10.9H114.4
			c-6,0-10.9-4.8-10.9-10.9V10.9l0,0C103.5,4.8,108.3,0,114.4,0L114.4,0z M119.8,10.9c-3,0-5.4,2.4-5.4,5.4v479.4
			c0,3,2.4,5.4,5.4,5.4l0,0h272.4c3,0,5.4-2.4,5.4-5.4V16.3c0-3-2.4-5.4-5.4-5.4H119.8z"/>
		<rect id="Rectangle-5" x="147.1" y="174.3" width="217.9" height="21.7"/>
		<rect id="Rectangle-5_1_" x="147.1" y="130.7" width="217.9" height="21.7"/>
		<rect id="Rectangle-5_2_" x="234.3" y="43.6" width="130.8" height="21.7"/>
		<rect id="Rectangle-5_3_" x="234.3" y="87.1" width="130.8" height="21.7"/>
		<path id="Rectangle-5_4_" d="M157.9,43.6h43.6c6,0,10.9,4.8,10.9,10.9v43.6c0,6-4.8,10.9-10.9,10.9h-43.6c-6,0-10.9-4.8-10.9-10.9
			V54.5C147.1,48.4,151.9,43.6,157.9,43.6z"/>
		<rect id="Rectangle-5_5_" x="152.5" y="446.7" width="217.9" height="21.7"/>
		<rect id="Rectangle-5_6_" x="152.5" y="403.1" width="217.9" height="21.7"/>
		<rect id="Rectangle-5_7_" x="239.7" y="315.9" width="130.8" height="21.7"/>
		<rect id="Rectangle-5_8_" x="239.7" y="359.5" width="130.8" height="21.7"/>
		<path id="Rectangle-5_9_" d="M163.4,315.9H207c6,0,10.9,4.8,10.9,10.9v43.6c0,6-4.8,10.9-10.9,10.9h-43.6c-6,0-10.9-4.8-10.9-10.9
			v-43.6C152.5,320.8,157.3,315.9,163.4,315.9z"/>
		<path id="Rectangle" d="M141.6,250.6h21.7c3,0,5.4,2.4,5.4,5.4l0,0c0,3-2.4,5.4-5.4,5.4h-21.7c-3,0-5.4-2.4-5.4-5.4l0,0
			C136.2,253,138.6,250.6,141.6,250.6z"/>
		<path id="Rectangle_1_" d="M185.2,250.6H207c3,0,5.4,2.4,5.4,5.4l0,0c0,3-2.4,5.4-5.4,5.4h-21.7c-3,0-5.4-2.4-5.4-5.4l0,0
			C179.8,253,182.2,250.6,185.2,250.6z"/>
		<path id="Rectangle_2_" d="M228.8,250.6h21.7c3,0,5.4,2.4,5.4,5.4l0,0c0,3-2.4,5.4-5.4,5.4h-21.7c-3,0-5.4-2.4-5.4-5.4l0,0
			C223.3,253,225.8,250.6,228.8,250.6z"/>
		<path id="Rectangle_3_" d="M272.4,250.6h21.7c3,0,5.4,2.4,5.4,5.4l0,0c0,3-2.4,5.4-5.4,5.4h-21.7c-3,0-5.4-2.4-5.4-5.4l0,0
			C266.9,253,269.4,250.6,272.4,250.6z"/>
		<path id="Rectangle_4_" d="M315.9,250.6h21.7c3,0,5.4,2.4,5.4,5.4l0,0c0,3-2.4,5.4-5.4,5.4h-21.7c-3,0-5.4-2.4-5.4-5.4l0,0
			C310.5,253,313,250.6,315.9,250.6z"/>
		<path id="Rectangle_5_" d="M359.5,250.6h21.8c3,0,5.4,2.4,5.4,5.4l0,0c0,3-2.4,5.4-5.4,5.4h-21.7c-3,0-5.4-2.4-5.4-5.4l0,0
			C354.1,253,356.5,250.6,359.5,250.6z"/>
	</g>
</g>
</svg>
