<?xml version="1.0" encoding="utf-8"?>
<!-- Generator: Adobe Illustrator 21.1.0, SVG Export Plug-In . SVG Version: 6.00 Build 0)  -->
<svg version="1.1" id="Layer_1" xmlns="http://www.w3.org/2000/svg" xmlns:xlink="http://www.w3.org/1999/xlink" x="0px" y="0px"
	 viewBox="0 0 512 512" style="enable-background:new 0 0 512 512;" xml:space="preserve">
<g id="Templates">
	<g id="Static_small">
		<path id="Combined-Shape" d="M0,0h512v512H0V0z M34.1,34.1v443.7h443.7V34.1H34.1z M68.3,238.9h34.1v34.1H68.3V238.9z
			 M136.5,238.9h34.1v34.1h-34.1V238.9z M204.8,238.9h34.1v34.1h-34.1V238.9z M273.1,238.9h34.1v34.1h-34.1V238.9z M341.3,238.9
			h34.1v34.1h-34.1V238.9z M409.6,238.9h34.1v34.1h-34.1V238.9z M102.4,68.3h307.2v34.1H102.4V68.3z M102.4,136.5h307.2v34.1H102.4
			V136.5z M102.4,341.3h307.2v34.1H102.4V341.3z M102.4,409.6h307.2v34.1H102.4V409.6z"/>
	</g>
</g>
</svg>
