<?xml version="1.0" encoding="utf-8"?>
<!-- Generator: Adobe Illustrator 21.1.0, SVG Export Plug-In . SVG Version: 6.00 Build 0)  -->
<svg version="1.1" id="Layer_1" xmlns="http://www.w3.org/2000/svg" xmlns:xlink="http://www.w3.org/1999/xlink" x="0px" y="0px"
	 viewBox="0 0 512 512" style="enable-background:new 0 0 512 512;" xml:space="preserve">
<style type="text/css">
	.st0{fill:#010101;}
</style>
<g>
	<path class="st0" d="M2.6,241.3h506.8v49.3H2.6V241.3z"/>
	<path d="M117.8,220h179l-61-29.7c-33.3-16.2-55.5-31.4-66.4-45.9c-11.3-14-16.8-30.9-16.8-50.6c0-15.8,7.5-30.3,22.6-43.2
		c15.1-13,35-19.5,59.6-19.5c32.3,0,58.9,9.3,79.9,28c20.9,18.7,38,53.8,51.4,105.5h17.4V0H366c-4.2,8.4-8,13.9-11,16.4
		c-3.2,2.5-7.5,3.8-13.2,3.8c-6,0-18-2.6-35.8-8C278.8,4.1,255.8,0,236.8,0c-43.2,0-78.5,13.4-105.7,40
		c-27.2,26.7-40.8,60-40.8,99.7c0,30.6,8,55.9,23.8,75.9C115,217.1,116.4,218.6,117.8,220z"/>
	<path d="M266.2,312c22.9,13.3,39.5,24.9,49.8,34.9c17.1,16.5,25.6,36.9,25.6,61.1c0,20-7.6,37.2-23,51.4
		c-15.4,14.2-35,21.4-59.3,21.4c-34.5,0-65.5-12.5-93.3-37.4s-46.6-62-56.4-111.3H92.3v172.4h17.4c4.6-9.1,10.9-13.7,19-13.7
		c7.4,0,16.8,1.8,28.4,5.3c38,10.5,71.7,15.8,101.3,15.8c41.1,0,78.3-13.4,111.5-40.3c33.2-27,49.8-62.4,49.8-106.3
		c0-19-4.1-36.9-12.1-53.4H266.2V312z"/>
</g>
</svg>
