<?xml version="1.0" encoding="utf-8"?>
<!-- Generator: Adobe Illustrator 21.1.0, SVG Export Plug-In . SVG Version: 6.00 Build 0)  -->
<svg version="1.1" id="Layer_1" xmlns="http://www.w3.org/2000/svg" xmlns:xlink="http://www.w3.org/1999/xlink" x="0px" y="0px"
	 viewBox="0 0 512 512" style="enable-background:new 0 0 512 512;" xml:space="preserve">
<path d="M256,0C114.6,0,0,114.6,0,256s114.6,256,256,256s256-114.6,256-256S397.4,0,256,0z M403.4,166.9
	c-118.1,105.6-173.6,205-174.1,206c-3.7,6.7-10.3,11.1-18,11.7c-0.8,0.2-1.6,0.2-2.7,0.2c-6.7-0.2-13-3.2-17.2-8.4
	c-48.6-59.5-58.2-69-83.8-94.4c-9-9-9-23.2,0-32.3c9-9,23.6-9,32.3,0c23.6,23,35.1,34.9,66.6,72.9c25.4-38.6,79.6-112,166.5-189.8
	c9.5-8.4,23.9-7.7,32.3,1.8C413.7,144.2,412.7,158.5,403.4,166.9z"/>
</svg>
