<?xml version="1.0" encoding="UTF-8"?>
<svg width="512px" height="512px" viewBox="0 0 512 512" version="1.1" xmlns="http://www.w3.org/2000/svg" xmlns:xlink="http://www.w3.org/1999/xlink">
    <!-- Generator: Sketch 52.3 (67297) - http://www.bohemiancoding.com/sketch -->
    <title>Artboard</title>
    <desc>Created with Sketch.</desc>
    <g id="Artboard" stroke="none" stroke-width="1" fill="none" fill-rule="evenodd">
        <g id="Group" transform="translate(64.000000, 0.000000)" fill="#000000" fill-rule="nonzero">
            <rect id="Rectangle-path" x="85.3333333" y="277.333333" width="213.333333" height="42.6666667"></rect>
            <rect id="Rectangle-path" x="85.3333333" y="192" width="170.666667" height="42.6666667"></rect>
            <rect id="Rectangle-path" x="85.3333333" y="362.666667" width="213.333333" height="42.6666667"></rect>
            <path d="M341.333333,42.6666667 L298.666667,42.6666667 L298.666667,21.3333333 C298.666667,9.55733333 289.109333,0 277.333333,0 C265.557333,0 256,9.55733333 256,21.3333333 L256,42.6666667 L213.333333,42.6666667 L213.333333,21.3333333 C213.333333,9.55733333 203.776,0 192,0 C180.224,0 170.666667,9.55733333 170.666667,21.3333333 L170.666667,42.6666667 L128,42.6666667 L128,21.3333333 C128,9.55733333 118.442667,0 106.666667,0 C94.8906667,0 85.3333333,9.55733333 85.3333333,21.3333333 L85.3333333,42.6666667 L42.6666667,42.6666667 C19.136,42.6666667 0,61.7813333 0,85.3333333 L0,469.333333 C0,492.864 19.136,512 42.6666667,512 L341.333333,512 C364.864,512 384,492.864 384,469.333333 L384,85.3333333 C384,61.7813333 364.864,42.6666667 341.333333,42.6666667 Z M42.6666667,469.333333 L42.6666667,85.3333333 L85.3333333,85.3333333 L85.3333333,106.666667 C85.3333333,118.464 94.8906667,128 106.666667,128 C118.442667,128 128,118.464 128,106.666667 L128,85.3333333 L170.666667,85.3333333 L170.666667,106.666667 C170.666667,118.464 180.224,128 192,128 C203.776,128 213.333333,118.464 213.333333,106.666667 L213.333333,85.3333333 L256,85.3333333 L256,106.666667 C256,118.464 265.557333,128 277.333333,128 C289.109333,128 298.666667,118.464 298.666667,106.666667 L298.666667,85.3333333 L341.333333,85.3333333 L341.354667,469.333333 L42.6666667,469.333333 Z" id="Shape"></path>
        </g>
    </g>
</svg>