<?xml version="1.0" encoding="utf-8"?>
<!-- Generator: Adobe Illustrator 21.1.0, SVG Export Plug-In . SVG Version: 6.00 Build 0)  -->
<svg version="1.1" id="Layer_1" xmlns="http://www.w3.org/2000/svg" xmlns:xlink="http://www.w3.org/1999/xlink" x="0px" y="0px"
	 viewBox="0 0 512 512" style="enable-background:new 0 0 512 512;" xml:space="preserve">
<path d="M257,0C116,0,1,115,1,256s115,256,256,256s256-115,256-256S398,0,257,0z M257,78.7c36.1,0,69.6,10.9,97.7,29.5L109.3,353.7
	c-18.7-28.1-29.6-61.5-29.6-97.7C79.7,158.3,159.3,78.7,257,78.7z M257,433.3c-33.3,0-64-9.3-90.6-25.1l242.7-242.7
	c15.8,26.6,25.1,57.3,25.1,90.6C434.3,353.7,354.7,433.3,257,433.3z"/>
</svg>
