<?xml version="1.0" encoding="utf-8"?>
<!-- Generator: Adobe Illustrator 21.1.0, SVG Export Plug-In . SVG Version: 6.00 Build 0)  -->
<svg version="1.1" id="Layer_1" xmlns="http://www.w3.org/2000/svg" xmlns:xlink="http://www.w3.org/1999/xlink" x="0px" y="0px"
	 viewBox="0 0 512 512" style="enable-background:new 0 0 512 512;" xml:space="preserve">
<g>
	<path d="M481,133c-0.4-13.1-5.8-25.2-15.3-34.2l-56.4-53.4c-18.9-17.9-51.5-16.9-69.2,1.9l-70.6,74.7v71.3L375.6,81l56.4,53.4
		l-162.6,172v71.3l198.2-209.6C476.6,158.7,481.4,146.2,481,133L481,133z"/>
	<path d="M195.9,11.1H49c-27,0-49,22-49,49v391.8c0,27,22,49,49,49h146.9c27,0,49-22,49-49V60.1C244.9,33.1,222.9,11.1,195.9,11.1z
		 M49,451.9V60.1h146.9l0,391.8H49L49,451.9z"/>
	<g transform="translate(5, 6)">
		<path id="path-1" d="M73.5,109.1h98v98h-98V109.1z"/>
	</g>
	<g transform="translate(5, 12)">
		<path id="path-1_1_" d="M73.5,256h98v98h-98V256z"/>
	</g>
	<path d="M139.8,385.6c9.6,9.6,9.6,25.1,0,34.6c-9.6,9.6-25.1,9.6-34.6,0c-9.6-9.6-9.6-25.1,0-34.6
		C114.7,376.1,130.2,376.1,139.8,385.6"/>
	<path d="M511.7,401.6l-8.9-77.2c-1.5-12.8-8.1-24.7-18.2-32.8c-10.3-8.1-23-11.8-36-10.3l-57.5,6.6l5.6,48.7l57.4-6.6l8.9,77.2
		l-193.6,22.2v49.3l199.2-22.9c13-1.5,24.6-7.9,32.8-18.2C509.5,427.5,513.2,414.6,511.7,401.6L511.7,401.6z"/>
</g>
</svg>
