<?xml version="1.0" encoding="utf-8"?>
<!-- Generator: Adobe Illustrator 21.1.0, SVG Export Plug-In . SVG Version: 6.00 Build 0)  -->
<svg version="1.1" id="Layer_1" xmlns="http://www.w3.org/2000/svg" xmlns:xlink="http://www.w3.org/1999/xlink" x="0px" y="0px"
	 viewBox="0 0 512 512" style="enable-background:new 0 0 512 512;" xml:space="preserve">
<g id="Editor">
	<g id="Add-Variables-_x3E_-Variables-list-Copy" transform="translate(-1416.000000, -100.000000)">
		<path id="T" d="M1563,606.8c-2.4-3.5-3.6-7.7-3.6-12.5c0.5-8.1,2.2-12.9,4.8-14.5c2.7-1.6,7.8-2.4,15.3-2.4
			c15.6,0,27.2-2.8,34.7-8.5c7.5-5.7,12.2-12.7,14.1-21c1.9-8.3,3.1-19.2,3.6-32.7V129.9h-55.7c-18.3,0.5-32.4,4.4-42.4,11.7
			s-17.5,18-22.6,32.3c-5.1,14.3-9.6,34.6-13.3,61c-0.5,4.3-3.8,7.8-9.7,10.5c-5.9,2.7-12.1,4-18.6,4c-4.8,0-9.3-1.5-13.3-4.4
			c-4-3-6.1-6.9-6.1-11.7l2.4-113.9c0-12.9,7.3-19.4,21.8-19.4h394.9c14,0,21,6.5,21,19.4l3.2,113.9c0,4.8-2.2,8.7-6.5,11.7
			c-4.3,3-8.9,4.4-13.7,4.4c-6.5,0-12.5-1.3-18.2-4c-5.7-2.7-8.7-6.2-9.3-10.5c-4.3-26.9-8.9-47.4-13.7-61.4
			c-4.8-14-12.4-24.6-22.6-31.9c-10.2-7.3-24.5-11.2-42.8-11.7H1712v385.2c0.5,13.5,1.8,24.4,3.6,32.7c1.9,8.3,6.6,15.3,14.1,21
			c7.5,5.7,19.1,8.5,34.7,8.5h4.8c4.8,0,8.5,0.9,10.9,2.8c2.4,1.9,3.9,6.6,4.4,14.1c0,4.8-1.2,9-3.6,12.5s-6.1,5.2-10.9,5.2
			c-34.5-1.6-66.2-2.4-95.3-2.4c-32.3,0-66,0.8-100.9,2.4C1569,612,1565.4,610.3,1563,606.8z"/>
	</g>
</g>
</svg>
