<?xml version="1.0" encoding="utf-8"?>
<!-- Generator: Adobe Illustrator 21.1.0, SVG Export Plug-In . SVG Version: 6.00 Build 0)  -->
<svg version="1.1" id="Layer_1" xmlns="http://www.w3.org/2000/svg" xmlns:xlink="http://www.w3.org/1999/xlink" x="0px" y="0px"
	 viewBox="0 0 512 512" style="enable-background:new 0 0 512 512;" xml:space="preserve">
<g id="Page-1">
	<path id="Combined-Shape" d="M33.4,76h444.1c23.1,0,34.6,11.3,34.6,33.8s0,120.9,0,295.1c0,20.8-9.5,31.1-28.6,31.1
		c-28.6,0-426.7,0-455.1,0C9.4,436,0,426.3,0,406.9c0-178.1,0-277.7,0-299S11.1,76,33.4,76z M38,165v115h190V165H38z M256,165v115
		h106V165H256z M390,165v115h82V165H390z M38,308v92h190v-92H38z M256,308v92h106v-92H256z M390,308v92h82v-92H390z"/>
</g>
</svg>
