<?xml version="1.0" encoding="utf-8"?>
<!-- Generator: Adobe Illustrator 21.1.0, SVG Export Plug-In . SVG Version: 6.00 Build 0)  -->
<svg version="1.1" id="Layer_1" xmlns="http://www.w3.org/2000/svg" xmlns:xlink="http://www.w3.org/1999/xlink" x="0px" y="0px"
	 viewBox="0 0 512 512" style="enable-background:new 0 0 512 512;" xml:space="preserve">
<g>
	<path d="M503.7,40.1c0-18.6-16.4-35-35-35L338.9,1c-18.6,0-43.3,10.3-57.7,22.7l-272,272c-12.4,12.4-12.4,35,0,47.4l158.7,158.7
		c12.4,12.4,35,12.4,47.4,0l274-274c12.4-12.4,22.7-39.1,22.7-57.7L503.7,40.1z M452.3,108.1c-14.4,14.4-35,14.4-49.4,0
		c-14.4-14.4-14.4-35,0-49.4c14.4-14.4,35-14.4,49.4,0C464.6,73.1,464.6,93.7,452.3,108.1z"/>
</g>
</svg>
