<?xml version="1.0" encoding="utf-8"?>
<!-- Generator: Adobe Illustrator 21.1.0, SVG Export Plug-In . SVG Version: 6.00 Build 0)  -->
<svg version="1.1" id="Layer_1" xmlns="http://www.w3.org/2000/svg" xmlns:xlink="http://www.w3.org/1999/xlink" x="0px" y="0px"
	 viewBox="0 0 512 512" style="enable-background:new 0 0 512 512;" xml:space="preserve">
<g>
	<path d="M450.8,420.3c16.1-14.9,26.3-36,26.3-59.6c0-44.9-36.5-81.5-81.5-81.5s-81.5,36.5-81.5,81.5c0,23.6,10.2,44.6,26.3,59.6
		c-34.4,12.4-61.2,36.4-61.2,68.4h46.5c0-13.9,32.9-31.6,69.8-31.6s69.8,17.7,69.8,31.6H512C512,456.6,485.2,432.7,450.8,420.3
		L450.8,420.3z M395.6,325.8c19.2,0,34.9,15.7,34.9,34.9s-15.7,34.9-34.9,34.9c-19.2,0-34.9-15.7-34.9-34.9S376.4,325.8,395.6,325.8
		z"/>
	<path d="M171.5,420.3c16.1-14.9,26.3-36,26.3-59.6c0-44.9-36.5-81.5-81.5-81.5s-81.5,36.5-81.5,81.5c0,23.6,10.2,44.6,26.3,59.6
		C26.8,432.7,0,456.6,0,488.7h46.5c0-13.9,32.9-31.6,69.8-31.6s69.8,17.7,69.8,31.6h46.5C232.7,456.6,205.9,432.7,171.5,420.3
		L171.5,420.3z M116.4,325.8c19.2,0,34.9,15.7,34.9,34.9s-15.7,34.9-34.9,34.9S81.5,380,81.5,360.7S97.1,325.8,116.4,325.8z"/>
	<path d="M325.8,232.7h46.5c0-32.1-26.8-56-61.2-68.4c16.1-14.9,26.3-36,26.3-59.6c0-44.9-36.5-81.5-81.5-81.5s-81.5,36.5-81.5,81.5
		c0,23.6,10.2,44.6,26.3,59.6c-34.4,12.4-61.2,36.3-61.2,68.4h46.5c0-13.9,32.9-31.6,69.8-31.6S325.8,218.8,325.8,232.7z M256,69.8
		c19.2,0,34.9,15.7,34.9,34.9s-15.7,34.9-34.9,34.9s-34.9-15.7-34.9-34.9S236.8,69.8,256,69.8z"/>
</g>
</svg>
