<?xml version="1.0" encoding="utf-8"?>
<!-- Generator: Adobe Illustrator 21.1.0, SVG Export Plug-In . SVG Version: 6.00 Build 0)  -->
<svg version="1.1" id="Layer_1" xmlns="http://www.w3.org/2000/svg" xmlns:xlink="http://www.w3.org/1999/xlink" x="0px" y="0px"
	 viewBox="0 0 512 512" style="enable-background:new 0 0 512 512;" xml:space="preserve">
<g id="Account-Settings">
	<g id="Account-Setting-General-Copy" transform="translate(-1107.000000, -462.000000)">
		<g id="team-settings" transform="translate(1107.000000, 462.000000)">
			<path id="Shape" d="M337.8,232.7h36.5c0-32.3-26.9-56.3-61.5-68.8c16.2-15,26.4-36.2,26.4-59.9c0-45.1-36.7-81.9-81.9-81.9
				s-81.9,36.7-81.9,81.9c0,23.7,10.3,44.8,26.4,59.9c-34.6,12.5-61.5,36.5-61.5,68.8h36.5c0-14,32.6-42.1,80.5-42.1
				S337.8,218.8,337.8,232.7z M257.4,58.7c25,0,45.4,20.4,45.4,45.4s-20.4,45.4-45.4,45.4S212,129,212,104.1S232.4,58.7,257.4,58.7z
				"/>
			<path id="Shape-Copy-2" d="M197.6,489.9H234c0-32.3-26.9-56.3-61.5-68.8c16.2-15,26.4-36.2,26.4-59.9c0-45.1-36.7-81.9-81.9-81.9
				S35.1,316,35.1,361.2c0,23.7,10.3,44.8,26.4,59.9C26.9,433.6,0,457.6,0,489.9h36.5c0-14,32.6-42.1,80.5-42.1
				S197.6,475.9,197.6,489.9z M117.1,315.8c25,0,45.4,20.4,45.4,45.4c0,25-20.4,45.4-45.4,45.4s-45.4-20.4-45.4-45.4
				C71.7,336.3,92.2,315.8,117.1,315.8z"/>
			<path id="Shape-Copy-3" d="M475.5,489.9H512c0-32.3-26.9-56.3-61.5-68.8c16.2-15,26.4-36.2,26.4-59.9c0-45.1-36.7-81.9-81.9-81.9
				S313,316,313,361.2c0,23.7,10.3,44.8,26.4,59.9c-34.6,12.5-61.5,36.5-61.5,68.8h36.5c0-14,32.6-42.1,80.5-42.1
				S475.5,475.9,475.5,489.9z M395.1,315.8c25,0,45.4,20.4,45.4,45.4c0,25-20.4,45.4-45.4,45.4c-25,0-45.4-20.4-45.4-45.4
				C349.7,336.3,370.1,315.8,395.1,315.8z"/>
		</g>
	</g>
</g>
</svg>
