<?xml version="1.0" encoding="utf-8"?>
<!-- Generator: Adobe Illustrator 21.1.0, SVG Export Plug-In . SVG Version: 6.00 Build 0)  -->
<svg version="1.1" id="Layer_1" xmlns="http://www.w3.org/2000/svg" xmlns:xlink="http://www.w3.org/1999/xlink" x="0px" y="0px"
	 viewBox="0 0 512 512" style="enable-background:new 0 0 512 512;" xml:space="preserve">
<g>
	<path d="M255.7,0C114.6,0-0.3,114.8-0.3,256s114.8,256,256,256s256-114.8,256-256S396.9,0,255.7,0z M255.7,460.8
		c-112.9,0-204.8-91.9-204.8-204.8S142.8,51.2,255.7,51.2S460.5,143.1,460.5,256S368.7,460.8,255.7,460.8z"/>
	<path d="M361.4,301.5l-54.9,0c-7.7,0-13.8,6.2-13.8,13.8l0,26.8c-66.4-3.6-119.4-56.6-122.9-123h26.8c7.6,0,13.7-6.1,13.7-13.7
		l0-55c0-7.6-6.1-13.7-13.7-13.7l-55,0c-7.6,0.1-13.8,6.2-13.8,13.8l0,68.7h0.4c3.5,89.2,75.3,161,164.5,164.5v0.4h68.7
		c7.6,0,13.7-6.2,13.8-13.8l0-55C375.1,307.7,368.9,301.5,361.4,301.5L361.4,301.5z"/>
</g>
</svg>
