<?xml version="1.0" encoding="utf-8"?>
<!-- Generator: Adobe Illustrator 21.0.0, SVG Export Plug-In . SVG Version: 6.00 Build 0)  -->
<svg version="1.1" id="Layer_1" xmlns="http://www.w3.org/2000/svg" xmlns:xlink="http://www.w3.org/1999/xlink" x="0px" y="0px"
	 viewBox="0 0 512 512" style="enable-background:new 0 0 512 512;" xml:space="preserve">
<path d="M413.9,172.4C399.5,99.8,336.2,46.8,260.5,46.8c-51.6,0-98.8,24.7-128.1,66.7C57.4,117.8,0,172.1,0,240.5
	c0,70.8,57,128.6,127,128.6c9.9,0,18-8.1,18-18c0-9.9-8.1-18-18-18c-50.2,0-91-41.5-91-92.5c0-52.1,45.7-91.4,106.3-91.4
	c6.2,0,12.1-3.3,15.3-8.6c22-36.2,60.5-57.7,102.8-57.7c62.3,0,113.8,46.7,119.7,108.6c0.9,9.2,8.6,16.3,17.9,16.3
	c48.7,0,77.8,23.2,77.8,61.9c0,34.4-28.4,63.5-62.1,63.5h-53.4c-9.9,0-18,8.1-18,18c0,9.9,8.1,18,18,18h53.4
	c54.1,0,98.2-44.6,98.2-99.5C512.1,214.8,474.1,177.8,413.9,172.4z M259.9,219.9c-6.8-6.8-18.7-6.8-25.5,0l-63.5,63.5
	c-7.1,7.1-7.1,18.4,0,25.5s18.4,7.1,25.5,0l32-32v170.3c0,9.9,8.1,18,18,18c9.9,0,18-8.1,18-18V275.3l33.5,33.5
	c3.5,3.5,8.1,5.3,12.7,5.3c4.6,0,9.2-1.8,12.7-5.3c7.1-7.1,7.1-18.4,0-25.5L259.9,219.9z"/>
</svg>
