<?xml version="1.0" encoding="utf-8"?>
<!-- Generator: Adobe Illustrator 21.1.0, SVG Export Plug-In . SVG Version: 6.00 Build 0)  -->
<svg version="1.1" id="Layer_1" xmlns="http://www.w3.org/2000/svg" xmlns:xlink="http://www.w3.org/1999/xlink" x="0px" y="0px"
	 viewBox="0 0 512 512" style="enable-background:new 0 0 512 512;" xml:space="preserve">
<g id="Account-Settings">
	<g id="Account-Setting-General-Copy" transform="translate(-17.000000, -141.000000)">
		<g id="Group-21" transform="translate(17.000000, 141.000000)">
			<rect id="Rectangle-21-Copy-5" x="100.1" y="289.4" width="44.5" height="22.3"/>
			<rect id="Rectangle-21-Copy-4" x="100.1" y="333.9" width="44.5" height="22.3"/>
			<rect id="Rectangle-21-Copy-3" x="100.1" y="378.4" width="44.5" height="22.3"/>
			<path id="Combined-Shape" d="M300.4,434.1v33.4h-44.5v-22.3H122.3V423h178.1V434.1z M55.6,467.5h289.4v16.6
				c-2.7,18.6-11.8,27.9-27.3,27.9c-15.5,0-110.3,0-284.3,0v-1C18.5,507,11,498,11,484.1c0-254.8,0-391.6,0-410.4
				c0-14.7,9.7-24.4,29-29.2h15.5V467.5z M122.3,89h22.3V423h-22.3V89z M55.6,44.5h44.5V89H55.6V44.5z"/>
			<path id="Combined-Shape-Copy-3" d="M456.3,111.4h-0.1l-66.5-67.3V0.2L501,111.4h-0.2c0,70.4,0,181,0,331.7
				c0,16.2-8.4,24.3-25.1,24.3h-19.4V111.4z M389.6,44.5h-245V0h245V44.5z M144.6,89h-44.5c0-24.8,0-44.6,0-59.3S109.7,5.1,128.9,0
				h15.7V89z M456.3,467.5H300.4V423h155.8V467.5z"/>
			<rect id="Rectangle-5" x="189.1" y="356.2" width="222.6" height="22.3"/>
			<rect id="Rectangle-5-Copy" x="189.1" y="311.7" width="222.6" height="22.3"/>
			<rect id="Rectangle-5-Copy-2" x="189.1" y="267.1" width="222.6" height="22.3"/>
			<path id="Rectangle-5-Copy-3" d="M255.2,134.8c41.9-0.2,66.7,26.3,74.3,79.6c7.5-23.1,21.4-34.4,41.8-33.7
				c20.4,0.6,33.9,14.6,40.4,41.9H189.1C191.2,164.2,213.2,135,255.2,134.8z"/>
			<rect id="Rectangle-83" x="367.2" y="44.5" width="22.3" height="89"/>
			<rect id="Rectangle-29" x="389.5" y="111.3" width="66.8" height="22.3"/>
		</g>
	</g>
</g>
</svg>
