<?xml version="1.0" encoding="utf-8"?>
<!-- Generator: Adobe Illustrator 21.1.0, SVG Export Plug-In . SVG Version: 6.00 Build 0)  -->
<svg version="1.1" id="Layer_1" xmlns="http://www.w3.org/2000/svg" xmlns:xlink="http://www.w3.org/1999/xlink" x="0px" y="0px"
	 viewBox="0 0 512 512" style="enable-background:new 0 0 512 512;" xml:space="preserve">
<g>
	<path d="M398.3,291.3l32.1,32.1l68.2-68.2c8.9-8.9,8.9-23.3,0-32.1L469.5,194l14.9-14.9c27.8-27.8,27.8-73,0-100.8
		c-26.9-26.9-73.9-26.9-100.8,0L264.4,197.4l-55.7-55.7c-1.5-22-10.3-42.5-26-58.2c-32.4-32.4-57.9-30.9-81-29.8
		c-14.9,0.7-29.1,4.7-54.8-21L14,0L8.2,46C7.6,50.3-4.7,153.4,54,212.1c15.7,15.7,36.3,24.6,58.2,26.1l55.7,55.7l-42,42
		c-1.7,1.7-3.2,3.7-4.3,5.9L53,479.1c-4.4,8.8-2.7,19.3,4.3,26.2c7,7,17.6,8.6,26.2,4.3l137.4-68.7c2.2-1.1,4.2-2.5,5.9-4.3l42-42
		l97.3,97.3c12.9,12.9,30,20,48.2,20c18.2,0,35.3-7.1,48.2-20c12.9-12.9,20-30,20-48.2c0-18.2-7.1-35.3-20-48.2l-97.3-97.3
		l72.1-72.1l13.1,13.1L398.3,291.3L398.3,291.3z M452.2,110.3c10.1,10.1,10.1,26.5,0,36.6l-18.3,18.3l-36.5-36.6l18.3-18.3
		C425.5,100.6,442.5,100.6,452.2,110.3z M52.9,92.2c19.6,8.5,35.7,7.7,50.9,7c40.3-2,59.9,25,59.9,48.6c0,12.1-4.7,23.5-13.3,32.1
		c-17.2,17.2-47.1,17.2-64.3,0C62.6,156.3,55,120.1,52.9,92.2z M164.3,225.9c6.6-3.9,12.8-8.3,18.3-13.8s9.9-11.8,13.8-18.3
		l35.8,35.8l-32.1,32.1L164.3,225.9L164.3,225.9z M197.2,401.9l-73.1,36.5l36.5-73.1l204.6-204.5l36.5,36.6L197.2,401.9L197.2,401.9
		z M430.4,427.7c8.8,8.8,9,23.2,0,32.1c-8.6,8.6-23.5,8.6-32.1,0l-97.3-97.3l32.1-32.1L430.4,427.7z"/>
</g>
</svg>
