<?xml version="1.0" encoding="utf-8"?>
<!-- Generator: Adobe Illustrator 21.1.0, SVG Export Plug-In . SVG Version: 6.00 Build 0)  -->
<svg version="1.1" id="Layer_1" xmlns="http://www.w3.org/2000/svg" xmlns:xlink="http://www.w3.org/1999/xlink" x="0px" y="0px"
	 viewBox="0 0 512 512" style="enable-background:new 0 0 512 512;" xml:space="preserve">
<path d="M228,214.5c5.1-1.3,8.1-6.6,6.7-11.6c-1.3-5.1-6.6-8-11.6-6.7c-5.1,1.3-8.1,6.6-6.7,11.6C217.8,212.9,223,216,228,214.5z"/>
<path d="M283.9,214.5c5,1.3,10.2-1.6,11.6-6.7s-1.6-10.2-6.7-11.6c-5-1.3-10.2,1.6-11.7,6.7C275.9,208,278.8,213.2,283.9,214.5z"/>
<path d="M332.2,229c-3.7,3.7-3.7,9.7,0,13.3c3.7,3.7,9.7,3.7,13.4,0c3.7-3.7,3.7-9.7,0-13.3C341.8,225.4,335.8,225.4,332.2,229z"/>
<path d="M371.6,297.5c5.1-1.3,8.1-6.6,6.7-11.6c-1.3-5-6.6-8.1-11.6-6.7c-5.1,1.3-8,6.6-6.7,11.7
	C361.4,295.7,366.6,298.7,371.6,297.5z"/>
<path d="M371.6,339.8c-5-1.3-10.2,1.6-11.7,6.7c-1.3,5.1,1.6,10.2,6.7,11.6c5,1.3,10.2-1.6,11.6-6.7
	C379.7,346.3,376.7,341.2,371.6,339.8z"/>
<path d="M332.2,394.9c-3.7,3.7-3.7,9.7,0,13.3c3.7,3.7,9.7,3.7,13.4,0s3.7-9.7,0-13.3C341.8,391.1,335.8,391.1,332.2,394.9z"/>
<path d="M283.9,422.7c-5,1.3-8,6.6-6.7,11.6c1.3,5.1,6.6,8,11.7,6.7c5-1.3,8.1-6.6,6.7-11.6C294.1,424.3,288.9,421.4,283.9,422.7z"
	/>
<path d="M228,422.7c-5-1.3-10.2,1.6-11.6,6.7c-1.3,5.1,1.6,10.2,6.7,11.6c5,1.3,10.1-1.7,11.6-6.7C236.1,429.2,233.1,424,228,422.7z
	"/>
<path d="M166.4,394.9c-3.7,3.7-3.7,9.7,0,13.3c3.7,3.7,9.7,3.7,13.3,0c3.7-3.7,3.7-9.7,0-13.3C176,391.1,170.1,391.1,166.4,394.9z"
	/>
<path d="M140.3,339.8c-5,1.3-8.1,6.6-6.7,11.6c1.3,5.1,6.6,8,11.6,6.7c5-1.3,8-6.6,6.7-11.6C150.6,341.4,145.3,338.4,140.3,339.8z"
	/>
<path d="M140.3,297.5c5,1.3,10.2-1.6,11.6-6.7c1.3-5.1-1.6-10.2-6.7-11.7c-5-1.3-10.2,1.7-11.6,6.7
	C132.2,290.8,135.3,296,140.3,297.5z"/>
<path d="M274,300.5c-1.1-1.1-2.4-2.2-3.7-2.9l0.1-0.2l-90.7-68.4c-3.7-3.7-9.7-3.7-13.3,0c-3.7,3.7-3.7,9.7,0,13.3l68.4,90.7
	l0.2-0.2c0.9,1.3,1.8,2.5,2.9,3.7c9.9,9.9,26.2,9.9,36.1,0C284,326.7,284,310.6,274,300.5z"/>
<path d="M404.1,194.3l9.5-9.5l3.3,3.3c2.8,2.8,7.3,2.8,10,0l12.5-12.5c2.8-2.8,2.8-7.3,0-10l-0.1-0.1l-29.7-29.7l0,0
	c-2.8-2.8-7.3-2.8-10,0l-12.5,12.5c-2.8,2.8-2.8,7.3,0,10l3.3,3.3l-9.4,9.4c-22.4-18.9-49-32.9-78.4-40.1
	c16.7-13.5,27.2-34,27.2-57.1C329.6,33,296.7,0,256,0s-73.7,33-73.7,73.7c0,23.1,10.6,43.6,27.2,57.1c-29.3,7.3-56.1,21.2-78.3,40.1
	l-9.4-9.4l3.3-3.3c2.8-2.8,2.8-7.3,0-10l-12.6-12.5c-2.8-2.8-7.2-2.8-10,0l0,0l-29.7,29.7l-0.1,0.1c-2.9,2.8-2.9,7.3,0,10l12.5,12.5
	c2.8,2.8,7.3,2.8,10,0l3.3-3.3l9.5,9.5c-28.2,33.6-45.3,77-45.3,124.3C62.7,425.5,149.2,512,256,512s193.3-86.5,193.3-193.3
	C449.3,271.3,432.3,227.9,404.1,194.3z M206.4,73.7c0-27.3,22.1-49.6,49.6-49.6s49.6,22.1,49.6,49.6c0,21.4-13.6,39.6-32.7,46.6
	V88.7h4.7c3.9,0,7.1-3.2,7.1-7.1V63.9c0-3.9-3.2-7.1-7.1-7.1h-0.1h-42.1l0,0c-3.9,0-7.1,3.2-7.1,7.1v17.7c0,3.9,3.2,7.1,7.1,7.1h4.5
	v31.9C220.4,113.9,206.4,95.4,206.4,73.7z M256,464.8c-80.5,0-145.7-65.2-145.7-145.7S175.5,173.4,256,173.4s145.7,65.3,145.7,145.7
	S336.5,464.8,256,464.8z"/>
</svg>
