<?xml version="1.0" encoding="utf-8"?>
<!-- Generator: Adobe Illustrator 21.1.0, SVG Export Plug-In . SVG Version: 6.00 Build 0)  -->
<svg version="1.1" id="Layer_1" xmlns="http://www.w3.org/2000/svg" xmlns:xlink="http://www.w3.org/1999/xlink" x="0px" y="0px"
	 viewBox="0 0 512 512" style="enable-background:new 0 0 512 512;" xml:space="preserve">
<g>
	<path d="M146.9,67.1h352.5c7,0,12.6,5.6,12.6,12.6v75.5c0,7-5.6,12.6-12.6,12.6H146.9c-7,0-12.6-5.6-12.6-12.6V79.7
		C134.3,72.8,139.9,67.1,146.9,67.1z"/>
	<path d="M146.9,205.6h352.5c7,0,12.6,5.6,12.6,12.6v75.5c0,7-5.6,12.6-12.6,12.6H146.9c-7,0-12.6-5.6-12.6-12.6v-75.5
		C134.3,211.3,139.9,205.6,146.9,205.6z"/>
	<path d="M146.9,344.1h352.5c7,0,12.6,5.6,12.6,12.6v75.5c0,7-5.6,12.6-12.6,12.6H146.9c-7,0-12.6-5.6-12.6-12.6v-75.5
		C134.3,349.8,139.9,344.1,146.9,344.1z"/>
</g>
<circle cx="50.4" cy="117.5" r="50.4"/>
<circle cx="50.4" cy="255.2" r="50.4"/>
<circle cx="50.4" cy="394.5" r="50.4"/>
</svg>
