<?xml version="1.0" encoding="utf-8"?>
<!-- Generator: Adobe Illustrator 21.1.0, SVG Export Plug-In . SVG Version: 6.00 Build 0)  -->
<svg version="1.1" id="Layer_1" xmlns="http://www.w3.org/2000/svg" xmlns:xlink="http://www.w3.org/1999/xlink" x="0px" y="0px"
	 viewBox="0 0 512 512" style="enable-background:new 0 0 512 512;" xml:space="preserve">
<g>
	<path d="M499.1,165.4L266.4,49c-6.5-3.3-14.3-3.3-20.8,0L12.8,165.4c-4.7,2.3-8.2,6.4-10.4,10.8C1.1,179,0,183.8,0,186.2v134.2
		c0,12.8,10.4,23.3,23.3,23.3s23.3-10.4,23.3-23.3v-99.8l46.5,18.6v114.1c0,8.8,5,16.8,12.9,20.8c40,20,81.1,44.7,150,44.7
		s110.1-24.7,150-44.7c7.9-4,12.9-12,12.9-20.8V239.2l78.5-31.4c8.5-3.4,14.2-11.5,14.6-20.6C512.4,178,507.3,169.5,499.1,165.4
		L499.1,165.4z M372.4,338.9l-22.7,11.3c-58.7,29.3-128.7,29.3-187.3,0l-22.7-11.3v-81.1l107.7,43.1c2.8,1.1,5.7,1.6,8.7,1.6
		c2.9,0,5.9-0.5,8.7-1.7l107.7-43.1L372.4,338.9L372.4,338.9z M256,254.2L80,183.8l176-87.9l176,87.9L256,254.2L256,254.2z"/>
	<path d="M23.3,372.4C10.4,372.4,0,382.8,0,395.6v46.5c0,12.9,10.4,23.3,23.3,23.3s23.3-10.4,23.3-23.3v-46.5
		C46.5,382.8,36.1,372.4,23.3,372.4z"/>
</g>
</svg>
