<?xml version="1.0" encoding="utf-8"?>
<!-- Generator: Adobe Illustrator 23.0.1, SVG Export Plug-In . SVG Version: 6.00 Build 0)  -->
<svg version="1.1" id="Layer_1" xmlns="http://www.w3.org/2000/svg" xmlns:xlink="http://www.w3.org/1999/xlink" x="0px" y="0px"
	 viewBox="0 0 512 512" style="enable-background:new 0 0 512 512;" xml:space="preserve">
<g>
	<path d="M380,18.2l0.2,69l-11.8,0.5c-3.2,0.2-6.3,0.3-9.5,0.7c-40.7,3.7-77.5,20.1-106.5,45c-14.9,12.9-27.8,28.1-38,45
		c-8.4,13.9-15.2,29.1-19.8,45c-5,17.1-7.6,35.2-7.5,54c0.1,17.9,2.6,35.5,7.6,52.5c21.4-49.8,61.5-87.6,110.7-106.5
		c19.6-7.5,40.6-12,62.5-13l12.8-0.6l0.1,13.6l0.2,57.8l2-2l45-45.4l84-84.6L380,18.2z"/>
	<path d="M382.9,311.3v137.4H67.6V223.5h101.7c3.9-15.8,9.7-30.9,17.1-45H45v-45h172.5c16.4-18.2,35.8-33.4,57.6-45H45
		c-24.9,0-45,20.2-45,45V201c0,12.4,10,22.5,22.5,22.5v225.2c0,24.8,20.1,45,45,45h315.3c24.9,0,45-20.2,45-45V268.9l-37.3,37.5
		C388.5,308.7,385.8,310.3,382.9,311.3z"/>
</g>
</svg>
