<?xml version="1.0" encoding="utf-8"?>
<!-- Generator: Adobe Illustrator 21.1.0, SVG Export Plug-In . SVG Version: 6.00 Build 0)  -->
<svg version="1.1" id="Layer_1" xmlns="http://www.w3.org/2000/svg" xmlns:xlink="http://www.w3.org/1999/xlink" x="0px" y="0px"
	 viewBox="0 0 512 512" style="enable-background:new 0 0 512 512;" xml:space="preserve">
<path d="M359,0H87.4c-9.1,0-31.6,2.1-31.6,11.2v426.1c0,9.1,22.5,26.7,31.6,26.7h67l0.1-31H86.7V31h247.6v62.9
	c0,9.1,18.1,30,27.2,30H427V208v3.6v221.9h-61.6l-0.1,31h78.8c9.1,0,14.1-17.6,14.1-26.7V189.3v-5.8V96.3L359,0z M365.4,92.9V40.7
	l52.9,52.1L365.4,92.9L365.4,92.9z"/>
<path d="M255.9,277.2L153.4,384.3h83.2l-0.3,38.1l-0.1,22.3l-0.3,43.5c0,6.5,2.6,12.4,6.7,16.8c4.1,4.3,10,7,16.2,7
	c12.8,0,23-10.5,23.2-23.6l0.3-43.5l0.1-22.3l0.3-38.1h78.2L255.9,277.2z"/>
</svg>
