<?xml version="1.0" encoding="utf-8"?>
<!-- Generator: Adobe Illustrator 21.1.0, SVG Export Plug-In . SVG Version: 6.00 Build 0)  -->
<svg version="1.1" id="Layer_1" xmlns="http://www.w3.org/2000/svg" xmlns:xlink="http://www.w3.org/1999/xlink" x="0px" y="0px"
	 viewBox="0 0 512 512" style="enable-background:new 0 0 512 512;" xml:space="preserve">
<g>
	<g transform="translate(1, 6)">
		<path id="path-1" d="M203.7,96.8H21.8C9.2,96.8-1,107-1,119.6v68.2h45.4v-45.4h45.4v227.4H44.4v45.4h136.4v-45.4h-45.4V142.3h45.4
			v45.4h45.4v-68.2C226.4,107,216.2,96.8,203.7,96.8z"/>
	</g>
	<g transform="translate(13, 6)">
		<path id="path-1_1_" d="M476.2,96.8H294.3c-12.5,0-22.8,10.2-22.8,22.8v68.2H317v-45.4h45.4v227.4H317v45.4h136.4v-45.4h-45.4
			V142.3h45.4v45.4H499v-68.2C499,107,488.8,96.8,476.2,96.8z"/>
	</g>
</g>
</svg>
