<?xml version="1.0" encoding="utf-8"?>
<!-- Generator: Adobe Illustrator 21.0.0, SVG Export Plug-In . SVG Version: 6.00 Build 0)  -->
<svg version="1.1" id="Layer_1" xmlns="http://www.w3.org/2000/svg" xmlns:xlink="http://www.w3.org/1999/xlink" x="0px" y="0px"
	 viewBox="0 0 512 512" style="enable-background:new 0 0 512 512;" xml:space="preserve">
<path d="M256.3,43.8C114.8,43.8,0,158.6,0,300c0,64.6,24,123.3,63,168.2c9.1-25.1,39-43.2,66.7-58.7l2.1-1.1
	c8.5-4.8,24.6-13.3,39.5-19.8c1.6-0.5,3.2-1.1,4.8-2.1c14.4-5.3,24.6-10.1,25.6-21.4c1.1-9.6-3.7-16-10.7-24.6
	c-1.6-2.1-3.7-4.3-5.3-6.9c-27.8-38.4-40-78.5-37.4-121.7c3.7-56.6,39.5-95.6,92.9-101.4c5.3-0.5,11.2-1.1,16.6-1.1
	c32,0,58.7,11.2,78.5,32c21.9,23.5,31.5,57.7,28.3,98.2c-1.6,22.4-10.7,50.7-23.5,73.7c-3.2,5.9-7.5,11.7-12.3,17.1
	c-10.7,13.9-20.3,26.7-16.6,41.6c2.7,9.6,24.6,18.2,37.9,23c3.7,1.6,7.5,2.7,9.6,3.7c26.7,11.7,76.3,33.6,89.2,69.4
	c39-44.8,63-103.6,63-168.2C512.5,158.6,397.7,43.8,256.3,43.8z"/>
</svg>
