<?xml version="1.0" encoding="utf-8"?>
<!-- Generator: Adobe Illustrator 21.1.0, SVG Export Plug-In . SVG Version: 6.00 Build 0)  -->
<svg version="1.1" id="Layer_1" xmlns="http://www.w3.org/2000/svg" xmlns:xlink="http://www.w3.org/1999/xlink" x="0px" y="0px"
	 viewBox="0 0 512 512" style="enable-background:new 0 0 512 512;" xml:space="preserve">
<g>
	<path d="M209.5,325.8L349.1,256l-139.6-69.8V325.8z"/>
	<path d="M465.5,23.3H46.5C20.9,23.3,0,44.1,0,69.8v372.4c0,25.7,20.9,46.5,46.5,46.5h418.9c25.7,0,46.5-20.9,46.5-46.5V69.8
		C512,44.1,491.1,23.3,465.5,23.3z M46.5,442.2V69.8h418.9l0,372.4H46.5z"/>
	<g transform="translate(5, 5)">
		<path id="path-1" d="M93.1,93.1h46.5v46.5H93.1V93.1z"/>
	</g>
	<g transform="translate(9, 5)">
		<path id="path-1_1_" d="M186.2,93.1h46.5v46.5h-46.5V93.1z"/>
	</g>
	<g transform="translate(13, 5)">
		<path id="path-1_2_" d="M279.3,93.1h46.5v46.5h-46.5V93.1z"/>
	</g>
	<g transform="translate(17, 5)">
		<path id="path-1_3_" d="M372.4,93.1h46.5v46.5h-46.5V93.1z"/>
	</g>
	<g transform="translate(5, 17)">
		<path id="path-1_4_" d="M93.1,372.4h46.5v46.5H93.1V372.4z"/>
	</g>
	<g transform="translate(9, 17)">
		<path id="path-1_5_" d="M186.2,372.4h46.5v46.5h-46.5V372.4z"/>
	</g>
	<g transform="translate(13, 17)">
		<path id="path-1_6_" d="M279.3,372.4h46.5v46.5h-46.5V372.4z"/>
	</g>
	<g transform="translate(17, 17)">
		<path id="path-1_7_" d="M372.4,372.4h46.5v46.5h-46.5V372.4z"/>
	</g>
</g>
</svg>
