<?xml version="1.0" encoding="utf-8"?>
<!-- Generator: Adobe Illustrator 21.1.0, SVG Export Plug-In . SVG Version: 6.00 Build 0)  -->
<svg version="1.1" id="Layer_1" xmlns="http://www.w3.org/2000/svg" xmlns:xlink="http://www.w3.org/1999/xlink" x="0px" y="0px"
	 viewBox="0 0 512 512" style="enable-background:new 0 0 512 512;" xml:space="preserve">
<g>
	<path d="M300.3,211.7c24.5,24.5,24.5,64.2,0,88.7c-24.5,24.5-64.2,24.5-88.7,0c-24.5-24.5-24.5-64.2,0-88.7
		C236.2,187.2,275.8,187.2,300.3,211.7"/>
	<path d="M512,256l-9.7-16.1c-4.2-7-104.8-172-246.3-172s-242.1,165-246.3,172L0,256l9.7,16.1c4.2,7,104.8,172,246.3,172
		s242.1-165,246.3-172L512,256z M256,381.4c-84.1,0-155.5-88.2-181.8-125.4c26.3-37.1,97.7-125.4,181.8-125.4S411.5,218.9,437.8,256
		C411.5,293.2,340.1,381.4,256,381.4z"/>
</g>
</svg>
