<?xml version="1.0" encoding="utf-8"?>
<!-- Generator: Adobe Illustrator 21.1.0, SVG Export Plug-In . SVG Version: 6.00 Build 0)  -->
<svg version="1.1" id="Layer_1" xmlns:sketch="http://www.bohemiancoding.com/sketch/ns"
	 xmlns="http://www.w3.org/2000/svg" xmlns:xlink="http://www.w3.org/1999/xlink" x="0px" y="0px" viewBox="0 0 512 512"
	 style="enable-background:new 0 0 512 512;" xml:space="preserve">
<title>Artboard 112</title>
<desc>Created with Sketch.</desc>
<g sketch:type="MSPage">
	<path sketch:type="MSShapeGroup" d="M506.6,292.6l-59.9-21c-4-0.8-7.3-3.7-8.7-7.6L368.3,59.8c-3.8-9.8-12.4-17.8-23.5-20.3
		c-17.4-3.6-34.4,7.5-38,24.9l-60.2,287l-55.4-198.8c-2.9-9.9-10.5-18.2-21.5-21.3c-15.6-4.3-31.7,4.8-37.5,20L80.6,276.1
		c-1.3,3.4-4.3,5.7-7.9,6.1l-67,16.8c-3.1,0.4-5.5,2.8-5.7,5.7c-0.5,3.7,2.2,6.9,5.7,7.4l86.5,5.9c5.9,0.6,12-2,15.4-7.5l45.6-71.6
		l74.1,218l0.1,0.3c2.8,7.8,9.3,13.9,18.2,15.5c12.3,2.2,24-6.3,27.2-18.4l73-282.9l51.6,135.9c3.7,8.6,13.1,13.7,22.6,11.7
		l86.5-13.5c2.5-0.6,4.6-2.5,5.2-5.2C512.5,296.9,510.2,293.3,506.6,292.6"/>
</g>
</svg>
