<?xml version="1.0" encoding="utf-8"?>
<!-- Generator: Adobe Illustrator 23.0.2, SVG Export Plug-In . SVG Version: 6.00 Build 0)  -->
<svg version="1.1" xmlns="http://www.w3.org/2000/svg" xmlns:xlink="http://www.w3.org/1999/xlink" x="0px" y="0px"
	 viewBox="0 0 500 500" style="enable-background:new 0 0 500 500;" xml:space="preserve">
<style type="text/css">
	.st0{stroke:#000000;stroke-width:5;stroke-miterlimit:10;}
</style>
<g id="Layer_2">
</g>
<g id="Layer_1">
	<g>
		<path d="M210.5,40v122.7H40V40H210.5 M238.5,0H12C5.4,0,0,5.4,0,12v178.7c0,6.6,5.4,12,12,12h226.5c6.6,0,12-5.4,12-12V12
			C250.5,5.4,245.1,0,238.5,0L238.5,0z"/>
	</g>
	<g>
		<path d="M460.5,309.2v73.1H351.3v-73.1H460.5 M488.5,269.2H323.3c-6.6,0-12,5.4-12,12v129.1c0,6.6,5.4,12,12,12h165.2
			c6.6,0,12-5.4,12-12V281.2C500.5,274.6,495.1,269.2,488.5,269.2L488.5,269.2z"/>
	</g>
	<path class="st0" d="M424.5,179c-1.6-23.2-11-45.9-28.8-63.6C364.6,84.3,318,78.2,280.7,97l10.6,21c28.4-14.3,63.9-9.7,87.7,14.1
		c13.1,13.1,20.2,29.8,21.7,46.9h-48.5l60.3,60.3l60.3-60.3H424.5z"/>
</g>
</svg>
